<svg width="390" height="390" viewBox="0 0 390 390" fill="none" xmlns="http://www.w3.org/2000/svg">
<path d="M237.479 151.521H365V238.424H237.479V365H150.576V238.424H24V151.521H150.576V24H237.479V151.521Z" fill="#FFA360"/>
<path d="M250.46 84.639C250.616 86.2647 249.773 88.5593 249.729 90.477C249.534 98.5106 248.949 101.487 248.618 108.756C248.126 119.534 249.234 151.52 243.376 151.521C243.376 151.521 243.376 151.521 243.376 151.521C243.319 151.521 243.26 151.517 243.202 151.511C242.086 151.399 240.868 148.679 239.606 148.275C238.343 147.872 230.193 148.174 229.735 144.31C229.131 138.707 231.221 125.267 231.128 122.279C231.065 120.236 230.324 117.721 230.192 115.109C229.768 106.687 230.31 102.28 228.297 94.6916C229.358 91.6564 230.419 88.6212 231.479 85.5859C230.987 81.6258 232.386 75.6237 232.309 73.2178C232.246 71.2441 231.407 70.0873 231.368 68.0302C231.32 65.7229 232.225 62.1795 232.089 57.9827C231.869 51.1023 229.681 49.878 229.403 45.7498C229.116 41.4689 230.305 34.8114 229.535 29.3491C229.294 28.664 229.054 27.979 228.813 27.2939C228.269 27.7847 227.725 28.2755 227.18 28.7664C226.99 26.706 227.568 25.525 227.879 24L237.479 33.6003C236.968 33.4962 236.418 33.422 235.783 33.417C232.809 33.3926 231.291 34.4502 229.29 34.4453C227.65 34.4404 225.427 33.5924 223.301 33.6455C220.201 33.7186 220.879 34.943 219.211 35.1721C218.546 35.2611 206.241 35.9368 205.547 35.9465C200.268 35.9948 199.808 34.3189 195.599 34.1723C183.923 33.7727 171.938 35.1269 161.138 35.6387C157.672 35.8032 154.098 35.7992 150.576 35.6844L162.261 24C162.216 25.3784 162.154 26.7488 162.078 28.1014C157.789 20.5276 154.451 37.2889 161.163 31.0205C160.208 36.3705 162.02 40.1639 161.713 45.2358C161.514 48.5161 160.583 50.7864 160.607 55.4706C160.656 63.782 163.302 72.8733 158.52 75.2638C159.363 85.0205 157.629 93.4709 161.85 96.9874C162.108 99.5034 159.594 105.951 159.252 108.773C158.93 111.441 157.795 131.918 157.732 135.268C157.668 138.618 157.6 144.481 157.97 147.303C158.16 148.776 159.028 150.064 159.609 151.521L159.433 160.722L150.576 160.553C148.529 161.371 146.15 161.623 142.462 158.632C135.125 159.046 132.511 158.899 125.687 158.305C124.451 158.197 124.312 157.437 123.59 157.437C122.103 157.437 119.573 157.998 116.919 158.067C112.555 158.179 110.064 156.58 110.551 159.022C107.673 159.431 104.796 159.841 101.918 160.25C100.909 159.779 99.8995 159.308 98.89 158.836C97.3516 159.35 95.8132 159.864 94.2747 160.377C96.0816 156.844 85.254 158.929 88.7697 160.957C83.1918 160.225 77.6139 159.494 72.036 158.763C72.8144 154.747 59.7888 158.3 60.8854 160.484C60.2472 160.48 59.6089 160.477 58.9706 160.474C53.383 159.407 48.2517 160.28 41.4409 159.563C34.6306 158.847 35.2699 158.456 33.1989 156.608C31.5963 156.714 29.9937 156.82 28.3911 156.926C26.5393 158.041 25.1674 158.485 24 158.542L31.0214 151.521C31.2215 155.654 26.5568 157.223 29.5861 168.452C26.4033 173.053 28.0751 184.394 29.0402 191.914C29.1523 192.789 29.7702 192.804 29.9607 193.969C30.4188 196.818 29.6246 204.088 31.6174 203.84C31.0408 206.356 30.4642 208.873 29.8877 211.39C30.25 213.447 30.6124 215.504 30.9747 217.561C31.5968 217.55 32.2188 217.54 32.8409 217.529C30.7208 221.672 31.5356 228.18 31.0287 231.391C30.9259 232.03 30.0678 232.168 29.8337 234.154C29.7021 235.254 29.6898 236.803 29.6848 238.424L24 232.739C25.7999 232.745 27.6872 232.741 29.1427 232.882C30.2181 231.932 31.2934 230.981 32.3688 230.03C37.3151 229.515 39.0538 232.024 41.9584 232.219C42.4814 232.253 52.0225 232.072 52.5366 232.019C56.7452 231.594 55.5529 229.457 67.7249 229.915C69.8924 229.997 71.6455 230.737 73.6046 230.767C77.0655 230.82 87.4941 229.143 88.3142 227.593C92.5118 229.533 103.743 228.74 107.051 229.3C108.05 229.473 108.275 230.708 111.344 230.971C113.832 231.186 120.239 230.197 123.395 230.362C126.744 230.542 127.94 231.58 129.441 231.654C130.858 231.722 132.166 230.884 134.098 230.889C140.129 230.918 145.591 232.267 150.358 232.292C150.431 232.292 150.503 232.292 150.576 232.292L156.822 232.411L156.708 238.424C156.722 245.228 159.162 251.251 160.252 256.958C160.091 258.39 159.558 259.796 159.554 261.297C159.476 279.867 159.018 300.814 158.487 319.439C158.243 328.085 154.875 349.586 160.495 343.847C161.174 345.922 160.304 356.985 159.689 365L150.576 355.887C154.167 356.162 157.146 356.387 158.431 356.397C162.586 356.431 165.879 355.423 169.145 355.408C179 355.365 185.939 356.091 197.935 355.213C201.033 354.984 204.352 353.79 206.187 353.804C208.397 353.824 210.775 354.978 213.638 355.051C219.747 355.2 230.579 354.911 237.479 354.992L227.472 365C227.481 364.192 227.496 363.438 227.517 362.752C227.556 361.557 228.569 361.137 228.886 359.427C230.124 352.77 230.017 345.307 226.78 346.627C228.618 338.094 226.942 330.2 226.839 322.292C226.629 305.571 227.385 275.112 226.025 260.545C225.175 251.44 223.741 251.591 224.936 238.424L225.179 225.646L237.479 225.88C237.596 225.891 237.713 225.901 237.831 225.912C240.833 226.19 243.822 226.565 247.463 226.896C255.997 227.676 263.826 230.358 270.331 227.126C279.809 227.964 287.358 227.37 294.391 230.134C295.22 229.471 296.049 228.808 296.878 228.145C298.04 228.129 299.202 228.112 300.364 228.096C300.727 228.728 301.089 229.36 301.452 229.992C309.776 230.163 320.338 227.564 327.385 227.583C335.336 227.603 351.721 228.067 365 228.628L355.204 238.424C355.477 231.973 355.772 226.254 356.051 222.591C356.504 216.644 355.15 216.324 357.933 212.918C357.74 211.588 357.546 210.258 357.352 208.928C356.743 208.095 356.134 207.262 355.524 206.43C355.5 198.799 356.446 189.749 356.437 182.479C356.424 173.777 355.696 162.206 355.51 151.521L365 161.011C359.421 161.108 354.083 161.057 349.52 160.679C346.184 160.401 342.015 159.144 338.749 159.159C333.995 159.178 332.84 161.263 326.808 161.302C316.411 161.366 297.048 158.943 287.221 159.128C284.302 159.182 282.941 159.958 280.925 160.041C272.474 160.397 265.536 160.333 257.433 161.533C248.732 159.534 249.483 156.955 246.787 154.352C244.743 152.387 238.477 147.835 237.587 146.114C236.962 144.905 239.295 143.35 238.42 142.02C248.844 140.957 253.224 142.127 261.689 143.999C277.321 143.924 292.953 143.85 308.586 143.775C310.008 144.501 311.43 145.228 312.852 145.954C312.852 145.955 312.852 145.957 312.852 145.959C318.856 146.797 321.4 144.926 324.638 144.502C335.309 143.102 349.537 142.562 365 142.473L373.872 142.304L374.047 151.521C374.216 180.974 372.744 214.909 372.444 237.285C372.439 237.63 372.437 238.01 372.437 238.424L372.576 245.717L365 245.861C356.586 245.857 334.629 246.694 329.82 245.57C328.514 245.262 328.15 244.142 326.76 244.094C314.344 244.76 301.927 245.426 289.51 246.092C272.401 244.926 254.903 245.186 237.479 245.566L244.621 238.424C244.808 247.003 245.024 255.564 245.112 264.052C245.465 297.856 245.855 331.495 246.131 365L246.293 373.484L237.479 373.652C208.416 373.892 179.455 374.047 150.576 374.02L141.731 374.188L141.556 365C141.562 358.616 141.577 352.237 141.602 345.861C141.656 332.628 140.817 315.836 141.358 302.882C141.582 297.475 143.381 295.223 142.04 288.12C142.525 288.046 143.009 287.971 143.494 287.897C142.909 281.698 141.806 277.737 141.694 270.788C141.602 264.936 141.53 249.454 141.715 244.283C141.808 241.601 142.713 242.6 142.708 240.099C142.707 239.602 142.688 239.04 142.657 238.424L150.576 246.343C145.89 246.58 138.138 247.558 132.916 247.558C127.565 247.558 118.544 246.515 114.429 246.666C99.6124 247.202 83.4731 248.748 67.6833 248.334C63.3215 248.217 57.7113 247.043 56.3454 247.076C53.6772 247.144 52.8824 248.284 51.0901 248.431C43.5839 249.042 32.6191 248.227 24 247.893L14.7149 248.07L14.531 238.424C14.6022 236.589 14.6518 234.861 14.6612 233.295C14.8225 206.569 14.415 178.385 14.5108 151.521L14.3334 142.216L24 142.031C26.3643 142.04 28.7184 142.052 31.0604 142.069C49.352 142.201 79.7492 142 96.637 142.858C100.279 143.043 99.3079 144.292 102.366 144.292C105.756 144.292 107.593 143.448 109.177 143.38C118.868 142.958 138.901 142.242 150.576 142.677L141.733 151.521C141.79 149.983 141.867 148.591 141.967 147.386C142.133 145.414 143.112 143.983 143.108 142.802C143.108 142.204 142.44 140.854 142.372 138.978C141.768 122.409 142.157 110.329 142.386 94.0944C142.692 72.2095 142.166 47.8803 142.063 24L141.904 15.6521L150.576 15.4868C160.624 15.4433 170.592 15.4745 180.265 15.6736C187.381 15.8199 192.262 17.7561 193.262 17.7366C195.458 17.6976 196.864 16.3952 201.312 16.0735C212.063 15.3048 225.526 15.8295 237.479 15.9224L245.4 15.7714L245.557 24C245.522 28.4879 245.548 32.7631 245.727 36.6025C246.048 43.5515 247.701 53.1006 248.067 59.9391C248.36 65.401 247.711 78.3001 248.437 80.7209C248.875 82.1938 250.284 82.8751 250.46 84.639ZM159.52 60.4605C157.268 59.4875 159.14 69.7134 160.349 65.8771C160.621 65.0131 160.105 60.712 159.52 60.4605ZM155.61 286.148C156.253 286.055 156.897 285.961 157.54 285.867C157.272 284.525 157.004 283.182 156.737 281.84C156.35 282.594 155.963 283.349 155.577 284.103C155.588 284.785 155.599 285.467 155.61 286.148Z" fill="black"/>
<path d="M239.47 123.934C240.683 123.757 243.375 123.981 245.389 125.306C249.789 128.524 249.381 130.961 249.718 131.954C249.949 134.069 249.711 134.515 249.651 135.067C249.558 135.569 249.473 135.877 249.395 136.155C248.997 137.397 248.737 138.097 248.4 138.852C248.825 139.196 249.212 139.446 249.452 139.335C249.639 139.249 249.593 138.471 249.712 138.367C250.181 137.927 250.634 137.904 250.77 136.648C251.59 138.513 252.165 141.024 252.979 143.503C253.123 143.992 253.354 144.637 253.629 145.352C254.799 144.952 255.733 145.297 256.938 145.527C259.035 145.927 261.451 145.241 263.724 145.51C263.736 145.508 263.775 145.517 263.788 145.515C264.231 145.571 264.664 145.667 265.084 145.816C265.624 146.008 265.837 147.968 265.917 147.956C266.089 147.929 266.308 146.642 266.676 146.351C267.909 145.394 269.323 146.913 270.447 146.358C271.002 146.085 271.867 144.5 272.39 144.177C272.685 143.996 273.198 144.301 273.522 144.241C273.66 144.217 273.767 144.129 273.825 143.919C273.947 143.488 274.079 142.086 274.19 141.915C274.292 141.767 274.371 142.614 274.477 142.664C274.911 142.882 275.045 143.471 275.503 143.814C276.142 144.324 278.718 143.254 278.603 149.111C278.601 149.169 278.6 149.227 278.599 149.286C278.568 150.401 278.335 151.616 278.283 152.877C278.232 154.14 278.105 162.284 277.811 162.74C277.382 163.336 276.39 161.233 276.152 161.32C275.991 161.382 275.78 162.118 275.566 162.246C274.867 162.655 274.511 162.105 273.73 164.085C273.499 163.013 273.285 161.939 273.09 160.864C272.834 161.189 272.556 160.607 272.351 160.236C272.26 160.07 272.177 159.946 272.117 159.965C271.953 160.017 271.795 160.843 271.627 160.87C271.436 160.903 271.231 159.979 270.893 160.087C270.341 160.26 270.054 162.431 269.711 162.68C269.354 162.936 268.952 161.709 268.469 162.438C268.396 162.673 268.321 162.909 268.248 163.144C268.237 163.689 268.228 164.234 268.218 164.779C267.986 165.013 267.993 163.895 267.805 163.857C267.581 163.814 267.376 164.854 267.224 164.838C267.102 164.821 267.005 163.964 266.843 164.003C266.604 164.055 266.546 165.278 266.402 165.496C266.344 165.58 265.365 166.174 265.312 166.18C264.912 166.194 265.02 164.521 264.716 164.349C263.929 163.908 262.999 164.992 262.187 165.5L262.271 165.506C262.218 165.542 262.165 165.577 262.112 165.607C261.758 165.811 261.418 165.691 261.105 165.403C261.908 161.156 260.92 157.75 260.96 164.477C260.65 163.502 260.268 165.294 259.938 164.971C259.721 164.759 259.608 163.823 259.284 163.833C258.683 163.856 257.976 166.476 257.964 161.693C257.243 162.513 256.673 160.769 256.358 164.984C256.181 165.236 255.761 162.718 255.563 162.375C255.391 162.049 253.915 160.911 253.684 160.852C253.439 160.79 253.012 160.727 252.817 161.1C252.566 161.563 252.494 165.939 251.926 160.834C251.404 161.26 251.231 161.119 250.707 160.541C250.614 160.435 250.578 159.683 250.525 159.679C250.417 159.682 250.253 160.25 250.067 160.326C249.76 160.45 249.502 158.862 249.643 161.299C249.451 161.717 249.262 162.135 249.079 162.554C248.985 162.087 248.895 161.619 248.796 161.152C248.707 161.671 248.62 162.19 248.535 162.709C248.484 159.173 247.808 161.297 248.173 163.308C247.749 162.599 247.276 161.893 246.835 161.188C246.653 157.176 245.887 160.785 246.122 162.958C246.076 162.958 246.029 162.958 245.982 162.958C245.495 161.921 245.179 162.817 244.609 162.139C244.038 161.46 244.063 161.066 243.778 159.234C243.664 159.348 243.541 159.463 243.425 159.577C243.113 164.674 242.655 155.921 241.746 159.866C241.195 156.711 240.394 158.427 239.714 159.401C239.638 159.514 239.64 160.131 239.528 160.323C239.254 160.787 238.519 159.979 238.465 161.969C238.195 161.383 237.917 160.79 237.654 160.189C237.38 160.53 237.055 160.861 236.688 161.174C236.601 161.79 236.515 162.406 236.429 163.022C236.086 160.847 234.664 161.352 233.994 160.517C233.873 160.352 234.168 159.557 233.827 159.128C233.446 158.651 232.191 158.104 231.784 157.218C230.849 157.601 229.838 157.865 228.783 158.001C227.233 156.433 229.179 155.008 229.403 154.242C226.886 153.064 225.751 150.971 225.377 149.935C225.297 149.716 225.232 149.513 225.177 149.324C224.869 149.237 224.553 149.176 224.243 149.154C224.588 149.065 224.848 148.953 225.045 148.827C224.913 148.252 224.881 147.821 224.844 147.441C224.767 146.297 224.798 145.619 224.755 145.061C224.769 141.479 225.633 139.375 226.444 137.78C227.661 135.684 228.896 133.966 230.004 132.535C229.806 132.45 229.592 132.36 229.359 132.268C228.752 131.649 230.726 130.95 231.583 130.558C231.723 130.386 231.858 130.219 231.988 130.058C231.923 129.671 231.559 129.132 231.692 128.907C231.875 128.6 232.123 128.378 232.365 128.156C232.492 128.003 232.632 127.836 232.828 127.608C233.054 127.355 233.244 127.101 233.92 126.465C234.128 126.275 234.315 126.108 234.689 125.822C235.099 125.529 235.495 125.197 236.659 124.67C237.122 124.469 238.142 124.067 239.47 123.934ZM258.977 162.73C259.138 160.484 258.331 162.325 258.56 163.544C258.61 163.817 258.933 163.313 258.977 162.73ZM243.446 147.658C243.375 147.72 243.34 147.778 243.371 147.83C243.459 147.983 243.584 148.131 243.728 148.273C243.699 148.202 243.666 148.124 243.626 148.039C243.574 147.919 243.513 147.793 243.446 147.658ZM239.764 140.847C239.843 140.66 239.922 140.474 240 140.287C239.885 140.171 239.764 140.054 239.638 139.938C239.673 140.176 239.716 140.474 239.764 140.847ZM235.592 137.764C235.531 137.869 235.472 138.001 235.407 138.162C235.317 138.568 235.226 138.973 235.14 139.38C235.253 139.513 235.575 138.541 235.842 137.824C235.759 137.803 235.676 137.783 235.592 137.764ZM231.492 133.376C231.498 133.689 231.505 134.014 231.584 134.556C232.101 134.265 232.357 133.902 231.495 133.31C231.495 133.331 231.492 133.353 231.492 133.376ZM233.269 128.38C232.903 128.805 232.68 129.083 232.468 129.452C232.773 129.065 233.044 128.71 233.269 128.38Z" fill="black"/>
</svg>
