<svg width="390" height="390" viewBox="0 0 390 390" fill="none" xmlns="http://www.w3.org/2000/svg">
<path d="M93.2432 16.1015C97.0154 15.2888 101.163 16.6376 105.564 17.2754C108.885 17.7613 116.703 18.42 119.569 18.9756C121.582 19.3724 123.964 20.63 126.191 21.0244C126.225 21.1212 126.254 21.2158 126.28 21.3076C127.013 21.3003 127.737 21.2799 128.424 21.2217C130.27 22.4723 128.324 23.1808 125.221 24.4805C125.462 26.6229 125.73 28.7687 126.018 30.9365C124.807 31.2269 123.596 31.5222 122.387 31.8213C122.384 31.8215 122.381 31.8211 122.379 31.8213C121.028 32.7535 124.211 32.8754 124.965 33.2793C132.148 37.0209 127.628 45.9405 127.439 50.8652C127.393 51.913 129.446 55.068 127.558 56.0195C127.064 56.266 125.191 56.5546 125.134 56.7597C126.475 58.3756 127.821 59.9628 129.174 61.5517C126.742 65.5308 129.69 68.918 130.688 72.4277C132.647 79.325 134.844 86.1007 136.453 92.956C137.113 95.8123 137.613 98.6599 137.929 101.473C138.147 103.435 139.917 105.659 139.29 107.639C139.031 108.465 136.07 109.24 138.464 109.903C137.655 110.037 136.846 110.17 136.037 110.304C136.849 110.833 138.096 111.123 138.841 111.605C139.05 111.593 139.264 111.609 139.482 111.666C140.824 112.021 141.734 113.607 143.655 113.594C147.059 113.559 150.885 109.152 151.709 117.261C155.737 115.911 159.134 118.928 160.763 111.825C161.814 111.415 164.359 115.739 165.5 116.352C166.578 116.919 174.96 119.13 176.343 119.309C177.713 119.472 180.154 119.702 181.351 119.137C182.214 118.733 183.084 116.129 184.05 115.673C184.744 115.337 185.494 116.163 186.36 119.887C189.35 119.343 190.367 119.641 193.067 120.776C193.554 120.981 193.551 122.269 193.84 122.283C194.429 122.31 195.508 121.408 196.568 121.338C198.339 121.225 199.219 123.968 199.196 119.832C200.392 119.188 201.556 118.54 202.753 117.894C203.129 118.706 203.503 119.52 203.877 120.332C204.527 119.487 205.187 118.642 205.835 117.796C204.884 123.745 209.385 120.376 208.088 116.896C210.293 118.213 212.498 119.526 214.725 120.838C214.172 127.619 219.675 121.787 219.351 118.079C219.61 118.093 219.866 118.107 220.129 118.121C222.343 120.003 224.497 118.598 227.249 119.914C230.001 121.232 229.711 121.886 230.437 125.043C231.104 124.891 231.764 124.739 232.433 124.589C236.296 116.188 234.958 130.957 241.248 124.728C242.833 130.212 247.643 127.697 250.927 126.346C251.307 126.188 251.403 125.146 251.919 124.868C252.4 124.613 253.125 124.692 253.849 124.701C254.989 124.713 256.134 124.54 256.272 122.46C257.216 123.532 258.163 124.607 259.105 125.686C260.022 125.164 260.945 124.646 261.877 124.133C261.989 123.086 262.1 122.039 262.212 120.992C263.564 124.749 266.485 123.72 267.757 124.763C268.007 124.973 267.87 126.418 268.657 126.93C269.575 127.533 271.485 127.39 272.596 128.039C273.322 126.53 274.063 125.025 274.821 123.526C277.187 123.066 277.15 127.397 278.331 127.979C278.548 128.064 282.774 128.732 283.025 128.724C285.042 128.531 285.474 124.781 290.788 127.278C291.73 127.738 292.105 129.194 292.954 129.556C294.028 130.004 297.198 129.709 299.523 128.799C300.355 128.386 301.07 127.862 301.466 127.217C301.774 130.925 306.83 131.781 307.769 133.317C308.041 133.777 307.214 135.696 308.229 136.705C309.046 137.516 312.383 137.381 313.521 138.349C314.716 139.369 314.302 141.168 314.825 141.62C315.318 142.045 316.563 141.139 317.322 141.618C319.692 143.143 320.512 146.468 322.245 147.799C324.737 149.718 329.626 148.32 333.104 149C333.461 149.702 333.359 150.85 333.897 151.391C336.189 153.708 338.409 156.371 340.398 159.297C343.468 163.953 346.809 169.387 349.104 175.948C351.39 180.81 347.014 193.695 356.083 189.642C356.743 190.285 356.78 192.66 356.264 195.276C355.436 198.36 353.676 202.365 353.58 203.466C353.434 205.189 355.059 206.664 355.002 208.039C354.819 212.205 353.402 215.024 354.391 220.333C354.649 221.705 356.502 223.373 356.387 224.185C356.244 225.157 354.18 225.975 353.895 227.225C353.256 230.174 352.965 236.032 351.947 239.044C351.761 239.592 350.046 239.417 349.345 240.086C346.63 242.667 345.757 246.126 351.175 247.124C349.455 248.485 348.624 250.039 348.077 251.766C347.312 254.197 347.339 256.711 346.47 258.787C343.449 266.194 335.515 276.916 333.874 283.459C332.864 287.591 334.936 288.955 329.8 292.574C328.653 293.377 327.387 294.054 325.997 295.006C322.736 297.232 317.137 297.095 319.732 302.663C316.115 304.999 314.854 308.15 309.338 307.485C309.98 308.468 310.62 309.454 311.256 310.442C310.961 310.841 310.663 311.241 310.363 311.642C309.444 311.073 308.525 310.504 307.606 309.934C306.044 311.509 305.637 314.584 305.002 317.222C304.655 318.729 304.284 320.039 303.555 320.851C300.325 324.479 290.55 332.784 286.192 335.226C283.899 336.528 285.436 338.225 281.054 335.982C280.9 336.611 280.726 337.258 280.565 337.888C281.055 338.86 281.532 339.844 282.006 340.83C279.688 343.226 275.701 344.852 273.159 347.108C270.113 349.671 267.434 353.97 260.245 357.771C257.821 359.078 255.397 360.021 253.126 360.166C251.591 360.265 249.161 358.916 247.865 359.422C245.976 360.155 246.711 363.645 244.281 364.572C240.072 366.187 231.01 364.787 227.15 366.237C225.994 366.675 225.812 368.095 225.027 368.468C221.748 370.037 218.906 370.706 215.948 373.547C211.414 371.187 210.709 366.84 208.642 362.796C207.05 359.76 202.973 352.682 202.812 349.73C202.523 347.706 202.346 345.072 201.938 342.856C203.778 340.709 206.529 342.063 210.288 344.367C216.094 342.723 221.976 340.85 227.735 338.852C228.641 339.85 229.558 340.843 230.475 341.835C230.475 341.837 230.477 341.839 230.478 341.842C233.18 342.441 233.116 339.113 234.067 338.023C237.315 334.305 242.344 331.515 247.676 329.069C248.558 328.747 254.094 325.031 258.229 321.799C262.613 318.429 266.86 314.952 270 311.913C272.094 309.911 277.238 301.675 280.065 301.468C280.801 301.421 282.319 302.563 282.753 302.195C283.31 301.183 283.836 300.204 284.395 299.186C286.25 295.735 288.033 292.272 289.741 288.796C298.346 282.924 302.659 273.049 307.649 264.545C312.305 256.595 316.781 247.929 319.279 240.603C323.01 228.326 323.247 210.62 324.196 193.967C324.228 193.449 324.24 192.967 324.232 192.51C324.201 189.876 321.958 187.852 320.479 183.842C319.897 182.233 321.946 179.827 318.593 179.064C319.239 178.559 319.885 178.053 320.53 177.547C319.649 177.024 318.726 176.706 317.816 176.365C316.642 176.074 315.544 175.826 314.654 174.99C313.453 173.768 309.911 170.655 308.75 169.413C308.173 168.761 309.364 167.747 308.698 167.251C307.538 166.389 303.834 166.414 302.138 165.396C300.625 164.454 298.699 161.373 297.237 160.916C294.02 159.883 290.253 159.492 286.494 158.589C284.592 158.206 282.753 157.731 281 156.873C279.742 156.242 278.476 153.819 277.996 153.748C277.08 153.62 276.335 155.422 275.693 155.518C272.488 155.984 268.037 152.844 264.718 152.305C260.554 151.601 256.062 151.202 251.378 150.853C244.415 150.339 237.282 150.17 230.286 149.663C223.044 149.131 210.651 149.106 203.775 147.388C202.287 147.018 202.778 144.921 201.521 144.872C200.124 144.818 199.329 146.215 198.666 146.304C194.859 146.833 187.171 147.604 182.302 146.8C181.448 146.652 180.643 146.45 180.011 146.185C179.258 145.866 178.765 144.184 178.289 144.167C178.055 144.156 177.475 145.26 176.722 145.343C170.098 146.078 165.287 145.275 158.767 144.724C155.149 144.422 151.355 144.374 147.471 144.425C147.603 144.96 147.722 145.495 147.818 146.032C148.295 148.668 149.754 152.873 148.967 155.625C148.795 156.213 146.715 156.613 146.827 157.046C146.953 157.526 148.401 157.429 148.571 157.624C149.751 158.956 152.033 162.063 150.981 163.872C150.781 164.223 149.228 164.831 149.273 164.998C149.297 165.083 150.439 165.002 150.618 165.24C152.195 167.332 151.987 169.239 152.167 171.629C152.532 176.25 155.783 180.929 155.702 185.962C155.68 187.036 152.63 188.453 152.69 188.584C152.814 188.869 154.697 188.664 155.512 189.072C155.881 189.114 156.217 189.177 156.499 189.278C157.858 189.761 159.568 192.651 160.818 192.111C161.579 191.787 163.262 190.092 163.79 190.152C164.272 190.22 163.771 191.673 164.077 192.04C164.471 192.516 164.734 192.962 164.934 193.392C165.401 194.387 165.56 195.327 166.227 196.447C166.914 197.615 169.108 199.269 169.787 201.026C170.59 202.859 168.761 203.936 166.378 208.321L166.377 208.322C166.327 208.406 166.278 208.491 166.227 208.576C165.293 210.22 163.947 211.81 162.659 213.516C161.4 215.234 153.743 226.746 151.97 226.396C149.425 225.755 149.411 220.912 148.8 220.583C148.369 220.34 147.095 220.879 146.504 220.646C145.393 220.208 144.889 219.576 143.967 219.404C141.113 221.579 138.473 223.545 138.086 223.648C136.99 223.902 139.018 220.789 138.726 220.682C138.529 220.613 137.428 221.251 137.12 221.23C136.131 221.171 136.571 220.28 133.656 222.129C134.847 220.768 136.019 219.388 137.171 217.991C136.447 218.291 137.445 216.787 137.525 216.394C137.407 216.415 137.29 216.437 137.175 216.457C136.783 216.709 136.194 217.174 136.081 217.127C136.009 217.1 136.108 216.878 136.226 216.616C135.567 216.723 134.99 216.809 134.526 216.863C134.071 217.24 133.615 217.636 133.251 217.931C132.95 218.172 132.711 218.345 132.584 218.379C132.033 218.533 132.998 216.698 131.84 217.421C131.537 217.698 131.235 217.976 130.935 218.255C130.364 218.978 129.791 219.7 129.216 220.42C128.805 220.633 129.964 219.143 129.854 219.006C129.725 218.845 128.512 220.165 128.42 220.079C128.347 220.007 129.131 218.798 128.962 218.778C128.887 218.769 128.716 218.924 128.506 219.147L128.71 219.271C128.623 219.231 128.513 219.236 128.387 219.273C127.933 219.773 127.362 220.493 127.159 220.646C127.032 220.735 125.741 221.187 125.692 221.18C125.641 221.158 125.644 221.077 125.684 220.953C125.443 220.933 125.29 220.679 125.189 220.283C128.47 213.781 129.33 208.036 125.576 218.769C125.802 217.119 124.422 219.872 124.252 219.253C124.137 218.847 124.521 217.311 124.146 217.218C123.469 217.06 121.296 221.043 123.731 213.325C122.456 214.394 122.634 211.363 120.097 218.048C119.75 218.39 120.505 214.165 120.427 213.531C120.365 212.937 119.064 210.504 118.772 210.3C118.489 210.097 117.97 209.81 117.51 210.321C116.936 210.953 114.446 217.933 116.469 209.487C115.544 209.927 115.362 209.608 115.002 208.434C114.937 208.221 115.32 206.994 115.25 206.97C115.104 206.924 114.561 207.745 114.262 207.769C113.769 207.806 114.374 205.157 113.121 209.095C112.615 209.657 112.103 210.216 111.589 210.773C111.741 209.983 111.893 209.193 112.047 208.403C111.613 209.174 111.175 209.943 110.735 210.711C112.855 205.117 110.613 208.076 109.846 211.441C109.669 210.071 109.499 208.699 109.344 207.328C111.731 200.966 108.371 206.138 107.175 209.634C107.109 209.603 107.042 209.573 106.976 209.543C107.017 207.63 105.946 208.802 105.658 207.385C105.381 205.97 105.697 205.382 106.658 202.399C106.428 202.499 106.196 202.598 105.964 202.695C101.769 210.23 107.726 196.65 103.652 202.035C105.381 196.911 103.142 198.994 101.636 200.071C101.463 200.199 100.999 201.135 100.734 201.363C100.088 201.909 99.9427 200.326 98.418 203.332C98.5927 202.324 98.7789 201.319 98.9775 200.319C98.4746 200.746 97.9655 201.168 97.4502 201.584C96.9441 202.507 96.4376 203.43 95.9316 204.353C97.1387 201.129 95.9789 201.704 95.9248 200.954C95.9256 200.917 95.9301 200.875 95.9375 200.83C95.9697 200.645 96.6893 199.386 96.7148 198.942C96.7484 198.417 96.1502 198.563 96.1367 198.028C95.2242 199.358 94.31 200.686 93.3945 202.014C92.5054 202.501 94.5176 198.758 94.4297 198.321C94.4058 198.243 93.4238 198.008 93.3281 198.057C92.5889 198.45 90.8291 201.615 90.1465 200.296C90.0261 200.058 90.5208 198.896 90.376 198.749C90.122 198.489 87.7244 200.35 86.2764 202.538C87.6201 199.511 85.9299 200.044 86.1406 199.058C86.208 198.754 87.2898 196.968 87.2588 196.424C87.2346 195.982 85.7906 197.053 85.6631 196.643C85.5319 196.2 86.3642 194.648 86.3008 194.462C86.2395 194.289 85.3736 195.416 85.21 195.306C84.7144 194.935 85.4631 192.707 85.0762 192.412C84.5188 191.981 81.7438 195.191 80.2373 196.439C80.2602 196.131 80.625 195.294 80.5 195.204C78.9679 194.065 77.595 192.249 76.5068 190.458C75.9919 189.627 77.33 183.678 72.5586 191.923C71.3795 193.14 71.6495 188.713 71.335 188.432C71.016 188.151 69.7893 189.379 69.499 189.215C68.6244 188.716 68.7278 187.304 66.8877 187.851C66.4096 187.995 64.9942 189.476 64.8525 189.352C64.6853 189.196 65.5833 187.446 65.4131 187.18C64.9984 186.558 63.5704 186.36 63.2129 185.705C63.1506 185.581 64.0852 184.143 64.2461 183.603C64.8769 181.496 64.1581 181.221 61.1602 185.807C62.2098 182.754 59.942 184.633 59.1846 184.32C57.5849 183.645 55.7898 180.833 53.2676 181.872C51.67 182.524 50.2711 184.543 50.377 182.024C50.4023 181.467 50.5187 180.772 50.541 180.101C50.5941 178.521 52.5825 174.371 48.8828 178.45C48.9191 176.737 47.7176 177.115 49.8604 172.899C49.1425 173.765 48.4214 174.629 47.7021 175.494C47.5901 175.448 47.478 175.403 47.3662 175.357C47.9575 174.465 48.5492 173.573 49.1406 172.681C48.6217 171.957 45.2196 174.928 44.6504 174.481C43.7078 173.747 42.2365 170.586 42.1621 168.752C42.1261 167.783 40.7612 169.621 43.2412 165.604C42.9426 165.793 42.6438 165.981 42.3457 166.17C41.6755 166.958 41.0067 167.747 40.334 168.533C39.9884 168.311 39.8826 167.695 39.7734 167.104C39.4409 167.137 39.0513 167.089 38.5898 166.931C38.1644 166.781 37.8635 165.945 37.5127 165.552C37.2076 165.539 36.8982 165.522 36.6045 165.488C35.3731 166.042 33.1613 168.109 32.6475 170.224C31.9277 166.83 28.5948 167.636 27.8105 166.5C27.5816 166.156 27.9281 164.098 27.1797 163.484C26.5824 162.992 24.422 164.205 23.5889 163.688C22.7245 163.142 22.8734 161.354 22.502 161.117C22.1532 160.896 21.3866 162.146 20.8477 161.968C20.8006 161.951 20.7538 161.934 20.708 161.914C19.3638 161.26 17.3872 160.55 14.2139 156.449C12.6767 154.39 11.7074 151.091 11.8232 148.92C11.8747 146.714 12.3824 145.333 12.6514 144.376C13.5677 141.573 13.3731 140.216 12.9521 138.413C12.5214 136.714 11.89 134.997 11.6709 133.725C12.1765 133.5 13.1229 133.743 13.4053 133.39C16.4556 129.666 19.8296 126.823 23.1221 124.206C23.4171 123.974 23.7147 123.741 24.0137 123.509C25.6889 122.195 33.3063 122.151 25.2656 116.898C24.4842 115.261 30.7539 113.938 31.4434 113.247C32.1217 112.564 31.3674 110.843 31.8447 110.264C33.3178 108.482 35.2998 108.094 36.0312 105.018C36.2127 104.223 35.2121 102.306 35.5068 102.005C35.8682 101.644 37.6987 102.52 38.2314 102.102C39.4833 101.102 40.9399 98.4639 42.1836 97.5508C42.4144 97.3865 43.7716 98.4407 44.4355 98.4951C47.0253 98.712 48.0186 97.2878 43.6797 93.9316C47.3144 94.4857 46.3535 91.2565 47.3965 89.7724C49.6199 86.646 55.0586 82.1637 55.3291 78.1806C55.4973 75.6757 53.5559 74.1802 57.0605 73.1894C57.8391 72.9659 58.7458 72.842 59.6719 72.5703C61.8592 71.9212 66.5105 73.3121 62.9893 68.8945C63.278 68.8016 63.5327 68.6926 63.7646 68.5762C65.4756 67.6632 66.0892 66.3693 70.2129 67.6572C69.4095 66.8536 68.6038 66.0522 67.7969 65.2529C67.9194 65.0343 68.0488 64.8064 68.1738 64.583C69.0912 65.1385 70.0094 65.6931 70.9277 66.2471C72.2369 64.9042 69.932 60.5088 70.8057 59.2695C72.2944 57.2032 77.2292 52.6345 79.6826 51.2764C80.994 50.5679 79.0478 49.3537 83.4922 51.0791C83.3544 50.6634 83.2141 50.2495 83.0723 49.8379C82.2659 49.1712 81.4608 48.501 80.6523 47.8369C81.4198 46.4062 83.7486 45.4903 84.4648 44.0957C85.7814 41.553 85.0531 36.574 87.873 34.8017C88.5858 34.3609 90.8941 34.3882 91.1465 33.7363C91.5176 32.7775 88.3568 31.1937 88.7725 30.0039C89.4931 27.9901 94.7712 25.5708 95.1631 23.4238C95.2819 22.7961 94.1314 22.098 94.1348 21.6455C94.1338 19.7427 94.6857 18.3451 93.2432 16.1015ZM124.383 215.348C125.749 211.789 123.848 214.474 123.482 216.515C123.398 216.973 124.028 216.271 124.383 215.348ZM80.2412 190.981C80.6019 190.676 80.9622 190.37 81.3223 190.063C81.6137 189.473 81.9054 188.882 82.1973 188.291C82.1295 188.269 82.0619 188.247 81.9941 188.226C81.4098 189.144 80.8254 190.063 80.2412 190.981ZM336.07 164.17C336.26 164.393 336.448 164.616 336.636 164.838C337.488 164.159 338.34 163.48 339.19 162.8C338.479 162.599 337.769 162.407 337.062 162.222C336.735 162.874 336.402 163.521 336.07 164.17ZM107.281 157.431C107.106 157.433 107.135 157.737 107.21 157.827C107.269 157.898 107.345 157.84 107.291 157.437C107.287 157.435 107.285 157.431 107.281 157.431ZM56.3262 130.074C56.332 130.087 56.3378 130.101 56.3447 130.115C56.3377 130.102 56.3312 130.089 56.3242 130.076C54.3338 132.41 52.3137 134.697 50.2559 136.929C51.1909 137.313 52.105 137.673 52.9219 137.793C53.0102 137.806 53.0993 137.818 53.1885 137.831C53.527 137.114 53.5826 135.868 54.126 135.173C55.2604 133.728 56.3247 132.947 57.1289 131.773C57.0712 131.644 57.0148 131.514 56.957 131.385C56.856 131.163 56.7364 130.904 56.6289 130.669C56.753 130.892 56.9357 131.195 57.2256 131.631C57.2273 131.628 57.2288 131.626 57.2305 131.623C56.9752 131.218 56.7375 130.821 56.5186 130.432C56.4767 130.342 56.4411 130.26 56.4082 130.193C56.3874 130.151 56.3625 130.103 56.3398 130.058C56.3352 130.063 56.3308 130.069 56.3262 130.074ZM30.9443 136.497C31.2937 136.899 31.6384 137.258 31.9541 137.361C31.5716 137.007 31.2272 136.725 30.9443 136.497ZM20.4521 132.253C21.0724 132.531 21.6948 132.808 22.3154 133.086C22.4031 132.952 22.492 132.817 22.582 132.681C21.7349 131.997 20.8874 131.313 20.04 130.63C20.1826 131.164 20.316 131.71 20.4521 132.253ZM56.5186 130.432C56.5516 130.502 56.5867 130.579 56.623 130.658C56.4839 130.407 56.418 130.259 56.3545 130.139C56.3507 130.131 56.3482 130.123 56.3447 130.115C56.4016 130.22 56.459 130.326 56.5186 130.432ZM76.5996 118.657C76.6761 119.09 76.7109 119.43 76.7227 119.707C78.0798 119.057 77.562 118.634 76.5996 118.657ZM147.917 114.099C147.57 113.632 145.791 114.476 145.673 115.464C145.214 119.267 149.452 116.17 147.917 114.099ZM72.8037 109.033C72.6538 109.238 72.5026 109.442 72.3525 109.646C72.4714 109.746 72.5986 109.848 72.7354 109.952C72.7629 109.681 72.7842 109.368 72.8037 109.033ZM106.35 88.8174C106.458 88.9548 106.637 89.0755 106.854 89.1865C106.818 89.0208 106.656 88.8939 106.35 88.8174Z" fill="black"/>
</svg>
