<svg width="390" height="390" viewBox="0 0 390 390" fill="none" xmlns="http://www.w3.org/2000/svg">
<path d="M42 111.45H348V344.026H42V111.45Z" fill="#D9D9D9"/>
<path d="M29.5185 164.266C29.3685 162.983 30.1792 161.171 30.2219 159.656C30.4094 153.312 30.9713 150.961 31.29 145.221C31.7634 136.71 30.698 111.451 36.3298 111.45C36.33 111.45 36.3301 111.45 36.3303 111.45C36.3855 111.45 36.4413 111.453 36.4979 111.457C37.5708 111.546 38.7421 113.694 39.9555 114.013C41.1694 114.332 49.0059 114.093 49.4465 117.144C50.0271 121.569 48.0177 132.182 48.1068 134.542C48.1681 136.155 48.8805 138.141 49.007 140.204C49.4147 146.855 48.8938 150.335 50.8289 156.328C49.8091 158.725 48.7894 161.122 47.7696 163.519C48.2424 166.646 46.8974 171.386 46.9715 173.286C47.0324 174.844 47.8389 175.758 47.8764 177.382C47.923 179.204 47.0525 182.003 47.1836 185.317C47.3945 190.75 49.4983 191.717 49.7654 194.977C50.0419 198.358 48.8985 203.615 49.6388 207.929C49.8702 208.47 50.1016 209.011 50.333 209.552C50.8564 209.164 51.3798 208.777 51.9032 208.389C52.1468 210.562 51.0742 211.496 51.0548 213.492C51.0313 215.841 52.0482 217.04 52.0435 218.62C52.0388 219.915 51.2234 221.671 51.2745 223.35C51.3448 225.798 52.5221 225.262 52.7424 226.58C52.828 227.105 53.4777 236.822 53.487 237.37C53.5335 241.539 51.922 241.902 51.7811 245.226C51.3968 254.447 52.6989 263.912 53.191 272.44C53.4112 276.249 53.3175 280.222 53.0598 284.02C48.9356 278.038 45.7259 291.275 52.1794 286.325C51.2613 290.55 53.0034 293.545 52.7088 297.55C52.5167 300.141 51.6219 301.934 51.6453 305.633C51.6926 312.196 54.2361 319.376 49.6388 321.264C50.4492 328.969 48.7816 335.642 52.8401 338.419C52.988 339.605 52.1865 341.897 51.4464 344.026L42 334.579C43.438 335.079 44.8017 335.551 45.7001 335.683C47.8075 335.993 63.9778 337.084 66.6232 337.145C69.2685 337.206 73.8993 337.272 76.1273 336.916C78.9264 336.476 80.8823 332.267 85.8657 337.188C91.6598 336.79 93.7242 336.93 99.1131 337.502C100.089 337.606 100.199 338.336 100.769 338.337C101.943 338.337 103.941 337.797 106.037 337.731C109.483 337.623 111.45 339.161 111.066 336.813C113.339 336.419 115.611 336.025 117.883 335.631C118.68 336.085 119.477 336.538 120.275 336.991C121.489 336.497 122.704 336.003 123.919 335.509C122.492 338.907 131.043 336.902 128.267 334.952C132.671 335.655 137.076 336.358 141.481 337.061C140.866 340.923 151.153 337.507 150.287 335.407C150.791 335.41 151.295 335.413 151.799 335.416C156.211 336.443 160.264 335.603 165.642 336.292C171.02 336.981 170.515 337.357 172.151 339.133C173.416 339.032 174.682 338.93 175.948 338.828C182.588 333.959 181.415 342.39 192.786 338.654C196.42 341.715 205.376 340.107 211.314 339.179C212.005 339.071 212.017 338.477 212.937 338.294C215.187 337.854 220.928 338.617 220.732 336.701C222.719 337.256 224.706 337.81 226.694 338.364C228.318 338.016 229.943 337.668 231.567 337.319C231.559 336.721 231.551 336.123 231.542 335.525C234.814 337.563 239.953 336.78 242.489 337.267C242.993 337.366 243.102 338.191 244.671 338.416C246.504 338.683 249.92 338.439 252.104 338.697C252.953 337.783 253.802 336.869 254.652 335.955C258.558 335.459 259.931 337.872 262.225 338.059C262.638 338.092 270.172 337.918 270.578 337.867C273.902 337.459 272.96 335.403 282.572 335.844C284.284 335.923 285.668 336.634 287.216 336.663C289.949 336.715 298.184 335.102 298.832 333.611C302.147 335.477 311.016 334.714 313.628 335.253C314.417 335.419 314.595 336.607 317.018 336.86C318.983 337.066 324.043 336.115 326.535 336.274C329.18 336.447 330.124 337.445 331.309 337.516C332.429 337.582 333.461 336.776 334.987 336.78C339.75 336.809 344.063 338.105 347.828 338.129C347.885 338.13 347.943 338.13 348 338.13L342.104 344.026C342.091 338.652 339.745 333.896 338.697 329.389C338.851 328.259 339.363 327.148 339.368 325.962C339.443 311.298 339.882 294.756 340.393 280.048C340.628 273.22 343.866 256.241 338.463 260.773C337.517 258.4 339.695 241.147 339.728 237.865C339.76 234.584 338.792 231.983 338.777 229.405C338.735 221.622 339.433 216.142 338.59 206.669C338.369 204.223 337.221 201.601 337.235 200.152C337.253 198.407 338.364 196.529 338.434 194.268C338.593 188.879 338.228 178.836 338.42 173.666C338.458 172.722 339.433 172.39 339.737 171.04C340.927 165.782 340.824 159.889 337.712 160.932C339.479 154.193 337.867 147.959 337.769 141.714C337.648 133.833 337.859 122.086 337.77 111.45L348 121.68C340.817 121.74 334.14 121.937 329.502 122.464C322.249 123.289 322.435 124.685 311.756 123.48C309.385 123.213 307.025 122.853 304.15 122.534C297.41 121.784 291.228 119.206 286.091 122.313C278.606 121.507 272.644 122.079 267.091 119.421C266.436 120.059 265.781 120.696 265.126 121.333C264.209 121.349 263.291 121.365 262.373 121.381C262.087 120.773 261.801 120.165 261.515 119.557C254.941 119.394 246.6 121.892 241.035 121.874C231.705 121.845 207.675 120.875 198.828 120.055C194.131 119.619 193.878 120.921 191.189 118.245C190.138 118.431 189.088 118.617 188.037 118.803C187.38 119.389 186.722 119.975 186.065 120.561C180.039 120.585 172.892 119.675 167.151 119.684C156.691 119.703 140.983 121.315 130.478 120.256C127.844 119.989 124.552 118.781 121.973 118.794C118.219 118.813 117.306 120.818 112.542 120.856C104.332 120.917 89.0414 118.587 81.281 118.765C78.9761 118.817 77.9007 119.563 76.3091 119.643C69.6354 119.985 64.1562 119.924 57.7569 121.077C50.8857 119.155 51.4793 116.675 49.3499 114.172C47.7361 112.284 42.7876 107.906 42.0852 106.252C41.5917 105.089 43.434 103.594 42.7426 102.315C50.9749 101.293 54.4334 102.418 61.1181 104.218C73.4629 104.146 85.8078 104.074 98.1526 104.002C99.2758 104.701 100.399 105.399 101.522 106.097C101.522 106.099 101.522 106.101 101.522 106.102C106.263 106.908 108.272 105.11 110.829 104.701C135.307 100.793 183.484 103.852 210.431 104.292C216.238 104.386 235.128 103.445 239.112 104.579C240.144 104.875 240.431 105.951 241.528 105.998C251.334 105.358 261.139 104.718 270.945 104.077C291.109 105.75 311.954 104.369 332.272 104.111C337.52 104.044 342.762 103.976 348 103.908L355.363 103.737L355.542 111.45C356.19 161.079 356.862 210.275 356.629 259.183C356.577 269.632 357.384 282.893 356.864 293.123C356.648 297.393 354.919 299.171 356.208 304.78C355.742 304.839 355.276 304.898 354.81 304.957C355.372 309.852 356.432 312.98 356.54 318.467C356.629 323.089 356.698 335.315 356.52 339.399C356.431 341.517 355.561 340.728 355.565 342.702C355.567 343.095 355.584 343.539 355.614 344.026L355.787 351.459L348 351.64C344.299 351.868 338.177 352.808 334.054 352.808C329.828 352.808 322.704 351.806 319.455 351.951C307.754 352.466 295.009 353.953 282.539 353.555C279.095 353.442 274.665 352.313 273.586 352.344C271.479 352.41 270.851 353.507 269.436 353.648C262.247 354.36 251.04 353.057 243.993 353.005C221.03 352.836 196.704 353.315 173.84 353.114C159.395 352.987 135.39 353.18 122.054 352.355C119.178 352.177 119.945 350.976 117.53 350.976C114.852 350.976 113.402 351.788 112.151 351.853C103.49 352.312 84.3701 353.133 76.1931 352.303C74.6355 352.144 73.5057 351.203 72.573 351.206C72.101 351.206 71.0346 351.849 69.5529 351.914C59.2854 352.37 51.2005 352.238 42 352.053L34.163 352.235L33.9725 344.026C34.0231 341.502 34.0777 338.894 34.1251 336.134C34.5422 311.58 33.3472 283.13 33.9939 257.336C34.1345 251.716 35.9963 247.862 35.9775 247.071C35.94 245.337 34.6877 244.227 34.3784 240.715C33.3617 229.036 34.698 213.308 34.0702 202.201C33.7609 196.713 32.1713 189.172 31.8195 183.772C31.5383 179.459 32.1619 169.272 31.464 167.361C31.0423 166.197 29.688 165.659 29.5185 164.266ZM50.6001 309.573C48.4348 308.805 50.2343 316.88 51.3966 313.851C51.6583 313.169 51.1621 309.772 50.6001 309.573ZM343.16 306.338C342.541 306.412 341.923 306.485 341.304 306.559C341.562 307.62 341.819 308.68 342.076 309.74C342.448 309.144 342.82 308.548 343.192 307.952C343.181 307.414 343.17 306.876 343.16 306.338Z" fill="black"/>
<path d="M42 62.0615H348V154.553H42V62.0615Z" fill="#A30000"/>
<path d="M29.5185 101.14C29.3685 100.19 30.1792 98.8497 30.2219 97.7291C30.4094 93.0351 30.9713 91.2958 31.29 87.0487C31.7634 80.7515 30.698 62.062 36.3298 62.0615C36.33 62.0615 36.3301 62.0615 36.3303 62.0615C36.3855 62.0615 36.4413 62.0633 36.4979 62.067C37.5708 62.1325 38.7421 63.7221 39.9555 63.958C41.1694 64.1935 49.0059 64.0169 49.4465 66.2747C50.0271 69.5483 48.0177 77.4011 48.1068 79.1471C48.1681 80.3407 48.8805 81.8103 49.007 83.3366C49.4147 88.2577 48.8938 90.8328 50.8289 95.2665C49.8091 97.04 48.7894 98.8135 47.7696 100.587C48.2424 102.901 46.8974 106.408 46.9715 107.814C47.0324 108.967 47.8389 109.643 47.8764 110.845C47.923 112.193 47.0525 114.263 47.1836 116.716C47.3945 120.736 49.4983 121.451 49.7654 123.863C50.0419 126.364 48.8985 130.254 49.6388 133.446C49.8702 133.846 50.1016 134.247 50.333 134.647C50.8564 134.36 51.3798 134.073 51.9032 133.787C52.1468 135.394 51.0742 136.085 51.0548 137.563C51.0313 139.301 52.0482 140.187 52.0435 141.357C52.0388 142.315 51.2234 143.614 51.2745 144.856C51.3448 146.667 52.5221 146.271 52.7424 147.246C52.8141 147.571 53.2815 152.667 53.4369 154.553L42 143.116C42.3657 143.086 42.6106 143.067 42.6765 143.066C45.7612 143.019 46.0298 144.631 48.4895 144.772C55.3116 145.156 62.3146 143.854 68.6251 143.362C71.4429 143.142 74.3828 143.235 77.1925 143.493C72.7671 147.617 82.5608 150.827 78.8981 144.374C82.0241 145.292 84.2406 143.55 87.2041 143.844C89.1208 144.036 90.4473 144.931 93.1843 144.908C98.0406 144.86 103.353 142.317 104.749 146.914C110.45 146.104 115.388 147.771 117.442 143.713C118.913 143.465 122.68 145.882 124.329 146.211C125.888 146.52 137.852 147.612 139.81 147.673C141.767 147.733 145.193 147.8 146.842 147.444C148.913 147.003 150.36 142.794 154.047 147.715C158.334 147.317 159.862 147.458 163.849 148.03C164.571 148.133 164.652 148.864 165.074 148.864C165.943 148.864 167.421 148.324 168.972 148.258C171.522 148.151 172.977 149.688 172.693 147.34C174.374 146.946 176.056 146.553 177.737 146.159C178.327 146.612 178.916 147.065 179.506 147.518C180.405 147.025 181.304 146.531 182.203 146.037C181.147 149.435 187.474 147.43 185.419 145.48C188.679 146.183 191.938 146.886 195.197 147.589C194.742 151.45 202.353 148.034 201.712 145.935C202.085 145.938 202.458 145.941 202.831 145.944C206.096 146.97 209.094 146.131 213.074 146.82C217.053 147.508 216.679 147.885 217.889 149.661C218.826 149.559 219.762 149.457 220.699 149.356C225.612 144.486 224.744 152.917 233.158 149.182C235.846 152.242 242.472 150.635 246.866 149.707C247.377 149.599 247.386 149.005 248.067 148.822C249.732 148.381 253.98 149.145 253.834 147.229C255.305 147.783 256.775 148.337 258.246 148.892C259.448 148.543 260.65 148.195 261.851 147.846C261.845 147.248 261.839 146.65 261.833 146.052C264.253 148.091 268.056 147.307 269.932 147.795C270.306 147.893 270.386 148.719 271.547 148.944C272.903 149.211 275.43 148.967 277.047 149.224C277.675 148.31 278.303 147.396 278.932 146.482C281.822 145.987 282.838 148.399 284.535 148.587C284.84 148.619 290.415 148.446 290.716 148.394C293.175 147.986 292.478 145.931 299.59 146.371C300.857 146.451 301.881 147.162 303.026 147.19C305.048 147.242 311.141 145.629 311.62 144.139C314.073 146.004 320.635 145.241 322.568 145.78C323.152 145.946 323.283 147.134 325.077 147.387C326.53 147.593 330.274 146.642 332.118 146.801C334.075 146.975 334.774 147.973 335.651 148.043C336.479 148.109 337.243 147.303 338.372 147.308C341.896 147.336 345.087 148.633 347.872 148.657C347.915 148.657 347.958 148.657 348 148.657L342.104 154.553C342.091 150.577 339.745 147.058 338.697 143.723C338.851 142.887 339.363 142.065 339.368 141.188C339.443 130.338 339.882 118.098 340.393 107.216C340.628 102.164 343.866 89.6011 338.463 92.9543C337.517 91.1986 339.695 78.433 339.728 76.0049C339.76 73.5774 338.792 71.653 338.777 69.745C338.757 66.9611 338.91 64.5754 338.977 62.0615L348 71.0841C345.314 71.0117 342.482 71.0361 338.862 71.4718C337.051 71.6924 335.112 72.8402 334.04 72.8268C332.749 72.8081 331.359 71.698 329.686 71.6275C325.699 71.4681 318.268 71.8333 314.442 71.6412C313.744 71.6037 313.499 70.629 312.5 70.3244C308.61 69.134 304.249 69.2373 305.021 72.3492C300.035 70.5825 295.422 72.194 290.801 72.2928C281.031 72.4943 263.234 71.7679 254.723 73.0755C249.356 73.9004 249.493 75.2962 241.592 74.0918C239.838 73.8247 238.092 73.4644 235.964 73.1457C230.978 72.3959 226.403 69.8174 222.602 72.9245C217.064 72.1186 212.653 72.6901 208.544 70.0329C208.06 70.6702 207.575 71.3075 207.091 71.9449C206.412 71.9606 205.733 71.9764 205.054 71.9922C204.842 71.3843 204.63 70.7765 204.419 70.1687C199.554 70.0051 193.383 72.5032 189.266 72.485C182.363 72.4569 164.582 71.4864 158.037 70.6662C154.561 70.2306 154.374 71.5324 152.385 68.8565C151.607 69.0426 150.83 69.2288 150.053 69.4149C149.566 70.0009 149.08 70.5868 148.593 71.1728C144.135 71.1962 138.847 70.2861 134.599 70.2954C126.859 70.3141 115.237 71.9268 107.465 70.8676C105.516 70.6005 103.08 69.3921 101.172 69.4058C98.3941 69.4245 97.719 71.4298 94.1942 71.4673C88.1193 71.5282 76.8059 69.1987 71.064 69.3768C69.3586 69.4284 68.5629 70.1745 67.3853 70.2542C62.4474 70.5963 58.3934 70.5356 53.6585 71.6885C48.5745 69.7669 49.0137 67.2866 47.4382 64.7839C46.2441 62.895 42.5828 58.5174 42.063 56.863C41.6979 55.7008 43.061 54.2056 42.5494 52.9263C48.6405 51.9046 51.1995 53.0293 56.1455 54.829C65.2794 54.7573 74.4133 54.6856 83.5473 54.6139C84.3783 55.3122 85.2093 56.0106 86.0403 56.7089C86.0403 56.7104 86.0403 56.712 86.0403 56.7135C89.548 57.5194 91.0347 55.721 92.9265 55.3127C111.037 51.404 146.684 54.4632 166.622 54.9038C170.919 54.9975 184.895 54.0565 187.843 55.1907C188.606 55.486 188.819 56.5629 189.631 56.6097C196.886 55.9694 204.141 55.329 211.396 54.6887C226.315 56.3618 241.739 54.98 256.772 54.7222C287.391 54.1965 317.779 53.5855 348 53.4256L356.357 53.1634L356.636 62.0615C356.689 71.9843 356.692 81.8889 356.629 91.7777C356.577 99.5094 357.384 109.321 356.864 116.89C356.648 120.049 354.919 121.365 356.208 125.515C355.742 125.559 355.276 125.603 354.81 125.646C355.372 129.268 356.432 131.582 356.54 135.642C356.629 139.062 356.698 148.108 356.52 151.13C356.431 152.697 355.561 152.113 355.565 153.574C355.567 153.864 355.584 154.193 355.614 154.553L355.846 161.921L348 162.167C345.262 162.395 340.732 163.336 337.681 163.336C334.555 163.336 329.283 162.333 326.879 162.478C318.222 162.994 308.792 164.48 299.566 164.082C297.017 163.969 293.739 162.84 292.941 162.872C291.382 162.937 290.918 164.034 289.87 164.175C284.551 164.887 276.259 163.584 271.045 163.533C254.055 163.364 236.056 163.842 219.139 163.641C208.451 163.514 190.69 163.707 180.823 162.883C178.695 162.704 179.262 161.503 177.475 161.503C175.494 161.503 174.421 162.315 173.496 162.381C167.087 162.84 152.941 163.66 146.89 162.831C145.738 162.671 144.902 161.73 144.212 161.734C143.863 161.734 143.074 162.376 141.977 162.442C132.296 163.023 125.238 162.648 115.752 162.428C97.5847 162.011 76.5342 163.206 57.4491 162.559C53.2909 162.418 50.4393 160.557 49.8546 160.575C48.5714 160.613 47.7501 161.865 45.1513 162.175C44.1385 162.294 43.0847 162.381 42 162.442L34.3659 162.681L34.1109 154.553C33.6479 146.383 34.6244 136.463 34.0702 129.208C33.7609 125.148 32.1713 119.568 31.8195 115.572C31.5383 112.381 32.1619 104.844 31.464 103.43C31.0423 102.569 29.688 102.171 29.5185 101.14ZM96.0999 145.953C95.5313 148.118 101.506 146.319 99.2648 145.156C98.7599 144.895 96.2468 145.391 96.0999 145.953ZM343.16 126.668C342.541 126.722 341.923 126.777 341.304 126.832C341.562 127.616 341.819 128.401 342.076 129.185C342.448 128.744 342.82 128.303 343.192 127.862C343.181 127.464 343.17 127.066 343.16 126.668Z" fill="black"/>
<path d="M263.303 184.186H314.303V231.779H263.303V184.186Z" fill="black"/>
<path d="M250.323 193.855C250.167 193.62 251.01 193.288 251.054 193.011C251.249 191.849 251.834 191.419 252.165 190.368C252.657 188.81 251.549 184.186 257.406 184.186C257.407 184.186 257.407 184.186 257.407 184.186C257.464 184.186 257.522 184.187 257.581 184.187C258.697 184.204 259.915 184.597 261.177 184.655C262.44 184.714 270.59 184.67 271.048 185.229C271.652 186.038 269.562 187.981 269.655 188.413C269.718 188.709 270.459 189.072 270.591 189.45C271.015 190.667 270.473 191.305 272.486 192.402C271.425 192.84 270.364 193.279 269.304 193.718C269.796 194.29 268.397 195.158 268.474 195.506C268.537 195.791 269.376 195.958 269.415 196.256C269.463 196.589 268.558 197.102 268.694 197.708C268.914 198.703 271.102 198.88 271.379 199.477C271.667 200.096 270.478 201.058 271.248 201.848C271.488 201.947 271.729 202.046 271.97 202.145C272.514 202.074 273.058 202.003 273.603 201.932C273.856 202.33 272.741 202.501 272.72 202.866C272.696 203.296 273.754 203.516 273.749 203.805C273.744 204.042 272.896 204.363 272.949 204.671C273.022 205.119 274.246 205.021 274.476 205.262C274.565 205.358 275.24 207.137 275.25 207.237C275.298 208 273.622 208.067 273.476 208.675C273.076 210.363 274.43 212.096 274.942 213.657C275.171 214.355 275.074 215.082 274.806 215.777C270.516 214.682 267.178 217.105 273.89 216.199C272.935 216.972 274.747 217.521 274.441 218.254C274.241 218.728 273.31 219.056 273.335 219.734C273.384 220.935 276.029 222.249 271.248 222.595C272.091 224.006 270.356 225.227 274.577 225.735C274.835 226.099 272.321 227.031 271.979 227.439C271.658 227.825 270.522 230.785 270.459 231.269C270.44 231.414 270.421 231.591 270.413 231.779L263.303 224.67C263.745 224.689 264.248 224.645 264.534 224.385C265.046 223.927 265.404 219.55 266.317 224.668C267.377 224.254 267.755 224.4 268.742 224.995C268.92 225.102 268.941 225.862 269.045 225.863C269.26 225.863 269.626 225.301 270.009 225.233C270.64 225.12 271 226.719 270.93 224.277C271.346 223.868 271.762 223.458 272.178 223.049C272.324 223.52 272.47 223.992 272.616 224.463C272.838 223.949 273.06 223.436 273.283 222.922C273.022 226.456 274.587 224.37 274.079 222.343C274.885 223.074 275.691 223.805 276.498 224.536C276.385 228.552 278.268 224.999 278.11 222.816C278.202 222.819 278.294 222.822 278.387 222.825C279.194 223.893 279.936 223.02 280.921 223.736C281.905 224.453 281.813 224.844 282.112 226.691C282.344 226.585 282.576 226.479 282.807 226.374C284.023 221.309 283.808 230.077 285.89 226.193C286.555 229.376 288.194 227.704 289.281 226.739C289.408 226.626 289.41 226.009 289.579 225.818C289.99 225.36 291.041 226.154 291.005 224.161C291.369 224.738 291.733 225.315 292.097 225.891C292.394 225.529 292.692 225.166 292.989 224.804C292.988 224.182 292.986 223.56 292.985 222.938C293.583 225.058 294.524 224.243 294.988 224.75C295.081 224.853 295.101 225.711 295.388 225.945C295.723 226.223 296.349 225.969 296.749 226.237C296.904 225.287 297.059 224.336 297.215 223.385C297.93 222.87 298.181 225.379 298.601 225.574C298.677 225.608 300.056 225.427 300.13 225.374C300.739 224.949 300.567 222.812 302.326 223.27C302.64 223.352 302.893 224.092 303.176 224.122C303.676 224.175 305.184 222.498 305.303 220.948C305.909 222.888 307.533 222.095 308.011 222.655C308.156 222.828 308.188 224.063 308.632 224.326C308.992 224.541 309.918 223.552 310.374 223.717C310.858 223.897 311.031 224.935 311.248 225.009C311.453 225.077 311.642 224.239 311.921 224.244C312.793 224.273 313.583 225.622 314.272 225.647C314.282 225.647 314.293 225.647 314.303 225.647L308.172 231.779C308.158 230.795 305.718 229.925 304.628 229.099C304.789 228.892 305.321 228.689 305.326 228.472C305.404 225.788 305.861 222.759 306.392 220.067C306.636 218.817 310.004 215.709 304.385 216.538C303.401 216.104 305.666 212.946 305.701 212.345C305.734 211.744 304.727 211.268 304.712 210.796C304.668 209.371 305.394 208.368 304.517 206.634C304.287 206.186 303.094 205.706 303.108 205.441C303.127 205.122 304.282 204.778 304.355 204.364C304.521 203.377 304.141 201.539 304.341 200.592C304.38 200.42 305.393 200.359 305.71 200.112C306.948 199.149 306.841 198.07 303.604 198.261C305.442 197.028 303.766 195.887 303.663 194.743C303.453 192.326 304.209 187.923 302.849 185.817C302.338 185.026 301.617 184.718 301.381 184.186L314.303 197.108C313.942 197.269 313.476 197.204 312.685 196.698C312.251 196.42 311.819 196.045 311.293 195.714C310.059 194.934 308.928 192.252 307.987 195.484C306.617 194.646 305.526 195.24 304.509 192.476C304.389 193.139 304.269 193.802 304.149 194.465C303.981 194.481 303.813 194.498 303.645 194.514C303.593 193.882 303.541 193.25 303.488 192.618C302.285 192.447 300.758 195.046 299.739 195.027C298.031 194.997 293.632 193.988 292.013 193.135C291.153 192.682 291.107 194.036 290.614 191.253C290.422 191.447 290.23 191.64 290.037 191.834C289.917 192.443 289.797 193.052 289.676 193.662C288.573 193.686 287.265 192.74 286.214 192.749C284.299 192.769 281.423 194.446 279.5 193.344C279.018 193.067 278.416 191.81 277.943 191.824C277.256 191.844 277.089 193.929 276.217 193.968C274.714 194.031 271.915 191.609 270.494 191.794C270.072 191.848 269.876 192.624 269.584 192.707C268.362 193.062 267.359 192.999 266.188 194.198C264.93 192.2 265.039 189.62 264.649 187.017C264.354 185.053 263.448 180.5 263.319 178.78C263.229 177.571 263.566 176.016 263.439 174.685C264.946 173.623 265.58 174.793 266.803 176.664C269.063 176.59 271.323 176.515 273.583 176.441C273.788 177.167 273.994 177.893 274.2 178.619C274.2 178.621 274.2 178.623 274.2 178.624C275.068 179.462 275.435 177.592 275.903 177.167C280.384 173.102 289.204 176.284 294.137 176.742C295.2 176.84 298.658 175.861 299.387 177.04C299.576 177.348 299.629 178.468 299.83 178.516C301.625 177.85 303.42 177.184 305.215 176.518C308.202 177.926 311.27 177.254 314.303 176.804L320.603 175.974L321.685 184.186C321.792 184.901 321.885 185.614 321.936 186.324C322.663 196.387 323.545 206.349 323.277 216.247C323.224 218.16 324.063 220.588 323.522 222.461C323.297 223.242 321.499 223.568 322.839 224.595C322.355 224.605 321.87 224.616 321.386 224.627C321.971 225.523 323.073 226.096 323.185 227.1C323.278 227.946 323.35 230.184 323.165 230.932C323.072 231.32 322.167 231.175 322.171 231.537C322.173 231.608 322.191 231.69 322.222 231.779L323.113 238.536L314.303 239.698C313.626 239.935 312.505 240.913 311.751 240.913C310.977 240.913 309.673 239.87 309.078 240.021C306.936 240.557 304.603 242.103 302.32 241.689C301.69 241.572 300.879 240.398 300.681 240.431C300.295 240.499 300.18 241.639 299.921 241.786C298.605 242.527 296.554 241.171 295.264 241.118C291.06 240.942 286.607 241.44 282.421 241.23C279.777 241.099 275.383 241.299 272.941 240.442C272.415 240.256 272.555 239.007 272.113 239.007C271.623 239.007 271.358 239.851 271.128 239.92C269.543 240.397 266.043 241.25 264.546 240.388C264.261 240.222 264.054 239.243 263.883 239.247C263.797 239.247 263.602 239.915 263.33 239.983C263.321 239.985 263.312 239.988 263.303 239.99L256.297 240.914L255.093 231.779C254.498 229.397 254.885 227.655 255.114 225.317C255.547 220.822 254.305 215.614 254.977 210.892C255.123 209.863 257.06 209.158 257.04 209.013C257.001 208.696 255.699 208.493 255.377 207.85C254.32 205.712 255.709 202.833 255.056 200.799C254.735 199.795 253.082 198.414 252.716 197.426C252.423 196.636 253.072 194.771 252.346 194.421C251.907 194.208 250.499 194.11 250.323 193.855ZM272.248 220.455C269.996 220.314 271.867 221.793 273.076 221.238C273.348 221.113 272.832 220.491 272.248 220.455ZM309.27 224.88C308.626 224.893 307.983 224.907 307.34 224.92C307.608 225.114 307.875 225.308 308.143 225.502C308.53 225.393 308.916 225.284 309.303 225.175C309.292 225.077 309.281 224.978 309.27 224.88Z" fill="black"/>
<path d="M75.6965 266.8H126.697V314.392H75.6965V266.8Z" fill="black"/>
<path d="M62.7157 276.468C62.5598 276.233 63.4029 275.902 63.4473 275.624C63.6423 274.463 64.2267 274.033 64.5582 272.982C65.0505 271.424 63.9424 266.8 69.7996 266.8C69.7997 266.8 69.7999 266.8 69.8 266.8C69.8574 266.8 69.9155 266.8 69.9743 266.801C71.0901 266.817 72.3083 267.211 73.5703 267.269C74.8327 267.327 82.9827 267.284 83.4409 267.842C84.0447 268.652 81.955 270.595 82.0476 271.027C82.1114 271.322 82.8523 271.686 82.9839 272.064C83.4079 273.281 82.8661 273.918 84.8786 275.015C83.818 275.454 82.7575 275.893 81.6969 276.332C82.1886 276.904 80.7899 277.772 80.8669 278.12C80.9303 278.405 81.769 278.572 81.808 278.87C81.8564 279.203 80.9511 279.715 81.0875 280.322C81.3068 281.317 83.4947 281.494 83.7726 282.09C84.0601 282.709 82.8709 283.672 83.6408 284.461C83.8815 284.56 84.1222 284.659 84.3629 284.759C84.9072 284.688 85.4515 284.617 85.9958 284.546C86.2492 284.943 85.1337 285.114 85.1135 285.48C85.0891 285.91 86.1467 286.129 86.1418 286.419C86.1369 286.656 85.2889 286.977 85.342 287.284C85.4151 287.733 86.6395 287.635 86.8686 287.876C86.9576 287.972 87.6333 289.751 87.643 289.851C87.6913 290.614 86.0154 290.681 85.8689 291.289C85.4692 292.977 86.8234 294.71 87.3352 296.271C87.5641 296.968 87.4668 297.696 87.1987 298.391C82.9095 297.296 79.5714 299.719 86.2831 298.813C85.3282 299.586 87.1401 300.134 86.8337 300.868C86.6339 301.342 85.7033 301.67 85.7276 302.347C85.7768 303.549 88.4221 304.863 83.6408 305.209C84.4837 306.619 82.7494 307.841 86.9702 308.349C87.228 308.713 84.7139 309.645 84.3724 310.053C84.0507 310.439 82.9155 313.399 82.8521 313.883C82.8332 314.028 82.8138 314.205 82.8058 314.392L75.6965 307.283C76.1383 307.302 76.6409 307.259 76.927 306.999C77.4394 306.541 77.7975 302.163 78.7097 307.281C79.7704 306.867 80.1483 307.014 81.1348 307.608C81.3134 307.716 81.3336 308.476 81.438 308.476C81.6529 308.476 82.0186 307.915 82.4023 307.846C83.0332 307.734 83.3933 309.333 83.323 306.891C83.739 306.481 84.1549 306.072 84.5709 305.663C84.7168 306.134 84.8627 306.605 85.0087 307.077C85.2311 306.563 85.4535 306.049 85.6759 305.536C85.4147 309.069 86.9799 306.984 86.4717 304.956C87.2781 305.688 88.0844 306.419 88.8908 307.15C88.7783 311.166 90.6613 307.613 90.5028 305.429C90.595 305.433 90.6873 305.436 90.7796 305.439C91.5874 306.506 92.3291 305.633 93.3138 306.35C94.2983 307.066 94.2059 307.457 94.5052 309.305C94.7369 309.199 94.9686 309.093 95.2003 308.987C96.416 303.923 96.2011 312.691 98.2828 308.806C98.9479 311.989 100.587 310.317 101.674 309.352C101.801 309.24 101.803 308.622 101.972 308.432C102.383 307.974 103.434 308.768 103.399 306.775C103.762 307.352 104.126 307.928 104.49 308.505C104.787 308.142 105.085 307.78 105.382 307.418C105.381 306.796 105.379 306.174 105.378 305.552C105.976 307.672 106.917 306.857 107.381 307.364C107.474 307.467 107.494 308.325 107.781 308.559C108.116 308.837 108.742 308.583 109.142 308.851C109.297 307.9 109.453 306.95 109.608 305.999C110.323 305.483 110.574 307.992 110.994 308.187C111.07 308.221 112.449 308.041 112.524 307.987C113.132 307.563 112.96 305.425 114.719 305.883C115.033 305.966 115.286 306.706 115.569 306.735C116.07 306.789 117.577 305.112 117.696 303.562C118.303 305.502 119.926 304.709 120.404 305.269C120.549 305.441 120.581 306.677 121.025 306.94C121.385 307.155 122.311 306.165 122.767 306.331C123.251 306.511 123.424 307.549 123.641 307.622C123.846 307.691 124.035 306.853 124.314 306.858C125.186 306.887 125.976 308.236 126.665 308.26C126.676 308.261 126.686 308.261 126.697 308.261L120.565 314.392C120.551 313.409 118.111 312.538 117.021 311.713C117.182 311.506 117.714 311.303 117.719 311.086C117.797 308.401 118.254 305.373 118.786 302.681C119.03 301.431 122.397 298.322 116.778 299.152C115.794 298.718 118.06 295.559 118.094 294.959C118.127 294.358 117.12 293.882 117.105 293.41C117.061 291.985 117.787 290.982 116.91 289.248C116.68 288.8 115.487 288.32 115.501 288.055C115.52 287.735 116.675 287.392 116.748 286.978C116.914 285.991 116.534 284.153 116.734 283.206C116.773 283.033 117.786 282.973 118.103 282.725C119.341 281.763 119.234 280.684 115.997 280.875C117.835 279.641 116.159 278.5 116.056 277.357C115.846 274.94 116.602 270.536 115.242 268.431C114.731 267.64 114.01 267.332 113.774 266.8L126.697 279.722C126.335 279.882 125.869 279.818 125.079 279.311C124.645 279.033 124.213 278.659 123.686 278.327C122.452 277.548 121.321 274.866 120.38 278.097C119.01 277.259 117.919 277.854 116.902 275.09C116.782 275.753 116.662 276.416 116.542 277.078C116.375 277.095 116.207 277.111 116.039 277.128C115.986 276.496 115.934 275.863 115.881 275.231C114.678 275.061 113.151 277.659 112.132 277.64C110.424 277.611 106.025 276.602 104.406 275.749C103.546 275.296 103.5 276.65 103.007 273.867C102.815 274.06 102.623 274.254 102.43 274.447C102.31 275.057 102.19 275.666 102.069 276.275C100.966 276.3 99.6578 275.353 98.6069 275.363C96.692 275.383 93.8165 277.06 91.8935 275.958C91.4114 275.68 90.8086 274.424 90.3365 274.438C89.6493 274.457 89.4822 276.543 88.6102 276.582C87.1071 276.645 84.308 274.222 82.8874 274.408C82.4654 274.461 82.2686 275.237 81.9772 275.32C80.7555 275.676 79.7525 275.613 78.581 276.812C77.3232 274.813 77.4318 272.234 77.042 269.631C76.7466 267.667 75.8407 263.114 75.7121 261.393C75.6218 260.185 75.9591 258.63 75.8325 257.299C77.3395 256.237 77.9726 257.406 79.1963 259.278C81.4562 259.203 83.7161 259.129 85.9759 259.054C86.1815 259.781 86.3871 260.507 86.5927 261.233C86.5927 261.235 86.5927 261.236 86.5927 261.238C87.4606 262.076 87.8284 260.206 88.2965 259.781C92.7774 255.716 101.597 258.898 106.53 259.356C107.593 259.453 111.051 258.475 111.78 259.654C111.969 259.961 112.022 261.081 112.223 261.13C114.018 260.464 115.813 259.798 117.608 259.132C120.595 260.54 123.663 259.868 126.697 259.418L132.996 258.587L134.079 266.8C134.185 267.515 134.278 268.228 134.329 268.938C135.056 279 135.938 288.963 135.67 298.861C135.617 300.774 136.456 303.201 135.915 305.074C135.69 305.856 133.892 306.181 135.232 307.208C134.748 307.219 134.263 307.23 133.779 307.241C134.364 308.137 135.466 308.709 135.578 309.714C135.671 310.56 135.743 312.798 135.558 313.545C135.465 313.933 134.56 313.789 134.564 314.15C134.566 314.222 134.584 314.303 134.616 314.392L135.507 321.15L126.697 322.311C126.019 322.549 124.898 323.527 124.144 323.527C123.37 323.527 122.066 322.484 121.471 322.635C119.329 323.171 116.996 324.717 114.713 324.303C114.083 324.185 113.272 323.011 113.074 323.044C112.688 323.112 112.574 324.253 112.314 324.399C110.998 325.14 108.947 323.785 107.657 323.731C103.453 323.556 98.9999 324.054 94.8144 323.844C92.1701 323.712 87.7757 323.913 85.3344 323.055C84.8079 322.87 84.9483 321.621 84.5062 321.621C84.0161 321.621 83.7506 322.465 83.5216 322.533C81.936 323.011 78.4359 323.864 76.939 323.001C76.6539 322.836 76.4471 321.857 76.2763 321.86C76.1899 321.86 75.9947 322.528 75.7235 322.597C75.7145 322.599 75.7055 322.601 75.6965 322.603L68.6901 323.527L67.4856 314.392C66.8909 312.011 67.2784 310.269 67.5066 307.931C67.9404 303.436 66.6976 298.228 67.3702 293.506C67.5164 292.477 69.4527 291.772 69.4332 291.627C69.3941 291.309 68.0918 291.106 67.7701 290.463C66.7127 288.325 68.1024 285.446 67.4495 283.413C67.1279 282.408 65.4746 281.028 65.1088 280.039C64.8164 279.25 65.4649 277.385 64.7391 277.035C64.3005 276.822 62.8921 276.723 62.7157 276.468ZM84.6406 303.069C82.3887 302.928 84.2602 304.406 85.469 303.852C85.7412 303.727 85.2252 303.105 84.6406 303.069ZM121.663 307.493C121.019 307.507 120.376 307.52 119.733 307.534C120.001 307.728 120.268 307.922 120.536 308.116C120.923 308.007 121.309 307.898 121.696 307.789C121.685 307.69 121.674 307.592 121.663 307.493Z" fill="black"/>
<path d="M169.5 266.8H220.5V314.392H169.5V266.8Z" fill="black"/>
<path d="M156.519 276.468C156.363 276.233 157.206 275.902 157.251 275.624C157.446 274.463 158.03 274.033 158.362 272.982C158.854 271.424 157.746 266.8 163.603 266.8C163.603 266.8 163.603 266.8 163.603 266.8C163.661 266.8 163.719 266.8 163.778 266.801C164.894 266.817 166.112 267.211 167.374 267.269C168.636 267.327 176.786 267.284 177.244 267.842C177.848 268.652 175.758 270.595 175.851 271.027C175.915 271.322 176.656 271.686 176.787 272.064C177.211 273.281 176.67 273.918 178.682 275.015C177.622 275.454 176.561 275.893 175.5 276.332C175.992 276.904 174.593 277.772 174.67 278.12C174.734 278.405 175.572 278.572 175.611 278.87C175.66 279.203 174.755 279.715 174.891 280.322C175.11 281.317 177.298 281.494 177.576 282.09C177.864 282.709 176.674 283.672 177.444 284.461C177.685 284.56 177.926 284.659 178.166 284.759C178.711 284.688 179.255 284.617 179.799 284.546C180.053 284.943 178.937 285.114 178.917 285.48C178.893 285.91 179.95 286.129 179.945 286.419C179.94 286.656 179.092 286.977 179.145 287.284C179.219 287.733 180.443 287.635 180.672 287.876C180.761 287.972 181.437 289.751 181.447 289.851C181.495 290.614 179.819 290.681 179.672 291.289C179.273 292.977 180.627 294.71 181.139 296.271C181.368 296.968 181.27 297.696 181.002 298.391C176.713 297.296 173.375 299.719 180.087 298.813C179.132 299.586 180.944 300.134 180.637 300.868C180.437 301.342 179.507 301.67 179.531 302.347C179.58 303.549 182.226 304.863 177.444 305.209C178.287 306.619 176.553 307.841 180.774 308.349C181.032 308.713 178.517 309.645 178.176 310.053C177.854 310.439 176.719 313.399 176.656 313.883C176.637 314.028 176.617 314.205 176.609 314.392L169.5 307.283C169.942 307.302 170.444 307.259 170.73 306.999C171.243 306.541 171.601 302.163 172.513 307.281C173.574 306.867 173.952 307.014 174.938 307.608C175.117 307.716 175.137 308.476 175.241 308.476C175.456 308.476 175.822 307.915 176.206 307.846C176.837 307.734 177.197 309.333 177.126 306.891C177.542 306.481 177.958 306.072 178.374 305.663C178.52 306.134 178.666 306.605 178.812 307.077C179.035 306.563 179.257 306.049 179.479 305.536C179.218 309.069 180.783 306.984 180.275 304.956C181.082 305.688 181.888 306.419 182.694 307.15C182.582 311.166 184.465 307.613 184.306 305.429C184.399 305.433 184.491 305.436 184.583 305.439C185.391 306.506 186.133 305.633 187.117 306.35C188.102 307.066 188.009 307.457 188.309 309.305C188.54 309.199 188.772 309.093 189.004 308.987C190.219 303.923 190.005 312.691 192.086 308.806C192.751 311.989 194.391 310.317 195.478 309.352C195.604 309.24 195.607 308.622 195.775 308.432C196.187 307.974 197.238 308.768 197.202 306.775C197.566 307.352 197.93 307.928 198.293 308.505C198.591 308.142 198.888 307.78 199.186 307.418C199.184 306.796 199.183 306.174 199.181 305.552C199.78 307.672 200.721 306.857 201.185 307.364C201.277 307.467 201.297 308.325 201.584 308.559C201.92 308.837 202.545 308.583 202.945 308.851C203.101 307.9 203.256 306.95 203.411 305.999C204.127 305.483 204.378 307.992 204.798 308.187C204.873 308.221 206.253 308.041 206.327 307.987C206.935 307.563 206.763 305.425 208.523 305.883C208.836 305.966 209.089 306.706 209.373 306.735C209.873 306.789 211.381 305.112 211.499 303.562C212.106 305.502 213.73 304.709 214.208 305.269C214.352 305.441 214.385 306.677 214.828 306.94C215.188 307.155 216.114 306.165 216.571 306.331C217.055 306.511 217.228 307.549 217.445 307.622C217.65 307.691 217.838 306.853 218.118 306.858C218.99 306.887 219.779 308.236 220.468 308.26C220.479 308.261 220.489 308.261 220.5 308.261L214.368 314.392C214.355 313.409 211.914 312.538 210.824 311.713C210.985 311.506 211.518 311.303 211.523 311.086C211.601 308.401 212.058 305.373 212.589 302.681C212.833 301.431 216.201 298.322 210.582 299.152C209.597 298.718 211.863 295.559 211.897 294.959C211.931 294.358 210.923 293.882 210.908 293.41C210.865 291.985 211.591 290.982 210.713 289.248C210.484 288.8 209.29 288.32 209.304 288.055C209.324 287.735 210.478 287.392 210.551 286.978C210.717 285.991 210.337 284.153 210.537 283.206C210.576 283.033 211.59 282.973 211.907 282.725C213.145 281.763 213.037 280.684 209.801 280.875C211.638 279.641 209.962 278.5 209.86 277.357C209.65 274.94 210.405 270.536 209.045 268.431C208.535 267.64 207.813 267.332 207.578 266.8L220.5 279.722C220.138 279.882 219.673 279.818 218.882 279.311C218.448 279.033 218.016 278.659 217.49 278.327C216.256 277.548 215.124 274.866 214.184 278.097C212.813 277.259 211.722 277.854 210.706 275.09C210.586 275.753 210.466 276.416 210.346 277.078C210.178 277.095 210.01 277.111 209.842 277.128C209.79 276.496 209.737 275.863 209.685 275.231C208.481 275.061 206.954 277.659 205.936 277.64C204.228 277.611 199.829 276.602 198.209 275.749C197.349 275.296 197.303 276.65 196.811 273.867C196.618 274.06 196.426 274.254 196.234 274.447C196.114 275.057 195.993 275.666 195.873 276.275C194.77 276.3 193.461 275.353 192.41 275.363C190.495 275.383 187.62 277.06 185.697 275.958C185.215 275.68 184.612 274.424 184.14 274.438C183.453 274.457 183.286 276.543 182.414 276.582C180.911 276.645 178.111 274.222 176.691 274.408C176.269 274.461 176.072 275.237 175.781 275.32C174.559 275.676 173.556 275.613 172.384 276.812C171.127 274.813 171.235 272.234 170.845 269.631C170.55 267.667 169.644 263.114 169.516 261.393C169.425 260.185 169.763 258.63 169.636 257.299C171.143 256.237 171.776 257.406 173 259.278C175.26 259.203 177.52 259.129 179.779 259.054C179.985 259.781 180.191 260.507 180.396 261.233C180.396 261.235 180.396 261.236 180.396 261.238C181.264 262.076 181.632 260.206 182.1 259.781C186.581 255.716 195.4 258.898 200.333 259.356C201.396 259.453 204.854 258.475 205.584 259.654C205.773 259.961 205.825 261.081 206.026 261.13C207.821 260.464 209.616 259.798 211.411 259.132C214.398 260.54 217.467 259.868 220.5 259.418L226.799 258.587L227.882 266.8C227.988 267.515 228.082 268.228 228.133 268.938C228.859 279 229.742 288.963 229.474 298.861C229.42 300.774 230.259 303.201 229.718 305.074C229.494 305.856 227.695 306.181 229.036 307.208C228.551 307.219 228.067 307.23 227.582 307.241C228.167 308.137 229.27 308.709 229.382 309.714C229.474 310.56 229.546 312.798 229.361 313.545C229.269 313.933 228.363 313.789 228.368 314.15C228.369 314.222 228.388 314.303 228.419 314.392L229.31 321.15L220.5 322.311C219.823 322.549 218.702 323.527 217.947 323.527C217.173 323.527 215.869 322.484 215.274 322.635C213.132 323.171 210.799 324.717 208.517 324.303C207.886 324.185 207.075 323.011 206.878 323.044C206.492 323.112 206.377 324.253 206.118 324.399C204.802 325.14 202.75 323.785 201.46 323.731C197.257 323.556 192.803 324.054 188.618 323.844C185.974 323.712 181.579 323.913 179.138 323.055C178.611 322.87 178.752 321.621 178.31 321.621C177.82 321.621 177.554 322.465 177.325 322.533C175.739 323.011 172.239 323.864 170.742 323.001C170.457 322.836 170.251 321.857 170.08 321.86C169.993 321.86 169.798 322.528 169.527 322.597C169.518 322.599 169.509 322.601 169.5 322.603L162.494 323.527L161.289 314.392C160.694 312.011 161.082 310.269 161.31 307.931C161.744 303.436 160.501 298.228 161.174 293.506C161.32 292.477 163.256 291.772 163.237 291.627C163.198 291.309 161.895 291.106 161.574 290.463C160.516 288.325 161.906 285.446 161.253 283.413C160.931 282.408 159.278 281.028 158.912 280.039C158.62 279.25 159.268 277.385 158.543 277.035C158.104 276.822 156.696 276.723 156.519 276.468ZM178.444 303.069C176.192 302.928 178.064 304.406 179.272 303.852C179.545 303.727 179.029 303.105 178.444 303.069ZM215.466 307.493C214.823 307.507 214.18 307.52 213.536 307.534C213.804 307.728 214.072 307.922 214.339 308.116C214.726 308.007 215.113 307.898 215.499 307.789C215.488 307.69 215.477 307.592 215.466 307.493Z" fill="black"/>
<path d="M263.303 266.8H314.303V314.392H263.303V266.8Z" fill="black"/>
<path d="M250.323 276.468C250.167 276.233 251.01 275.902 251.054 275.624C251.249 274.463 251.834 274.033 252.165 272.982C252.657 271.424 251.549 266.8 257.406 266.8C257.407 266.8 257.407 266.8 257.407 266.8C257.464 266.8 257.522 266.8 257.581 266.801C258.697 266.817 259.915 267.211 261.177 267.269C262.44 267.327 270.59 267.284 271.048 267.842C271.652 268.652 269.562 270.595 269.655 271.027C269.718 271.322 270.459 271.686 270.591 272.064C271.015 273.281 270.473 273.918 272.486 275.015C271.425 275.454 270.364 275.893 269.304 276.332C269.796 276.904 268.397 277.772 268.474 278.12C268.537 278.405 269.376 278.572 269.415 278.87C269.463 279.203 268.558 279.715 268.694 280.322C268.914 281.317 271.102 281.494 271.379 282.09C271.667 282.709 270.478 283.672 271.248 284.461C271.488 284.56 271.729 284.659 271.97 284.759C272.514 284.688 273.058 284.617 273.603 284.546C273.856 284.943 272.741 285.114 272.72 285.48C272.696 285.91 273.754 286.129 273.749 286.419C273.744 286.656 272.896 286.977 272.949 287.284C273.022 287.733 274.246 287.635 274.476 287.876C274.565 287.972 275.24 289.751 275.25 289.851C275.298 290.614 273.622 290.681 273.476 291.289C273.076 292.977 274.43 294.71 274.942 296.271C275.171 296.968 275.074 297.696 274.806 298.391C270.516 297.296 267.178 299.719 273.89 298.813C272.935 299.586 274.747 300.134 274.441 300.868C274.241 301.342 273.31 301.67 273.335 302.347C273.384 303.549 276.029 304.863 271.248 305.209C272.091 306.619 270.356 307.841 274.577 308.349C274.835 308.713 272.321 309.645 271.979 310.053C271.658 310.439 270.522 313.399 270.459 313.883C270.44 314.028 270.421 314.205 270.413 314.392L263.303 307.283C263.745 307.302 264.248 307.259 264.534 306.999C265.046 306.541 265.404 302.163 266.317 307.281C267.377 306.867 267.755 307.014 268.742 307.608C268.92 307.716 268.941 308.476 269.045 308.476C269.26 308.476 269.626 307.915 270.009 307.846C270.64 307.734 271 309.333 270.93 306.891C271.346 306.481 271.762 306.072 272.178 305.663C272.324 306.134 272.47 306.605 272.616 307.077C272.838 306.563 273.06 306.049 273.283 305.536C273.022 309.069 274.587 306.984 274.079 304.956C274.885 305.688 275.691 306.419 276.498 307.15C276.385 311.166 278.268 307.613 278.11 305.429C278.202 305.433 278.294 305.436 278.387 305.439C279.194 306.506 279.936 305.633 280.921 306.35C281.905 307.066 281.813 307.457 282.112 309.305C282.344 309.199 282.576 309.093 282.807 308.987C284.023 303.923 283.808 312.691 285.89 308.806C286.555 311.989 288.194 310.317 289.281 309.352C289.408 309.24 289.41 308.622 289.579 308.432C289.99 307.974 291.041 308.768 291.005 306.775C291.369 307.352 291.733 307.928 292.097 308.505C292.394 308.142 292.692 307.78 292.989 307.418C292.988 306.796 292.986 306.174 292.985 305.552C293.583 307.672 294.524 306.857 294.988 307.364C295.081 307.467 295.101 308.325 295.388 308.559C295.723 308.837 296.349 308.583 296.749 308.851C296.904 307.9 297.059 306.95 297.215 305.999C297.93 305.483 298.181 307.992 298.601 308.187C298.677 308.221 300.056 308.041 300.13 307.987C300.739 307.563 300.567 305.425 302.326 305.883C302.64 305.966 302.893 306.706 303.176 306.735C303.676 306.789 305.184 305.112 305.303 303.562C305.909 305.502 307.533 304.709 308.011 305.269C308.156 305.441 308.188 306.677 308.632 306.94C308.992 307.155 309.918 306.165 310.374 306.331C310.858 306.511 311.031 307.549 311.248 307.622C311.453 307.691 311.642 306.853 311.921 306.858C312.793 306.887 313.583 308.236 314.272 308.26C314.282 308.261 314.293 308.261 314.303 308.261L308.172 314.392C308.158 313.409 305.718 312.538 304.628 311.713C304.789 311.506 305.321 311.303 305.326 311.086C305.404 308.401 305.861 305.373 306.392 302.681C306.636 301.431 310.004 298.322 304.385 299.152C303.401 298.718 305.666 295.559 305.701 294.959C305.734 294.358 304.727 293.882 304.712 293.41C304.668 291.985 305.394 290.982 304.517 289.248C304.287 288.8 303.094 288.32 303.108 288.055C303.127 287.735 304.282 287.392 304.355 286.978C304.521 285.991 304.141 284.153 304.341 283.206C304.38 283.033 305.393 282.973 305.71 282.725C306.948 281.763 306.841 280.684 303.604 280.875C305.442 279.641 303.766 278.5 303.663 277.357C303.453 274.94 304.209 270.536 302.849 268.431C302.338 267.64 301.617 267.332 301.381 266.8L314.303 279.722C313.942 279.882 313.476 279.818 312.685 279.311C312.251 279.033 311.819 278.659 311.293 278.327C310.059 277.548 308.928 274.866 307.987 278.097C306.617 277.259 305.526 277.854 304.509 275.09C304.389 275.753 304.269 276.416 304.149 277.078C303.981 277.095 303.813 277.111 303.645 277.128C303.593 276.496 303.541 275.863 303.488 275.231C302.285 275.061 300.758 277.659 299.739 277.64C298.031 277.611 293.632 276.602 292.013 275.749C291.153 275.296 291.107 276.65 290.614 273.867C290.422 274.06 290.23 274.254 290.037 274.447C289.917 275.057 289.797 275.666 289.676 276.275C288.573 276.3 287.265 275.353 286.214 275.363C284.299 275.383 281.423 277.06 279.5 275.958C279.018 275.68 278.416 274.424 277.943 274.438C277.256 274.457 277.089 276.543 276.217 276.582C274.714 276.645 271.915 274.222 270.494 274.408C270.072 274.461 269.876 275.237 269.584 275.32C268.362 275.676 267.359 275.613 266.188 276.812C264.93 274.813 265.039 272.234 264.649 269.631C264.354 267.667 263.448 263.114 263.319 261.393C263.229 260.185 263.566 258.63 263.439 257.299C264.946 256.237 265.58 257.406 266.803 259.278C269.063 259.203 271.323 259.129 273.583 259.054C273.788 259.781 273.994 260.507 274.2 261.233C274.2 261.235 274.2 261.236 274.2 261.238C275.068 262.076 275.435 260.206 275.903 259.781C280.384 255.716 289.204 258.898 294.137 259.356C295.2 259.453 298.658 258.475 299.387 259.654C299.576 259.961 299.629 261.081 299.83 261.13C301.625 260.464 303.42 259.798 305.215 259.132C308.202 260.54 311.27 259.868 314.303 259.418L320.603 258.587L321.685 266.8C321.792 267.515 321.885 268.228 321.936 268.938C322.663 279 323.545 288.963 323.277 298.861C323.224 300.774 324.063 303.201 323.522 305.074C323.297 305.856 321.499 306.181 322.839 307.208C322.355 307.219 321.87 307.23 321.386 307.241C321.971 308.137 323.073 308.709 323.185 309.714C323.278 310.56 323.35 312.798 323.165 313.545C323.072 313.933 322.167 313.789 322.171 314.15C322.173 314.222 322.191 314.303 322.222 314.392L323.113 321.15L314.303 322.311C313.626 322.549 312.505 323.527 311.751 323.527C310.977 323.527 309.673 322.484 309.078 322.635C306.936 323.171 304.603 324.717 302.32 324.303C301.69 324.185 300.879 323.011 300.681 323.044C300.295 323.112 300.18 324.253 299.921 324.399C298.605 325.14 296.554 323.785 295.264 323.731C291.06 323.556 286.607 324.054 282.421 323.844C279.777 323.712 275.383 323.913 272.941 323.055C272.415 322.87 272.555 321.621 272.113 321.621C271.623 321.621 271.358 322.465 271.128 322.533C269.543 323.011 266.043 323.864 264.546 323.001C264.261 322.836 264.054 321.857 263.883 321.86C263.797 321.86 263.602 322.528 263.33 322.597C263.321 322.599 263.312 322.601 263.303 322.603L256.297 323.527L255.093 314.392C254.498 312.011 254.885 310.269 255.114 307.931C255.547 303.436 254.305 298.228 254.977 293.506C255.123 292.477 257.06 291.772 257.04 291.627C257.001 291.309 255.699 291.106 255.377 290.463C254.32 288.325 255.709 285.446 255.056 283.413C254.735 282.408 253.082 281.028 252.716 280.039C252.423 279.25 253.072 277.385 252.346 277.035C251.907 276.822 250.499 276.723 250.323 276.468ZM272.248 303.069C269.996 302.928 271.867 304.406 273.076 303.852C273.348 303.727 272.832 303.105 272.248 303.069ZM309.27 307.493C308.626 307.507 307.983 307.52 307.34 307.534C307.608 307.728 307.875 307.922 308.143 308.116C308.53 308.007 308.916 307.898 309.303 307.789C309.292 307.69 309.281 307.592 309.27 307.493Z" fill="black"/>
<path d="M169.5 184.186H220.5V231.779H169.5V184.186Z" fill="black"/>
<path d="M156.519 193.855C156.363 193.62 157.206 193.288 157.251 193.011C157.446 191.849 158.03 191.419 158.362 190.368C158.854 188.81 157.746 184.186 163.603 184.186C163.603 184.186 163.603 184.186 163.603 184.186C163.661 184.186 163.719 184.187 163.778 184.187C164.894 184.204 166.112 184.597 167.374 184.655C168.636 184.714 176.786 184.67 177.244 185.229C177.848 186.038 175.758 187.981 175.851 188.413C175.915 188.709 176.656 189.072 176.787 189.45C177.211 190.667 176.67 191.305 178.682 192.402C177.622 192.84 176.561 193.279 175.5 193.718C175.992 194.29 174.593 195.158 174.67 195.506C174.734 195.791 175.572 195.958 175.611 196.256C175.66 196.589 174.755 197.102 174.891 197.708C175.11 198.703 177.298 198.88 177.576 199.477C177.864 200.096 176.674 201.058 177.444 201.848C177.685 201.947 177.926 202.046 178.166 202.145C178.711 202.074 179.255 202.003 179.799 201.932C180.053 202.33 178.937 202.501 178.917 202.866C178.893 203.296 179.95 203.516 179.945 203.805C179.94 204.042 179.092 204.363 179.145 204.671C179.219 205.119 180.443 205.021 180.672 205.262C180.761 205.358 181.437 207.137 181.447 207.237C181.495 208 179.819 208.067 179.672 208.675C179.273 210.363 180.627 212.096 181.139 213.657C181.368 214.355 181.27 215.082 181.002 215.777C176.713 214.682 173.375 217.105 180.087 216.199C179.132 216.972 180.944 217.521 180.637 218.254C180.437 218.728 179.507 219.056 179.531 219.734C179.58 220.935 182.226 222.249 177.444 222.595C178.287 224.006 176.553 225.227 180.774 225.735C181.032 226.099 178.517 227.031 178.176 227.439C177.854 227.825 176.719 230.785 176.656 231.269C176.637 231.414 176.617 231.591 176.609 231.779L169.5 224.67C169.942 224.689 170.444 224.645 170.73 224.385C171.243 223.927 171.601 219.55 172.513 224.668C173.574 224.254 173.952 224.4 174.938 224.995C175.117 225.102 175.137 225.862 175.241 225.863C175.456 225.863 175.822 225.301 176.206 225.233C176.837 225.12 177.197 226.719 177.126 224.277C177.542 223.868 177.958 223.458 178.374 223.049C178.52 223.52 178.666 223.992 178.812 224.463C179.035 223.949 179.257 223.436 179.479 222.922C179.218 226.456 180.783 224.37 180.275 222.343C181.082 223.074 181.888 223.805 182.694 224.536C182.582 228.552 184.465 224.999 184.306 222.816C184.399 222.819 184.491 222.822 184.583 222.825C185.391 223.893 186.133 223.02 187.117 223.736C188.102 224.453 188.009 224.844 188.309 226.691C188.54 226.585 188.772 226.479 189.004 226.374C190.219 221.309 190.005 230.077 192.086 226.193C192.751 229.376 194.391 227.704 195.478 226.739C195.604 226.626 195.607 226.009 195.775 225.818C196.187 225.36 197.238 226.154 197.202 224.161C197.566 224.738 197.93 225.315 198.293 225.891C198.591 225.529 198.888 225.166 199.186 224.804C199.184 224.182 199.183 223.56 199.181 222.938C199.78 225.058 200.721 224.243 201.185 224.75C201.277 224.853 201.297 225.711 201.584 225.945C201.92 226.223 202.545 225.969 202.945 226.237C203.101 225.287 203.256 224.336 203.411 223.385C204.127 222.87 204.378 225.379 204.798 225.574C204.873 225.608 206.253 225.427 206.327 225.374C206.935 224.949 206.763 222.812 208.523 223.27C208.836 223.352 209.089 224.092 209.373 224.122C209.873 224.175 211.381 222.498 211.499 220.948C212.106 222.888 213.73 222.095 214.208 222.655C214.352 222.828 214.385 224.063 214.828 224.326C215.188 224.541 216.114 223.552 216.571 223.717C217.055 223.897 217.228 224.935 217.445 225.009C217.65 225.077 217.838 224.239 218.118 224.244C218.99 224.273 219.779 225.622 220.468 225.647C220.479 225.647 220.489 225.647 220.5 225.647L214.368 231.779C214.355 230.795 211.914 229.925 210.824 229.099C210.985 228.892 211.518 228.689 211.523 228.472C211.601 225.788 212.058 222.759 212.589 220.067C212.833 218.817 216.201 215.709 210.582 216.538C209.597 216.104 211.863 212.946 211.897 212.345C211.931 211.744 210.923 211.268 210.908 210.796C210.865 209.371 211.591 208.368 210.713 206.634C210.484 206.186 209.29 205.706 209.304 205.441C209.324 205.122 210.478 204.778 210.551 204.364C210.717 203.377 210.337 201.539 210.537 200.592C210.576 200.42 211.59 200.359 211.907 200.112C213.145 199.149 213.037 198.07 209.801 198.261C211.638 197.028 209.962 195.887 209.86 194.743C209.65 192.326 210.405 187.923 209.045 185.817C208.535 185.026 207.813 184.718 207.578 184.186L220.5 197.108C220.138 197.269 219.673 197.204 218.882 196.698C218.448 196.42 218.016 196.045 217.49 195.714C216.256 194.934 215.124 192.252 214.184 195.484C212.813 194.646 211.722 195.24 210.706 192.476C210.586 193.139 210.466 193.802 210.346 194.465C210.178 194.481 210.01 194.498 209.842 194.514C209.79 193.882 209.737 193.25 209.685 192.618C208.481 192.447 206.954 195.046 205.936 195.027C204.228 194.997 199.829 193.988 198.209 193.135C197.349 192.682 197.303 194.036 196.811 191.253C196.618 191.447 196.426 191.64 196.234 191.834C196.114 192.443 195.993 193.052 195.873 193.662C194.77 193.686 193.461 192.74 192.41 192.749C190.495 192.769 187.62 194.446 185.697 193.344C185.215 193.067 184.612 191.81 184.14 191.824C183.453 191.844 183.286 193.929 182.414 193.968C180.911 194.031 178.111 191.609 176.691 191.794C176.269 191.848 176.072 192.624 175.781 192.707C174.559 193.062 173.556 192.999 172.384 194.198C171.127 192.2 171.235 189.62 170.845 187.017C170.55 185.053 169.644 180.5 169.516 178.78C169.425 177.571 169.763 176.016 169.636 174.685C171.143 173.623 171.776 174.793 173 176.664C175.26 176.59 177.52 176.515 179.779 176.441C179.985 177.167 180.191 177.893 180.396 178.619C180.396 178.621 180.396 178.623 180.396 178.624C181.264 179.462 181.632 177.592 182.1 177.167C186.581 173.102 195.4 176.284 200.333 176.742C201.396 176.84 204.854 175.861 205.584 177.04C205.773 177.348 205.825 178.468 206.026 178.516C207.821 177.85 209.616 177.184 211.411 176.518C214.398 177.926 217.467 177.254 220.5 176.804L226.799 175.974L227.882 184.186C227.988 184.901 228.082 185.614 228.133 186.324C228.859 196.387 229.742 206.349 229.474 216.247C229.42 218.16 230.259 220.588 229.718 222.461C229.494 223.242 227.695 223.568 229.036 224.595C228.551 224.605 228.067 224.616 227.582 224.627C228.167 225.523 229.27 226.096 229.382 227.1C229.474 227.946 229.546 230.184 229.361 230.932C229.269 231.32 228.363 231.175 228.368 231.537C228.369 231.608 228.388 231.69 228.419 231.779L229.31 238.536L220.5 239.698C219.823 239.935 218.702 240.913 217.947 240.913C217.173 240.913 215.869 239.87 215.274 240.021C213.132 240.557 210.799 242.103 208.517 241.689C207.886 241.572 207.075 240.398 206.878 240.431C206.492 240.499 206.377 241.639 206.118 241.786C204.802 242.527 202.75 241.171 201.46 241.118C197.257 240.942 192.803 241.44 188.618 241.23C185.974 241.099 181.579 241.299 179.138 240.442C178.611 240.256 178.752 239.007 178.31 239.007C177.82 239.007 177.554 239.851 177.325 239.92C175.739 240.397 172.239 241.25 170.742 240.388C170.457 240.222 170.251 239.243 170.08 239.247C169.993 239.247 169.798 239.915 169.527 239.983C169.518 239.985 169.509 239.988 169.5 239.99L162.494 240.914L161.289 231.779C160.694 229.397 161.082 227.655 161.31 225.317C161.744 220.822 160.501 215.614 161.174 210.892C161.32 209.863 163.256 209.158 163.237 209.013C163.198 208.696 161.895 208.493 161.574 207.85C160.516 205.712 161.906 202.833 161.253 200.799C160.931 199.795 159.278 198.414 158.912 197.426C158.62 196.636 159.268 194.771 158.543 194.421C158.104 194.208 156.696 194.11 156.519 193.855ZM178.444 220.455C176.192 220.314 178.064 221.793 179.272 221.238C179.545 221.113 179.029 220.491 178.444 220.455ZM215.466 224.88C214.823 224.893 214.18 224.907 213.536 224.92C213.804 225.114 214.072 225.308 214.339 225.502C214.726 225.393 215.113 225.284 215.499 225.175C215.488 225.077 215.477 224.978 215.466 224.88Z" fill="black"/>
<path d="M75.6965 184.186H126.697V231.779H75.6965V184.186Z" fill="black"/>
<path d="M62.7157 193.855C62.5598 193.62 63.4029 193.288 63.4473 193.011C63.6423 191.849 64.2267 191.419 64.5582 190.368C65.0505 188.81 63.9424 184.186 69.7996 184.186C69.7997 184.186 69.7999 184.186 69.8 184.186C69.8574 184.186 69.9155 184.187 69.9743 184.187C71.0901 184.204 72.3083 184.597 73.5703 184.655C74.8327 184.714 82.9827 184.67 83.4409 185.229C84.0447 186.038 81.955 187.981 82.0476 188.413C82.1114 188.709 82.8523 189.072 82.9839 189.45C83.4079 190.667 82.8661 191.305 84.8786 192.402C83.818 192.84 82.7575 193.279 81.6969 193.718C82.1886 194.29 80.7899 195.158 80.8669 195.506C80.9303 195.791 81.769 195.958 81.808 196.256C81.8564 196.589 80.9511 197.102 81.0875 197.708C81.3068 198.703 83.4947 198.88 83.7726 199.477C84.0601 200.096 82.8709 201.058 83.6408 201.848C83.8815 201.947 84.1222 202.046 84.3629 202.145C84.9072 202.074 85.4515 202.003 85.9958 201.932C86.2492 202.33 85.1337 202.501 85.1135 202.866C85.0891 203.296 86.1467 203.516 86.1418 203.805C86.1369 204.042 85.2889 204.363 85.342 204.671C85.4151 205.119 86.6395 205.021 86.8686 205.262C86.9576 205.358 87.6333 207.137 87.643 207.237C87.6913 208 86.0154 208.067 85.8689 208.675C85.4692 210.363 86.8234 212.096 87.3352 213.657C87.5641 214.355 87.4668 215.082 87.1987 215.777C82.9095 214.682 79.5714 217.105 86.2831 216.199C85.3282 216.972 87.1401 217.521 86.8337 218.254C86.6339 218.728 85.7033 219.056 85.7276 219.734C85.7768 220.935 88.4221 222.249 83.6408 222.595C84.4837 224.006 82.7494 225.227 86.9702 225.735C87.228 226.099 84.7139 227.031 84.3724 227.439C84.0507 227.825 82.9155 230.785 82.8521 231.269C82.8332 231.414 82.8138 231.591 82.8058 231.779L75.6965 224.67C76.1383 224.689 76.6409 224.645 76.927 224.385C77.4394 223.927 77.7975 219.55 78.7097 224.668C79.7704 224.254 80.1483 224.4 81.1348 224.995C81.3134 225.102 81.3336 225.862 81.438 225.863C81.6529 225.863 82.0186 225.301 82.4023 225.233C83.0332 225.12 83.3933 226.719 83.323 224.277C83.739 223.868 84.1549 223.458 84.5709 223.049C84.7168 223.52 84.8627 223.992 85.0087 224.463C85.2311 223.949 85.4535 223.436 85.6759 222.922C85.4147 226.456 86.9799 224.37 86.4717 222.343C87.2781 223.074 88.0844 223.805 88.8908 224.536C88.7783 228.552 90.6613 224.999 90.5028 222.816C90.595 222.819 90.6873 222.822 90.7796 222.825C91.5874 223.893 92.3291 223.02 93.3138 223.736C94.2983 224.453 94.2059 224.844 94.5052 226.691C94.7369 226.585 94.9686 226.479 95.2003 226.374C96.416 221.309 96.2011 230.077 98.2828 226.193C98.9479 229.376 100.587 227.704 101.674 226.739C101.801 226.626 101.803 226.009 101.972 225.818C102.383 225.36 103.434 226.154 103.399 224.161C103.762 224.738 104.126 225.315 104.49 225.891C104.787 225.529 105.085 225.166 105.382 224.804C105.381 224.182 105.379 223.56 105.378 222.938C105.976 225.058 106.917 224.243 107.381 224.75C107.474 224.853 107.494 225.711 107.781 225.945C108.116 226.223 108.742 225.969 109.142 226.237C109.297 225.287 109.453 224.336 109.608 223.385C110.323 222.87 110.574 225.379 110.994 225.574C111.07 225.608 112.449 225.427 112.524 225.374C113.132 224.949 112.96 222.812 114.719 223.27C115.033 223.352 115.286 224.092 115.569 224.122C116.07 224.175 117.577 222.498 117.696 220.948C118.303 222.888 119.926 222.095 120.404 222.655C120.549 222.828 120.581 224.063 121.025 224.326C121.385 224.541 122.311 223.552 122.767 223.717C123.251 223.897 123.424 224.935 123.641 225.009C123.846 225.077 124.035 224.239 124.314 224.244C125.186 224.273 125.976 225.622 126.665 225.647C126.676 225.647 126.686 225.647 126.697 225.647L120.565 231.779C120.551 230.795 118.111 229.925 117.021 229.099C117.182 228.892 117.714 228.689 117.719 228.472C117.797 225.788 118.254 222.759 118.786 220.067C119.03 218.817 122.397 215.709 116.778 216.538C115.794 216.104 118.06 212.946 118.094 212.345C118.127 211.744 117.12 211.268 117.105 210.796C117.061 209.371 117.787 208.368 116.91 206.634C116.68 206.186 115.487 205.706 115.501 205.441C115.52 205.122 116.675 204.778 116.748 204.364C116.914 203.377 116.534 201.539 116.734 200.592C116.773 200.42 117.786 200.359 118.103 200.112C119.341 199.149 119.234 198.07 115.997 198.261C117.835 197.028 116.159 195.887 116.056 194.743C115.846 192.326 116.602 187.923 115.242 185.817C114.731 185.026 114.01 184.718 113.774 184.186L126.697 197.108C126.335 197.269 125.869 197.204 125.079 196.698C124.645 196.42 124.213 196.045 123.686 195.714C122.452 194.934 121.321 192.252 120.38 195.484C119.01 194.646 117.919 195.24 116.902 192.476C116.782 193.139 116.662 193.802 116.542 194.465C116.375 194.481 116.207 194.498 116.039 194.514C115.986 193.882 115.934 193.25 115.881 192.618C114.678 192.447 113.151 195.046 112.132 195.027C110.424 194.997 106.025 193.988 104.406 193.135C103.546 192.682 103.5 194.036 103.007 191.253C102.815 191.447 102.623 191.64 102.43 191.834C102.31 192.443 102.19 193.052 102.069 193.662C100.966 193.686 99.6578 192.74 98.6069 192.749C96.692 192.769 93.8165 194.446 91.8935 193.344C91.4114 193.067 90.8086 191.81 90.3365 191.824C89.6493 191.844 89.4822 193.929 88.6102 193.968C87.1071 194.031 84.308 191.609 82.8874 191.794C82.4654 191.848 82.2686 192.624 81.9772 192.707C80.7555 193.062 79.7525 192.999 78.581 194.198C77.3232 192.2 77.4318 189.62 77.042 187.017C76.7466 185.053 75.8407 180.5 75.7121 178.78C75.6218 177.571 75.9591 176.016 75.8325 174.685C77.3395 173.623 77.9726 174.793 79.1963 176.664C81.4562 176.59 83.7161 176.515 85.9759 176.441C86.1815 177.167 86.3871 177.893 86.5927 178.619C86.5927 178.621 86.5927 178.623 86.5927 178.624C87.4606 179.462 87.8284 177.592 88.2965 177.167C92.7774 173.102 101.597 176.284 106.53 176.742C107.593 176.84 111.051 175.861 111.78 177.04C111.969 177.348 112.022 178.468 112.223 178.516C114.018 177.85 115.813 177.184 117.608 176.518C120.595 177.926 123.663 177.254 126.697 176.804L132.996 175.974L134.079 184.186C134.185 184.901 134.278 185.614 134.329 186.324C135.056 196.387 135.938 206.349 135.67 216.247C135.617 218.16 136.456 220.588 135.915 222.461C135.69 223.242 133.892 223.568 135.232 224.595C134.748 224.605 134.263 224.616 133.779 224.627C134.364 225.523 135.466 226.096 135.578 227.1C135.671 227.946 135.743 230.184 135.558 230.932C135.465 231.32 134.56 231.175 134.564 231.537C134.566 231.608 134.584 231.69 134.616 231.779L135.507 238.536L126.697 239.698C126.019 239.935 124.898 240.913 124.144 240.913C123.37 240.913 122.066 239.87 121.471 240.021C119.329 240.557 116.996 242.103 114.713 241.689C114.083 241.572 113.272 240.398 113.074 240.431C112.688 240.499 112.574 241.639 112.314 241.786C110.998 242.527 108.947 241.171 107.657 241.118C103.453 240.942 98.9999 241.44 94.8144 241.23C92.1701 241.099 87.7757 241.299 85.3344 240.442C84.8079 240.256 84.9483 239.007 84.5062 239.007C84.0161 239.007 83.7506 239.851 83.5216 239.92C81.936 240.397 78.4359 241.25 76.939 240.388C76.6539 240.222 76.4471 239.243 76.2763 239.247C76.1899 239.247 75.9947 239.915 75.7235 239.983C75.7145 239.985 75.7055 239.988 75.6965 239.99L68.6901 240.914L67.4856 231.779C66.8909 229.397 67.2784 227.655 67.5066 225.317C67.9404 220.822 66.6976 215.614 67.3702 210.892C67.5164 209.863 69.4527 209.158 69.4332 209.013C69.3941 208.696 68.0918 208.493 67.7701 207.85C66.7127 205.712 68.1024 202.833 67.4495 200.799C67.1279 199.795 65.4746 198.414 65.1088 197.426C64.8164 196.636 65.4649 194.771 64.7391 194.421C64.3005 194.208 62.8921 194.11 62.7157 193.855ZM84.6406 220.455C82.3887 220.314 84.2602 221.793 85.469 221.238C85.7412 221.113 85.2252 220.491 84.6406 220.455ZM121.663 224.88C121.019 224.893 120.376 224.907 119.733 224.92C120.001 225.114 120.268 225.308 120.536 225.502C120.923 225.393 121.309 225.284 121.696 225.175C121.685 225.077 121.674 224.978 121.663 224.88Z" fill="black"/>
<path d="M92.099 57.3588C92.7 70.7209 95.8316 91.9684 98.9186 104.997C99.4191 105.335 99.9397 105.635 100.471 105.908C103.517 107.69 112.241 111.545 119.659 105.441C121.613 103.832 123.555 101.747 124.104 96.4911C125.878 79.5375 128.766 60.7594 124.409 50.3136C123.539 48.2287 122.298 45.1507 119.543 45.0727C106.036 44.6904 97.5491 45.7294 94.6629 50.2564C93.4454 52.1661 91.9555 54.1676 92.099 57.3588Z" fill="#D9D9D9"/>
<path d="M94.5896 115.216C94.2095 115.156 94.1247 114.279 93.7786 114.017C92.3094 112.869 92.0016 112.011 90.8793 110.585C90.371 109.924 89.4309 108.933 88.6484 107.675C88.4864 107.498 88.1613 106.857 88.0236 106.659C86.3099 102.672 86.9358 100.647 90.1854 99.8918C90.1855 99.8917 90.1856 99.8917 90.1858 99.8917C90.2333 99.8814 90.2814 99.8715 90.3302 99.8619C91.2565 99.6797 92.3449 99.8309 93.3987 99.6484C94.4519 99.4607 101.176 97.941 101.641 98.2204C102.217 98.6588 101.06 99.7099 100.933 99.8328L100.568 99.2382C100.567 99.2663 100.573 99.2854 100.587 99.2933C100.705 99.3638 101.281 99.081 101.445 99.0979C101.96 99.1379 101.917 99.6913 103.227 98.5315C102.845 99.3584 102.556 100.239 102.346 101.151C102.554 101.073 102.659 101.243 102.744 101.48C102.79 101.511 102.941 101.579 102.985 101.612C103.075 101.95 103.142 102.435 103.283 102.465C103.494 102.515 103.913 101.931 104.116 101.994C104.331 102.053 104.351 102.908 104.802 102.971C105.548 103.074 106.297 101.367 106.713 101.262C107.137 101.15 107.454 102.289 108.074 101.758C108.175 101.572 108.274 101.385 108.37 101.197C108.425 100.738 108.485 100.279 108.548 99.8218C108.783 99.6532 108.684 100.595 108.872 100.646C109.095 100.705 109.326 99.8328 109.454 99.8534C109.556 99.8707 109.63 100.6 109.783 100.568C109.998 100.522 110.014 99.4833 110.119 99.2949C110.184 99.2299 110.788 98.6533 110.792 98.6366C111.004 98.5798 111.179 99.9866 111.426 100.076C112.131 100.31 112.353 99.0108 112.49 98.4455C112.569 98.1867 112.773 98.1607 113.087 98.2194C114.696 101.522 117.4 103.068 113.659 98.7633C113.998 98.9904 114.021 98.789 113.973 98.5317C113.968 98.2071 113.84 97.8434 114.017 97.8659C114.228 97.9016 114.842 98.4015 114.909 98.2953C115.058 98.0296 113.022 97.0642 116.706 98.7494C116.242 98.1084 117.826 97.864 114.403 96.8168C114.217 96.6715 116.39 96.6526 116.714 96.4268C116.822 96.3616 117.043 96.122 117.279 95.7772C117.735 94.89 118.276 93.7147 118.342 93.4371C118.442 93.004 118.584 92.2446 118.314 91.8427C117.979 91.3386 114.334 90.6045 118.729 90.263C118.487 89.27 118.648 88.9454 119.247 88.1167C119.355 87.9667 119.996 88.0195 120.007 87.9261C120.028 87.7335 119.592 87.3538 119.572 87.0044C119.54 86.43 120.92 86.2561 118.86 86.0934C118.556 85.6843 118.252 85.276 117.948 84.8689C118.358 84.7821 118.769 84.6952 119.179 84.6082C118.769 84.3637 118.358 84.1193 117.947 83.8757C120.895 84.4255 119.288 82.8473 117.534 83.1188C118.225 82.4706 118.914 81.8207 119.601 81.1698C122.973 81.6086 120.147 79.6387 118.293 79.6063C118.303 79.5253 118.314 79.4443 118.324 79.3635C119.291 78.7381 118.616 78.021 119.296 77.2125C119.974 76.4054 120.296 76.5121 121.876 76.3776C121.804 76.1653 121.731 75.9537 121.659 75.7427C117.468 74.3502 124.858 75.0885 121.703 73.0231C124.43 72.6146 123.103 71.0647 122.327 70.0829C122.237 69.9683 121.715 69.9438 121.56 69.7913C121.188 69.4228 121.891 68.5329 120.204 68.5135C120.701 68.2176 121.197 67.9257 121.692 67.6194C121.391 67.3554 121.089 67.0952 120.786 66.8392C120.26 66.833 119.733 66.8269 119.207 66.8207C121.009 66.3494 120.322 65.5332 120.748 65.1518C120.834 65.0748 121.561 65.0526 121.756 64.8051C121.989 64.5143 121.765 63.9913 121.983 63.6485C121.176 63.5364 120.368 63.4295 119.56 63.328C119.105 62.7649 121.216 62.4803 121.364 62.1156C121.392 62.0465 121.171 60.9274 121.118 60.8686C120.719 60.399 118.942 60.6794 119.187 59.2978C119.231 59.0572 119.828 58.7831 119.825 58.5627C119.825 58.1608 118.245 57.2655 116.94 57.4447C118.487 56.7342 117.592 55.7751 117.972 55.3807C118.089 55.2523 119.096 54.965 119.228 54.6086C119.337 54.3138 118.354 53.9713 118.394 53.6733C118.438 53.3407 119.217 52.9243 119.223 52.7691C119.226 52.6717 118.91 52.7092 118.685 52.7012C118.566 52.6753 118.468 52.6355 118.438 52.5608C118.177 51.8665 119.017 50.9533 118.849 50.5884C118.614 50.0462 116.609 50.9949 116.316 52.0458C116.498 52.0324 116.886 51.7742 117.009 51.8625C117.445 52.2114 118.565 52.6113 119.332 52.5291C117.602 52.3154 115.825 52.0034 114.205 51.6952C113.147 51.4824 110.408 48.7177 111.277 53.4485C110.958 54.2811 108.319 52.5081 107.843 52.5358C107.365 52.5492 107.087 53.4353 106.741 53.4875C105.706 53.6476 104.848 53.1499 103.911 54.1128C103.673 54.3643 103.657 55.4111 103.528 55.4341C103.369 55.4599 102.923 54.5715 102.702 54.5771C102.443 54.5857 102.152 54.7402 101.951 54.8766C101.743 55.0146 101.644 55.1188 101.551 55.078C101.517 55.0605 101.04 54.3471 100.847 54.1549C100.074 53.4167 99.9937 53.6345 102.045 55.4516C101.695 54.9732 101.607 54.8141 101.688 54.7351C101.295 55.426 101.481 56.1907 101.35 56.5195C101.185 56.9096 101.084 57.0842 101.072 57.0448C101.061 57.0101 101.051 56.8797 101.144 56.952C101.268 57.7686 101.497 58.5302 101.897 59.0723C102.694 60.1529 103.913 60.0329 102.983 61.7684C102.779 62.164 102.492 62.5482 102.251 63.0266C101.683 64.1407 99.5169 65.3477 102.318 65.895C101.729 67.1562 102.329 68.0482 100.101 69.1872C100.67 69.2312 101.239 69.2747 101.808 69.3177C101.838 69.4629 101.868 69.6085 101.899 69.7543C101.372 69.8598 100.846 69.9647 100.319 70.0704C100.295 71.141 102.637 72.2188 102.731 73.1068C102.884 74.5971 102.553 78.547 102.049 80.0713C101.779 80.8797 102.918 80.7525 100.652 81.5276C100.839 81.6728 101.026 81.8178 101.214 81.9625C101.739 81.9922 102.265 82.0213 102.791 82.05C102.955 83.0091 102.34 84.2746 102.495 85.194C102.776 86.8694 104.594 89.1333 103.973 90.9579C103.816 91.4194 102.864 92.1326 102.95 92.5392C103.075 93.1324 104.838 92.9644 105.01 93.7052C105.302 94.9894 103.767 97.7974 104.179 98.987C104.299 99.3425 104.977 99.3744 105.098 99.6063C105.614 100.584 105.752 101.456 106.964 102.196C105.563 103.639 103.419 104.045 101.357 104.893C99.8014 105.538 96.2576 107.258 94.8756 107.73C93.9039 108.061 92.5511 108.074 91.4874 108.461C90.2671 107.274 91.0889 106.434 92.3793 104.972C91.849 102.92 91.3584 100.875 90.8925 98.8326C91.4586 98.5266 92.0251 98.2212 92.592 97.9164C92.5933 97.9162 92.5946 97.9159 92.5959 97.9156C93.1419 97.0056 91.5244 96.9684 91.0904 96.6065C86.9189 93.1634 88.2607 84.6354 88.0469 80.1152C87.9906 79.1379 86.7559 76.0877 87.6667 75.295C87.9032 75.0906 88.8377 74.9264 88.8562 74.7392C88.0951 73.1722 87.3455 71.6004 86.6082 70.0106C87.7092 66.4616 86.1819 63.0911 85.7479 59.5895C85.6689 58.9601 85.591 58.2882 85.5197 57.6547C84.891 53.2373 87.609 48.158 88.6692 46.435C92.1369 40.9823 96.9905 39.6397 100.427 38.6753C104.036 37.7883 107.288 37.539 110.44 37.4826C112.314 37.4545 114.649 36.7299 116.42 37.2091C117.165 37.4077 117.432 38.9331 118.425 37.8197C118.427 38.2298 118.428 38.6399 118.429 39.05C118.914 38.7735 119.309 38.3489 119.743 38.0281C120.593 37.8131 121.629 37.7453 122.815 38.0823C124.014 38.38 126.048 39.4543 127.258 40.6726C128.514 41.8786 129.169 42.9901 129.422 43.5352C129.675 44.1025 128.899 44.2968 129.155 44.7444C129.602 45.4941 131.236 46.5834 131.515 47.2751C131.524 47.2961 131.532 47.3175 131.539 47.3393C131.88 48.2764 131.577 49.9428 131.874 50.5322C133.008 52.7373 134.758 55.1175 134.678 57.5786C134.655 58.2564 133.739 59.191 133.782 59.3818C133.871 59.7686 134.841 59.8157 134.984 60.0774C135.711 61.4052 134.635 63.5396 134.595 64.8012C134.482 68.9526 134.656 73.2078 134.16 77.105C133.854 79.57 133.617 83.6256 132.654 85.7624C132.446 86.2242 131.409 85.9828 131.366 86.383C131.318 86.8266 132.001 87.1442 132.036 87.3578C132.281 88.8388 132.646 92.0642 131.774 93.3175C131.606 93.5566 130.763 93.6503 130.749 93.8028C130.74 93.8797 131.283 94.1156 131.314 94.364C131.449 95.4397 131.4 96.3519 131.268 97.2404C131.096 98.4626 130.779 99.6901 130.285 101.184C129.444 104.255 126.862 108.816 124.183 110.938C122.131 112.793 119.491 114.312 116.742 114.879C115.326 115.176 114.118 113.704 113.957 113.753C113.578 113.85 113.498 114.988 112.679 115.35C109.863 116.579 106.269 114.96 103.854 114.823C102.63 114.78 100.565 115.537 99.2856 115.318C98.3339 115.18 96.6572 113.815 95.8453 113.812L96.2886 114.056C96.2271 114.06 96.1709 114.074 96.121 114.096C95.6922 114.291 95.0027 115.275 94.5896 115.216ZM115.704 98.7749C117.211 99.949 116.154 98.6897 115.208 98.2632C115.008 98.1488 115.322 98.4605 115.704 98.7749ZM118.423 49.3046C118.422 49.849 118.421 50.3934 118.42 50.9378C118.595 50.7154 118.77 50.4932 118.948 50.2713C118.86 49.9417 118.772 49.6121 118.684 49.2827C118.597 49.2899 118.51 49.2973 118.423 49.3046Z" fill="black"/>
<path d="M263.313 57.3588C263.914 70.7209 267.046 91.9684 270.133 104.997C270.633 105.335 271.154 105.635 271.685 105.908C274.731 107.69 283.455 111.545 290.873 105.441C292.827 103.832 294.769 101.747 295.319 96.4911C297.092 79.5375 299.98 60.7594 295.623 50.3136C294.753 48.2287 293.512 45.1507 290.757 45.0727C277.25 44.6904 268.763 45.7294 265.877 50.2564C264.66 52.1661 263.17 54.1676 263.313 57.3588Z" fill="#D9D9D9"/>
<path d="M265.804 115.216C265.424 115.156 265.339 114.279 264.993 114.017C263.524 112.869 263.216 112.011 262.093 110.585C261.585 109.924 260.645 108.933 259.862 107.675C259.7 107.498 259.375 106.857 259.238 106.659C257.524 102.672 258.15 100.647 261.4 99.8918C261.4 99.8917 261.4 99.8917 261.4 99.8917C261.447 99.8814 261.496 99.8715 261.544 99.8619C262.471 99.6797 263.559 99.8309 264.613 99.6484C265.666 99.4607 272.39 97.941 272.855 98.2204C273.431 98.6588 272.275 99.7099 272.147 99.8328L271.782 99.2382C271.781 99.2663 271.787 99.2854 271.801 99.2933C271.919 99.3638 272.495 99.081 272.659 99.0979C273.174 99.1379 273.131 99.6913 274.441 98.5315C274.06 99.3584 273.77 100.239 273.56 101.151C273.769 101.073 273.873 101.243 273.958 101.48C274.004 101.511 274.155 101.579 274.199 101.612C274.289 101.95 274.356 102.435 274.497 102.465C274.708 102.515 275.127 101.931 275.33 101.994C275.545 102.053 275.565 102.908 276.017 102.971C276.762 103.074 277.511 101.367 277.927 101.262C278.351 101.15 278.668 102.289 279.288 101.758C279.389 101.572 279.488 101.385 279.584 101.197C279.639 100.738 279.699 100.279 279.763 99.8218C279.997 99.6532 279.898 100.595 280.086 100.646C280.309 100.705 280.54 99.8328 280.668 99.8534C280.77 99.8707 280.844 100.6 280.997 100.568C281.212 100.522 281.229 99.4833 281.333 99.2949C281.398 99.2299 282.002 98.6533 282.006 98.6366C282.219 98.5798 282.393 99.9866 282.64 100.076C283.345 100.31 283.567 99.0108 283.704 98.4455C283.783 98.1867 283.988 98.1607 284.301 98.2194C285.91 101.522 288.614 103.068 284.873 98.7633C285.212 98.9904 285.235 98.789 285.187 98.5317C285.182 98.2071 285.055 97.8434 285.231 97.8659C285.442 97.9016 286.056 98.4015 286.123 98.2953C286.272 98.0296 284.236 97.0642 287.92 98.7494C287.456 98.1084 289.04 97.864 285.617 96.8168C285.431 96.6715 287.604 96.6526 287.928 96.4268C288.036 96.3616 288.257 96.122 288.493 95.7772C288.949 94.89 289.491 93.7147 289.556 93.4371C289.657 93.004 289.799 92.2446 289.528 91.8427C289.193 91.3386 285.548 90.6045 289.943 90.263C289.701 89.27 289.862 88.9454 290.461 88.1167C290.569 87.9667 291.21 88.0195 291.221 87.9261C291.242 87.7335 290.806 87.3538 290.787 87.0044C290.755 86.43 292.135 86.2561 290.074 86.0934C289.77 85.6843 289.466 85.276 289.162 84.8689C289.572 84.7821 289.983 84.6952 290.393 84.6082C289.983 84.3637 289.572 84.1193 289.161 83.8757C292.109 84.4255 290.502 82.8473 288.748 83.1188C289.439 82.4706 290.128 81.8207 290.815 81.1698C294.187 81.6086 291.361 79.6387 289.507 79.6063C289.518 79.5253 289.528 79.4443 289.538 79.3635C290.506 78.7381 289.83 78.021 290.51 77.2125C291.188 76.4054 291.51 76.5121 293.09 76.3776C293.018 76.1653 292.946 75.9537 292.873 75.7427C288.682 74.3502 296.072 75.0885 292.917 73.0231C295.644 72.6146 294.317 71.0647 293.541 70.0829C293.451 69.9683 292.929 69.9438 292.774 69.7913C292.403 69.4228 293.105 68.5329 291.418 68.5135C291.915 68.2176 292.411 67.9257 292.906 67.6194C292.605 67.3554 292.303 67.0952 292 66.8392C291.474 66.833 290.947 66.8269 290.421 66.8207C292.223 66.3494 291.536 65.5332 291.962 65.1518C292.048 65.0748 292.775 65.0526 292.97 64.8051C293.203 64.5143 292.979 63.9913 293.197 63.6485C292.39 63.5364 291.582 63.4295 290.774 63.328C290.319 62.7649 292.431 62.4803 292.578 62.1156C292.606 62.0465 292.385 60.9274 292.332 60.8686C291.934 60.399 290.156 60.6794 290.401 59.2978C290.445 59.0572 291.042 58.7831 291.039 58.5627C291.039 58.1608 289.459 57.2655 288.154 57.4447C289.701 56.7342 288.806 55.7751 289.186 55.3807C289.303 55.2523 290.311 54.965 290.443 54.6086C290.551 54.3138 289.568 53.9713 289.608 53.6733C289.652 53.3407 290.431 52.9243 290.437 52.7691C290.441 52.6717 290.124 52.7092 289.899 52.7012C289.78 52.6753 289.682 52.6355 289.652 52.5608C289.391 51.8665 290.231 50.9533 290.063 50.5884C289.828 50.0462 287.823 50.9949 287.531 52.0458C287.712 52.0324 288.1 51.7742 288.223 51.8625C288.659 52.2114 289.779 52.6113 290.546 52.5291C288.816 52.3154 287.04 52.0034 285.419 51.6952C284.361 51.4824 281.623 48.7177 282.491 53.4485C282.172 54.2811 279.533 52.5081 279.057 52.5358C278.579 52.5492 278.301 53.4353 277.955 53.4875C276.92 53.6476 276.062 53.1499 275.125 54.1128C274.888 54.3643 274.871 55.4111 274.742 55.4341C274.583 55.4599 274.137 54.5715 273.916 54.5771C273.658 54.5857 273.366 54.7402 273.165 54.8766C272.957 55.0146 272.858 55.1188 272.765 55.078C272.731 55.0605 272.254 54.3471 272.061 54.1549C271.288 53.4167 271.208 53.6345 273.259 55.4516C272.909 54.9732 272.821 54.8141 272.902 54.7351C272.509 55.426 272.695 56.1907 272.564 56.5195C272.399 56.9096 272.298 57.0842 272.287 57.0448C272.275 57.0101 272.265 56.8797 272.358 56.952C272.482 57.7686 272.711 58.5302 273.111 59.0723C273.908 60.1529 275.128 60.0329 274.197 61.7684C273.993 62.164 273.706 62.5482 273.465 63.0266C272.897 64.1407 270.731 65.3477 273.532 65.895C272.943 67.1562 273.543 68.0482 271.315 69.1872C271.884 69.2312 272.453 69.2747 273.022 69.3177C273.052 69.4629 273.082 69.6085 273.113 69.7543C272.586 69.8598 272.06 69.9647 271.533 70.0704C271.509 71.141 273.851 72.2188 273.945 73.1068C274.098 74.5971 273.767 78.547 273.263 80.0713C272.993 80.8797 274.133 80.7525 271.866 81.5276C272.053 81.6728 272.241 81.8178 272.428 81.9625C272.953 81.9922 273.479 82.0213 274.005 82.05C274.169 83.0091 273.554 84.2746 273.709 85.194C273.99 86.8694 275.808 89.1333 275.187 90.9579C275.03 91.4194 274.078 92.1326 274.164 92.5392C274.289 93.1324 276.052 92.9644 276.224 93.7052C276.516 94.9894 274.981 97.7974 275.393 98.987C275.513 99.3425 276.191 99.3744 276.312 99.6063C276.829 100.584 276.967 101.456 278.178 102.196C276.777 103.639 274.633 104.045 272.571 104.893C271.016 105.538 267.472 107.258 266.09 107.73C265.118 108.061 263.765 108.074 262.701 108.461C261.481 107.274 262.303 106.434 263.593 104.972C263.063 102.92 262.573 100.875 262.107 98.8326C262.673 98.5266 263.239 98.2212 263.806 97.9164C263.807 97.9162 263.809 97.9159 263.81 97.9156C264.356 97.0056 262.739 96.9684 262.305 96.6065C258.133 93.1634 259.475 84.6354 259.261 80.1152C259.205 79.1379 257.97 76.0877 258.881 75.295C259.117 75.0906 260.052 74.9264 260.07 74.7392C259.309 73.1722 258.56 71.6004 257.822 70.0106C258.923 66.4616 257.396 63.0911 256.962 59.5895C256.883 58.9601 256.805 58.2882 256.734 57.6547C256.105 53.2373 258.823 48.158 259.883 46.435C263.351 40.9823 268.205 39.6397 271.641 38.6753C275.25 37.7883 278.502 37.539 281.654 37.4826C283.528 37.4545 285.863 36.7299 287.634 37.2091C288.379 37.4077 288.646 38.9331 289.64 37.8197C289.641 38.2298 289.642 38.6399 289.643 39.05C290.128 38.7735 290.523 38.3489 290.957 38.0281C291.807 37.8131 292.843 37.7453 294.029 38.0823C295.228 38.38 297.262 39.4543 298.472 40.6726C299.728 41.8786 300.383 42.9901 300.637 43.5352C300.889 44.1025 300.113 44.2968 300.37 44.7444C300.816 45.4941 302.45 46.5834 302.73 47.2751C302.738 47.2961 302.746 47.3175 302.753 47.3393C303.095 48.2764 302.791 49.9428 303.088 50.5322C304.222 52.7373 305.973 55.1175 305.892 57.5786C305.869 58.2564 304.953 59.191 304.996 59.3818C305.085 59.7686 306.055 59.8157 306.198 60.0774C306.925 61.4052 305.849 63.5396 305.809 64.8012C305.696 68.9526 305.87 73.2078 305.375 77.105C305.068 79.57 304.831 83.6256 303.868 85.7624C303.66 86.2242 302.623 85.9828 302.58 86.383C302.532 86.8266 303.215 87.1442 303.25 87.3578C303.495 88.8388 303.86 92.0642 302.988 93.3175C302.82 93.5566 301.977 93.6503 301.963 93.8028C301.955 93.8797 302.497 94.1156 302.528 94.364C302.664 95.4397 302.614 96.3519 302.482 97.2404C302.31 98.4626 301.993 99.6901 301.499 101.184C300.658 104.255 298.076 108.816 295.398 110.938C293.345 112.793 290.705 114.312 287.956 114.879C286.54 115.176 285.332 113.704 285.171 113.753C284.792 113.85 284.713 114.988 283.893 115.35C281.077 116.579 277.483 114.96 275.068 114.823C273.844 114.78 271.779 115.537 270.5 115.318C269.548 115.18 267.871 113.815 267.059 113.812L267.503 114.056C267.441 114.06 267.385 114.074 267.335 114.096C266.906 114.291 266.217 115.275 265.804 115.216ZM286.918 98.7749C288.425 99.949 287.368 98.6897 286.422 98.2632C286.222 98.1488 286.536 98.4605 286.918 98.7749ZM289.637 49.3046C289.636 49.849 289.636 50.3934 289.635 50.9378C289.809 50.7154 289.984 50.4932 290.162 50.2713C290.074 49.9417 289.986 49.6121 289.898 49.2827C289.811 49.2899 289.724 49.2973 289.637 49.3046Z" fill="black"/>
</svg>
