<svg width="390" height="390" viewBox="0 0 390 390" fill="none" xmlns="http://www.w3.org/2000/svg">
<path d="M196.028 121.206L291.983 20.8193L369 80.6943L260.031 194.695L363.375 313.355L283.41 370L192.377 265.475L98.0156 364.195L21 304.319L128.374 191.985L27.0508 75.6445L107.016 19L196.028 121.206Z" fill="#9D2200"/>
<path d="M155.406 54.7982C156.749 56.1027 157.843 58.6423 159.255 60.3312C165.163 67.4119 166.966 70.372 172.195 76.8803C179.947 86.5311 204.892 113.486 200.475 117.333C200.475 117.333 200.475 117.333 200.475 117.333C200.432 117.371 200.385 117.407 200.336 117.44C199.41 118.076 196.441 116.521 195.185 117.001C193.93 117.481 188.011 123.095 184.753 120.052C180.075 115.6 171.521 102.596 169.199 100.07C167.611 98.3443 165.157 96.6542 163.089 94.4799C156.421 87.4692 153.507 83.2993 146.27 78.0539C144.782 74.7305 143.294 71.4072 141.806 68.0838C138.451 64.9794 134.982 58.8663 133.11 56.8347C131.575 55.1681 130.07 54.7178 128.49 52.9631C126.715 50.9981 124.727 47.3369 121.46 43.7943C116.109 37.9838 113.536 38.3611 110.215 34.9708C107.595 32.2957 104.583 27.8686 101.223 24.0446L111.456 25.2678C110.154 26.1985 108.908 27.1694 107.791 28.1863C107.289 28.8372 106.786 29.4881 106.284 30.1389C107.058 30.2575 107.832 30.376 108.607 30.4946C106.176 32.5265 104.424 32.4011 102.044 34.0617C99.2446 36.0151 98.4348 37.8848 96.5575 39.2086C95.0191 40.2924 92.4469 41.0752 90.4865 42.529C87.626 44.6449 88.9685 45.1944 87.5389 46.4878C86.9671 47.0019 75.8349 55.7157 75.1904 56.1841C70.2743 59.7257 68.8751 58.6631 64.848 61.3361C53.8134 68.6686 43.4856 77.5997 33.7678 85.1269L35.8137 68.0128C35.9139 68.1184 36.0139 68.2239 36.1138 68.3295C39.9213 72.3527 43.6405 76.7714 47.0627 81.109C38.1196 77.3712 48.2359 94.0695 48.5724 84.2366C51.8848 89.4938 56.1103 91.5869 59.7022 96.1776C62.024 99.1478 63.0334 101.724 66.5824 105.762C72.8841 112.922 81.7313 119.053 79.9276 124.262C87.9172 132.153 92.9787 140.605 98.812 140.876C100.903 142.884 103.867 150.116 105.736 152.782C107.505 155.303 122.083 173.77 124.56 176.711C127.037 179.651 131.405 184.771 133.811 186.97C133.863 187.018 133.916 187.065 133.97 187.111L138.411 192.385L133.739 197.113C131.424 200.374 132.434 205.307 123.882 206.977C118.363 213.35 116.184 215.418 110.343 220.668C109.285 221.619 108.625 221.21 108.052 221.808C106.873 223.041 105.273 225.528 103.218 227.777C99.8382 231.476 96.7072 232.437 98.8583 233.721C96.8725 236.391 94.8867 239.061 92.9009 241.731C91.7597 242.243 90.6186 242.755 89.4774 243.267C88.6287 244.898 87.7801 246.529 86.9314 248.16C85.8098 244.22 78.731 254.643 82.9846 253.128C78.033 257.25 73.0812 261.373 68.1296 265.495C65.8436 262.074 58.0825 275.335 60.5307 275.934C60.0223 276.462 59.5139 276.989 59.0054 277.516C53.8028 281.414 50.3649 286.275 44.446 291.43C38.5275 296.585 38.7518 295.784 35.7741 296.226C34.5798 297.629 33.3854 299.031 32.191 300.434C30.5367 306.196 28.2314 306.583 25.0588 308.199L24.4462 299.887C26.0256 302.334 28.4825 305.275 35.4263 308.459C37.6412 314.213 48.9429 320.882 56.3484 325.417C57.21 325.945 57.6028 325.467 58.7756 326.138C61.6382 327.783 67.7378 333.531 68.7357 331.783C70.662 334.011 72.5883 336.239 74.5146 338.467C76.6007 339.63 78.6869 340.793 80.7731 341.955C81.1455 341.457 81.5178 340.959 81.8902 340.46C84.3419 345.052 90.7391 348.993 93.3371 351.655C93.8528 352.186 93.4512 352.961 95.107 354.545C96.5682 355.947 99.2542 357.916 101.49 359.727L93.9241 360.284C94.5786 359.627 95.212 359.014 95.7942 358.499C95.9598 356.95 96.1254 355.401 96.291 353.852C99.8407 349.392 103.033 349.684 105.477 347.409C105.917 346.998 113.352 338.958 113.721 338.494C116.752 334.709 114.261 334.222 124.244 324.44C126.023 322.699 127.948 321.755 129.523 320.151C132.306 317.316 139.363 307.506 138.893 305.754C143.624 303.612 151.957 293.747 154.986 291.389C155.902 290.68 156.974 291.347 159.598 288.983C161.726 287.067 166.092 281.067 168.713 278.564C171.5 275.91 173.199 275.635 174.442 274.44C175.615 273.311 176.046 271.648 177.582 270.048C180.945 266.559 184.555 263.748 187.721 261.025L192.757 255.929L197.233 261.245C198.271 262.701 199.3 264.075 200.371 265.317C205.538 271.309 212 274.95 217.178 279.219C218.136 280.564 218.795 282.131 219.922 283.433C233.86 299.555 249.304 317.984 262.941 334.452C269.274 342.095 282.941 362.915 282.853 354.258C284.084 355.058 287.286 358.951 290.852 363.518L277.706 361.947C284.772 357.49 293.308 352.421 295.618 350.81C299.528 348.081 302.03 345.074 305.079 342.896C314.283 336.323 321.202 332.312 331.928 323.638C334.697 321.396 337.116 318.219 338.842 317.014C340.923 315.564 343.817 314.928 346.541 313.089C349.491 311.091 353.519 308.192 357.621 305.232L355.868 319.894C351.846 315.357 347.726 310.723 345.118 307.563C344.247 306.502 344.695 305.473 343.645 303.786C339.56 297.211 333.854 290.823 332.409 294.091C327.363 285.499 320.149 279.768 314.111 272.991C301.349 258.657 278.961 231.801 266.956 220.087C259.743 213.05 258.57 213.768 250.476 203.017L242.894 194.013L250.872 185.94C251.365 185.492 251.886 185.024 252.435 184.535C255.016 182.237 257.657 180.017 260.784 177.225C268.115 170.684 276.262 166.041 279.085 158.412C287.207 151.128 292.763 144.454 300.338 140.529C300.516 139.384 300.695 138.238 300.873 137.092C301.783 136.117 302.692 135.141 303.602 134.166C304.346 134.302 305.091 134.438 305.835 134.574C312.56 127.785 319.057 117.228 324.659 111.395C332.411 103.319 350.71 85.1773 362.203 74.1969L363.229 88.1181C360.674 85.9396 358.469 84.0306 356.79 82.5372C351.679 77.9901 350.558 78.8335 349.181 74.2378C347.857 73.4536 346.533 72.6694 345.209 71.8852C344.081 71.7798 342.952 71.6745 341.824 71.5692C334.895 66.2134 327.276 59.0909 320.683 53.9781C311.149 46.5856 297.183 37.0696 286.138 28.3386L298.868 27.4003C296.317 30.0269 293.838 32.4624 291.496 34.5831C288.651 37.1583 284.436 39.7488 281.856 42.4683C278.101 46.4255 278.692 48.825 273.936 53.8566C265.738 62.5259 248.632 76.9154 240.973 85.1961C238.697 87.6546 238.178 89.3206 236.64 91.0498C230.196 98.3068 224.648 104.019 219.089 111.571C210.744 117.408 209.475 115.002 205.456 115.441C202.415 115.779 194.155 117.832 192.206 117.381C190.836 117.064 191.562 114.054 189.906 113.861C197.405 104.479 201.723 101.653 209.789 95.9242C222.131 82.9037 234.474 69.8833 246.816 56.8628C248.469 56.1848 250.122 55.5067 251.775 54.8286C251.776 54.8297 251.777 54.8308 251.778 54.8319C257.145 50.4306 257.81 47.0273 260.071 44.0479C266.461 35.6249 275.384 25.4676 285.491 14.6138L290.894 8.77028L297.496 13.729C323.009 33.0353 352.307 57.4962 373.647 74.7168L380.251 79.6772L374.473 85.926C372.422 87.9952 370.462 89.9833 368.608 91.8779C362.706 97.911 344.445 118.432 339.591 121.803C338.333 122.674 337.236 122.202 336.098 123.321C326.733 134.082 317.368 144.844 308.003 155.605C293.186 169.371 279.134 184.52 265.217 199.653L265.441 189.984C271.67 196.863 277.899 203.716 283.993 210.586C312.815 243.079 341.517 275.363 369.97 307.611L376.343 314.688L368.431 320.492C341.813 339.606 315.231 358.578 288.613 377.345L282.17 382.072L276.622 375.912C274.454 373.411 272.288 370.91 270.124 368.408C260.19 356.921 246.901 342.939 237.545 331.373C233.639 326.546 233.297 323.416 226.933 318.149C227.242 317.766 227.551 317.384 227.86 317.001C222.748 312.021 218.931 309.317 213.608 303.376C209.128 298.373 197.404 285.021 193.646 280.424C191.694 278.042 193.13 278.312 191.242 276.151C190.04 274.779 188.204 272.938 186.142 270.905L198.354 271.188C195.243 274.979 191.64 279.465 188.695 282.546C184.451 286.986 176.543 293.75 173.39 297.267C162.028 309.93 150.347 324.388 137.526 337.202C133.983 340.739 128.685 344.582 127.626 345.738C125.559 347.999 125.753 349.446 124.438 351.035C119.528 356.96 111.621 364.381 104.95 370.824L99.1793 377.066L92.1277 371.769C89.5684 369.609 87.1526 367.597 85.0165 365.918C62.331 348.089 38.1674 329.748 15.1684 311.82L6.88179 305.596L14.1318 297.754C17.2917 294.457 20.4386 291.187 23.568 287.954C38.1683 272.87 62.128 247.513 76.14 234.095C79.1618 231.202 79.295 232.87 81.7199 230.334C84.4084 227.521 85.2544 225.414 86.4614 224.052C94.7864 214.654 113.276 194.081 122.145 186.031L121.876 197.645C121.852 197.614 121.829 197.583 121.806 197.552C120.444 195.736 120.104 193.855 119.211 192.835C118.761 192.318 117.239 191.588 115.773 190.009C102.829 176.067 94.0179 165.356 81.954 151.155C63.1953 129.08 41.1528 104.917 20.6209 81.2444L14.4083 74.3455L22.1221 68.6868C28.0601 64.4987 33.9636 60.3888 39.7948 56.4134C46.544 51.8116 52.2337 50.1541 53.1596 49.4743C55.1936 47.9856 55.7573 45.9903 59.7366 42.7773C72.0058 32.8852 89.6153 21.7863 102.313 12.362L108.136 8.09018L113.15 13.6575C113.991 14.5807 114.818 15.4745 115.63 16.334C121.11 22.1367 129.554 29.3153 134.985 34.9934C139.322 39.5283 148.555 51.1177 150.927 52.7361C152.368 53.7228 153.944 53.3875 155.406 54.7982ZM69.5238 110.794C67.0922 111.431 76.2111 119.052 74.2311 114.938C73.7851 114.011 70.1541 110.628 69.5238 110.794ZM235.68 307.53C236.094 307.027 236.508 306.523 236.923 306.02C235.709 305.034 234.496 304.048 233.282 303.062C233.559 303.969 233.836 304.876 234.113 305.783C234.635 306.365 235.157 306.948 235.68 307.53Z" fill="black"/>
<path d="M217.457 84.528C217.4 84.3488 218.153 84.7546 218.264 84.6843C218.73 84.4001 219.304 84.6079 219.883 84.38C220.716 84.0768 221.467 81.119 226.216 84.5519C226.216 84.552 226.216 84.5521 226.217 84.5522C226.263 84.5857 226.31 84.6199 226.357 84.6548C227.256 85.3162 228.107 86.2187 229.113 86.9824C230.118 87.7462 236.744 92.4914 236.929 93.0189C237.147 93.7501 234.784 93.4612 234.706 93.7279C234.654 93.9103 235.127 94.5211 235.096 94.7886C234.99 95.6577 234.311 95.6681 235.449 97.4948C234.419 97.0952 233.398 96.68 232.388 96.2477C232.492 96.6568 231.854 96.5856 231.417 96.5602C231.214 96.5468 231.05 96.549 231.026 96.6166C230.963 96.7942 231.547 97.4057 231.46 97.5721C231.366 97.7632 230.47 97.4269 230.341 97.7946C230.13 98.392 231.741 99.876 231.726 100.327C231.709 100.796 230.433 100.468 230.726 101.318C230.873 101.517 231.02 101.717 231.167 101.916C231.611 102.233 232.056 102.55 232.5 102.867C232.544 103.209 231.624 102.571 231.472 102.721C231.291 102.9 232.022 103.674 231.909 103.802C231.817 103.904 231.044 103.507 230.971 103.677C230.861 103.923 231.835 104.667 231.923 104.919C231.955 105.019 231.815 106.244 231.785 106.296C231.54 106.666 230.226 105.624 229.887 105.804C229.005 106.275 229.319 107.763 229.204 108.79L229.26 108.721C229.256 108.779 229.25 108.835 229.242 108.889C229.181 109.33 228.861 109.574 228.42 109.699C225.432 106.563 221.985 105.54 227.562 109.307C226.559 109.038 227.79 110.405 227.31 110.525C226.996 110.604 226.15 110.177 225.949 110.48C225.582 111.042 227.286 113.181 223.338 110.477C223.552 111.603 221.749 111.136 225.017 113.821C225.114 114.127 222.771 113.082 222.363 113.068C221.984 113.041 220.108 113.751 219.913 113.93C219.707 114.119 219.383 114.477 219.566 114.869C219.787 115.364 223.338 117.927 218.784 115.537C218.804 116.262 218.578 116.34 217.773 116.493C217.628 116.52 216.983 116.119 216.95 116.168C216.885 116.271 217.248 116.745 217.193 116.96C217.101 117.315 215.635 116.644 217.724 117.908C217.947 118.324 218.172 118.736 218.4 119.144C217.958 118.963 217.517 118.78 217.071 118.605C217.441 118.983 217.812 119.36 218.184 119.735C215.25 117.76 216.569 119.599 218.448 120.413C217.598 120.401 216.725 120.432 215.871 120.435C212.462 118.31 214.947 121.077 216.876 122.106C216.847 122.149 216.818 122.192 216.789 122.235C215.63 122.096 216.174 122.892 215.258 123.036C214.346 123.173 214.039 122.922 212.358 122.137C212.377 122.312 212.397 122.487 212.418 122.66C216.404 125.866 208.94 121.271 211.604 124.374C208.678 123.062 209.572 124.798 209.938 125.976C209.979 126.115 210.489 126.464 210.575 126.676C210.787 127.183 209.642 127.4 211.24 128.585C210.595 128.483 209.913 128.415 209.259 128.293C209.362 128.731 209.408 129.225 209.434 129.719C209.883 130.15 210.332 130.581 210.78 131.011C208.75 130.085 208.273 131.56 207.163 131.627C206.959 131.628 206.493 130.918 205.947 130.937C205.308 130.973 204.203 131.633 203.325 131.465C203.147 132.45 202.85 133.432 202.445 134.391C200.421 134.887 200.344 132.195 199.747 131.847C199.733 131.838 199.683 131.823 199.609 131.802C199.351 131.742 198.471 131.589 198.409 131.612C197.804 131.833 197.127 133.893 195.929 132.87C195.724 132.687 195.85 131.93 195.658 131.805C195.33 131.597 193.497 132.529 192.645 133.824C193.129 131.885 191.627 131.913 191.606 131.231C191.603 131.024 192.242 129.968 192.106 129.566C192.004 129.246 190.871 129.676 190.685 129.341C190.489 128.982 190.994 128.065 190.912 127.915C190.834 127.773 190.226 128.366 190.062 128.238C189.56 127.825 189.952 126.413 189.598 126.089C189.09 125.622 186.995 127.087 185.77 127.461C185.76 127.235 186.009 126.74 185.893 126.625C184.457 125.187 183.247 123.194 182.444 121.304C182.021 120.4 183.547 116.678 179.245 120.334C178.21 120.597 178.807 117.291 178.649 116.899C178.454 116.488 177.395 116.648 177.207 116.326C176.908 115.808 176.859 115.275 176.675 114.76C176.549 114.455 176.409 114.176 176.141 113.397C176.024 112.926 175.78 112.678 175.636 110.659C175.622 110.217 175.602 109.259 175.917 108.004C176.119 107.207 176.469 106.237 177.136 105.201C177.894 103.992 179.258 102.663 180.8 101.906C184.138 100.338 186.306 100.959 187.457 101.202C188.535 101.489 189.175 101.822 189.597 102.043C191.22 102.973 191.438 103.32 191.875 103.677C192.247 104.015 192.492 104.262 192.725 104.497C193.179 104.959 193.54 105.347 193.917 105.775C194.476 106.406 195.415 106.974 196.072 107.779C196.27 107.829 196.414 107.885 196.434 107.959C196.507 108.247 195.491 108.867 195.514 109.201C195.587 110.012 196.27 111.13 196.22 111.754C196.209 111.869 195.235 112.154 194.965 112.38C193.907 113.255 194.16 113.831 197.275 112.944C195.662 114.076 197.439 114.266 197.682 114.778C198.169 115.896 198.091 117.849 199.327 117.188C200.053 116.758 201.371 115.998 199.729 115.948C199.344 115.926 198.864 115.958 198.309 115.916C197.812 115.874 197.121 116.069 196.55 116.22C196.385 116.927 196.395 117.239 196.943 115.273C196.536 115.467 196.075 115.35 194.847 115.333C193.778 115.345 190.906 115.415 188.392 117.944C188.576 118.22 188.845 118.569 189.232 119.022C188.833 118.493 188.424 117.971 188.007 117.456C188.001 117.44 187.998 117.421 187.997 117.4C188.414 117.875 188.834 118.347 189.258 118.816C189.576 118.765 187.979 116.676 188.138 116.516C188.29 116.361 188.775 116.176 189.379 115.939C190.094 115.547 190.906 115.158 191.494 115.034C192.119 114.899 190.985 114.157 193.479 115.42C193.37 115.229 193.262 115.038 193.152 114.848C192.67 114.471 192.186 114.094 191.702 113.719C191.986 113.216 193.157 113.109 193.438 112.614C193.955 111.707 193.254 109.541 194.71 109.164C195.077 109.069 196.34 109.374 196.449 109.138C196.609 108.795 194.805 107.745 194.984 107.317C195.293 106.592 198.127 106.334 198.273 105.577C198.319 105.352 197.654 104.939 197.64 104.772C197.566 104.077 197.825 103.638 196.88 102.773C198.904 103.085 201.305 104.016 203.825 104.7C205.708 105.28 210.245 106.026 211.968 106.215C213.17 106.399 214.565 107.207 215.892 107.394C216.355 109.614 215.073 109.514 212.998 109.683C212.442 111.216 211.885 112.554 211.302 113.895C210.593 113.69 209.887 113.479 209.18 113.268C209.179 113.267 209.177 113.267 209.176 113.266C208.182 113.375 209.747 114.42 209.986 114.883C212.297 119.319 206.695 122.7 204.512 125.072C204.354 125.249 204.192 125.651 203.995 126.089C203.543 127.056 202.819 128.223 201.968 128.016C201.635 127.934 200.756 127.239 200.62 127.322C200.218 128.786 199.696 130.304 198.521 131.984C198.454 132.037 198.387 132.09 198.319 132.141C195.727 133.612 193.62 133.298 192.543 133.082C191.399 132.821 190.771 132.497 190.233 132.236C189.2 131.704 188.577 131.308 188.022 131.037C184.879 129.265 183.227 127.253 182.178 125.568C179.349 120.54 178.38 116.342 177.314 114.101C177.635 115.032 177.805 115.378 178.406 116.175C178.592 116.397 178.754 116.625 179.36 117.158C179.762 117.45 179.921 117.792 181.747 118.601C182.645 118.758 184.701 120.404 189.577 117.997C190.628 117.382 191.547 116.522 192.193 115.648C192.831 114.777 193.115 114.158 193.376 113.497C193.877 112.092 193.876 111.566 193.94 110.908C193.95 110.757 193.956 110.611 193.958 110.48C193.959 110.376 193.959 110.276 193.958 110.181C193.954 109.991 193.945 109.818 193.933 109.66C193.921 109.503 193.904 109.35 193.889 109.231C193.876 109.124 193.861 109.025 193.846 108.933C193.816 108.747 193.783 108.585 193.752 108.444C193.726 108.326 193.7 108.221 193.675 108.124C193.57 107.734 193.501 107.547 193.449 107.4C193.337 107.098 193.287 106.991 193.246 106.895C193.735 107.789 194.249 108.673 194.777 109.579C195.186 110.284 196.454 110.559 196.548 111.493C196.587 111.881 195.353 113.201 196.646 112.626C196.295 112.96 195.944 113.293 195.593 113.627C196.303 113.53 197.263 112.937 197.646 113.156C197.966 113.347 198.711 113.928 198.836 114.271C198.901 114.447 198.271 115.1 198.396 115.199C198.624 115.371 199.842 114.74 200.116 114.942C200.362 115.127 200.21 116.293 200.507 116.307C201.57 116.369 203.062 115.431 203.485 116.072C203.603 116.255 203.379 117.43 203.451 117.423C203.583 117.401 204.011 116.342 204.113 116.224C204.26 116.057 204.353 116.042 204.408 116.106C203.744 115.958 202.612 115.967 201.456 116.294C200.309 116.611 199.443 117.185 198.948 117.477C197.796 118.186 197.687 118.504 197.673 118.455C197.685 118.415 197.86 118.121 198.064 117.741C198.481 116.973 199.04 115.892 199.74 114.911C200.625 113.665 201.838 111.22 203.375 110.372C203.708 110.186 204.725 110.917 204.866 110.689C205.023 110.436 204.395 109.849 204.414 109.691C204.528 108.601 205.019 106.274 206.264 105.973C206.501 105.917 207.386 106.355 207.443 106.265C207.473 106.22 206.988 105.745 207.028 105.563C207.37 103.984 208.326 103.298 209.376 102.235C211.027 100.561 211.999 97.9962 213.66 96.0953C213.666 96.0835 213.696 96.0561 213.702 96.0443C214.039 95.6653 214.402 95.3175 214.804 95.0152C215.308 94.6338 217.067 95.5467 217.108 95.467C217.197 95.2978 216.274 94.371 216.269 93.8732C216.271 92.2143 218.437 91.7902 218.703 90.4559C218.834 89.7979 218.081 88.12 218.152 87.4614C218.193 87.0867 218.787 86.7879 218.945 86.4513C219.01 86.3129 219.006 86.1666 218.873 85.9974C218.596 85.6416 217.523 84.728 217.457 84.528ZM224.844 110.138C223.095 108.716 224.094 110.5 225.245 110.981C225.503 111.09 225.296 110.508 224.844 110.138ZM186.847 122.014C186.384 122.461 185.923 122.909 185.461 123.357C185.751 123.274 186.04 123.19 186.327 123.102C186.553 122.779 186.78 122.457 187.009 122.136C186.955 122.096 186.901 122.055 186.847 122.014Z" fill="black"/>
</svg>
