<svg width="390" height="390" viewBox="0 0 390 390" fill="none" xmlns="http://www.w3.org/2000/svg">
<circle cx="195" cy="195" r="161" fill="#FF9AA9"/>
<path d="M367.491 140.112C368.136 141.344 367.449 143.539 367.822 145.082C369.342 151.591 369.02 154.187 369.724 160.141C371.28 168.824 374.46 195.127 365.072 195C365.072 195 365.072 195 365.072 195C364.983 195 364.894 194.998 364.803 194.993C363.09 194.896 361.202 192.804 359.253 192.535C357.303 192.268 344.786 192.635 344.004 190.031C343.037 186.275 345.369 176.757 344.875 174.667C344.588 173.267 343.208 171.715 342.708 169.968C341.08 164.391 341.203 161.164 336.905 156.966C337.95 154.558 338.938 152.102 339.862 149.593C338.33 147.184 338.968 142.537 338.238 140.97C337.652 139.699 336.155 139.413 335.564 138.108C334.895 136.655 335.215 133.809 333.786 131.207C331.427 126.956 327.999 127.728 326.32 125.436C324.577 123.072 323.885 118.172 320.858 115.621C320.294 115.422 319.73 115.227 319.166 115.036C318.643 115.771 318.117 116.502 317.586 117.228C316.27 115.892 317.27 114.291 316.337 112.855C315.234 111.167 313.312 111.275 312.539 110.19C311.907 109.302 312.069 107.325 311.129 106.233C309.763 104.646 308.557 106.173 307.595 105.524C307.248 105.217 301.203 99.6965 300.853 99.4163C298.464 96.9101 300.115 94.9225 298.297 92.7437C293.207 86.714 285.68 83.0439 279.495 79.5023C276.724 77.9065 274.084 75.924 271.623 73.8764C279.554 71.0868 272.472 60.5796 270.726 71.655C268.429 68.5263 264.823 69.6836 262.104 67.7061C260.331 66.4286 259.618 64.4497 256.76 63.141C251.616 60.7863 244.627 62.5002 245.6 55.0445C238.953 54.0049 233.999 49.9394 230.129 55.6659C228.463 55.6389 225.095 50.9202 223.284 50.0511C221.678 49.0591 207.945 45.4599 205.59 45.3763C203.274 45.1039 199.235 44.8388 197.269 45.3917C196.471 45.6082 195.747 46.4634 195 47.2552C193.418 48.9129 191.853 50.2737 188.725 45.0689C183.678 45.9453 181.922 45.8701 177.101 45.4892C176.23 45.4266 175.988 44.2801 175.486 44.3426C174.449 44.475 172.833 45.5671 171.024 45.9635C168.061 46.6138 165.901 44.5466 166.934 48.1696C165.115 49.1561 163.308 50.1808 161.547 51.2354C160.715 50.6838 159.876 50.1391 159.028 49.6013C158.19 50.6215 157.368 51.6498 156.563 52.685C156.343 47.0815 149.988 52.2445 153.223 54.5567C149.3 54.5485 145.333 54.7054 141.333 55.0357C139.593 49.0213 133.127 57.6198 135.298 60.395C134.901 60.5663 134.504 60.7393 134.108 60.914C129.965 61.0031 127.406 63.7606 122.82 65.0437C118.211 66.3819 118.302 65.6875 115.584 63.9957C114.701 64.7227 113.828 65.4582 112.965 66.202C112.415 75.9104 105.501 64.0851 100.909 75.0981C95.2985 73.2215 90.6178 80.582 87.9379 85.3551C87.6169 85.9108 88.275 86.5956 87.9031 87.3778C86.9776 89.2561 82.6067 92.1304 84.9969 94.0823C83.1723 94.7582 81.3497 95.4763 79.5297 96.2382C79.0163 97.6949 78.5282 99.1535 78.0668 100.611C78.8157 101.207 79.5644 101.803 80.3131 102.399C75.9822 102.543 74.2487 106.942 72.3548 108.293C71.9711 108.563 70.8345 107.876 69.7456 108.817C68.4618 109.915 67.1169 112.656 65.7417 114.085C66.5789 115.502 67.4321 116.905 68.3015 118.291C67.2526 121.568 63.3323 120.694 62.08 122.339C61.8254 122.619 59.02 128.655 58.9704 129.029C58.3229 131.972 61.5084 132.539 57.6927 139.897C57.0265 141.215 55.5337 141.928 55.0207 143.179C54.0603 145.387 54.336 152.988 56.5219 154.145C52.8127 155.98 52.1864 163.691 50.9527 165.708C50.5622 166.316 48.6581 166.089 47.877 168.096C47.228 169.734 48.0528 174.317 47.5523 176.415C46.9982 178.651 45.3334 179.326 45.1187 180.344C44.9205 181.312 46.1241 182.323 46.0166 183.646C45.6607 187.786 43.4763 191.47 43.434 194.846C43.4333 194.898 43.4331 194.949 43.4333 195C43.4571 199.815 47.4194 203.82 49.4108 207.487C49.2454 208.467 48.518 209.483 48.6168 210.502C49.755 223.055 52.4214 237.092 56.3746 249.277C57.9242 254.902 60.2514 270.627 66.0743 263.029C68.1555 264.137 72.8273 278.455 74.6556 280.764C76.2641 283.102 78.8555 283.944 80.2322 285.65C84.4183 290.767 86.7217 295.112 93.449 299.819C95.1965 301.024 98.0712 301.172 98.957 301.993C100.022 302.989 100.047 305.373 101.454 306.701C104.774 309.895 111.994 314.506 115.529 317.108C116.168 317.595 115.559 319.059 116.284 320.095C119.107 324.152 123.765 326.496 125.351 321.686C129.012 326.928 135.032 326.933 139.911 328.773C150.138 333.041 169.856 338.979 179.768 337.579C185.95 336.812 185.809 334.683 194.61 336.751C194.74 336.78 194.87 336.808 195 336.838C196.849 337.254 198.724 337.758 200.983 338.143C206.598 339.121 212.472 342.643 216.063 337.088C222.512 337.433 227.144 335.47 232.819 338.382C233.108 337.251 233.384 336.121 233.648 334.99C234.391 334.76 235.131 334.523 235.868 334.281C236.374 335.146 236.884 336.01 237.398 336.871C242.987 335.505 248.279 329.254 252.51 327.414C259.858 324.685 278.132 315.639 284.8 311.686C288.43 309.74 287.226 307.995 291.776 309.778C292.287 308.956 292.789 308.132 293.281 307.305C293.094 306.223 292.897 305.145 292.69 304.072C296.495 300.632 301.861 297.306 305.158 293.581C311.308 286.833 317.029 274.477 322.806 267.502C324.292 265.761 327.343 264.161 328.337 262.133C329.773 259.178 327.225 257.104 328.808 253.386C331.612 247.098 339.283 235.716 340.424 228.936C340.796 226.959 339.819 225.79 339.967 224.424C340.552 218.7 341.321 213.992 339.99 208.39C343.538 202.829 347.398 203.445 351.503 201.724C354.602 200.445 361.686 195.836 364.318 195.085C366.179 194.585 368.565 196.454 370.615 195.763C372.156 204.227 370.067 207.835 366.515 214.201C365.262 226.566 362.664 238.816 358.763 250.649C357.341 251.363 355.915 252.051 354.487 252.714C354.484 252.713 354.482 252.712 354.48 252.711C351.665 256.656 353.57 259.525 353.173 262.157C350.59 288.436 314.432 325.682 290.72 338.469C285.984 341.819 269.845 352.262 265.314 352.007C264.174 351.999 263.22 350.537 262.193 350.9C253.685 355.689 244.678 359.776 235.297 363.07C221.904 364.463 208.576 366.39 195 366.956C187.936 367.25 180.891 367.175 173.909 366.467C118.622 361.291 66.8285 327.087 41.1454 278.046C36.0977 268.704 29.6476 256.581 27.4424 246.265C26.5188 241.97 28.6902 239.547 25.3754 234.522C26.088 234.295 26.8008 234.069 27.5138 233.843C25.5497 229.25 23.2699 226.462 22.2498 220.935C21.2966 216.337 20.1378 203.853 20.4301 199.719C20.5227 197.559 21.9301 198.338 21.9009 196.341C21.8952 195.943 21.8649 195.493 21.8169 195C21.4305 191.255 20.1556 185.002 20.5177 180.778C20.8267 176.475 23.3516 169.481 23.6958 166.216C24.7981 154.443 25.9922 141.021 31.4103 129.302C32.8883 126.069 36.4058 122.664 36.8239 121.666C37.6325 119.685 36.3362 118.348 36.7787 116.936C38.9879 109.719 46.705 100.778 50.923 94.9971C64.4562 75.853 82.3407 57.8341 102.494 45.7854C114.953 37.8112 137.766 27.9228 151.393 26.1746C154.294 25.7348 153.992 27.7914 156.352 27.2383C158.968 26.6407 160.151 25.0837 161.369 24.7351C168.998 22.3582 185.708 19.4657 195 20.4538C195.942 20.5337 196.803 20.641 197.567 20.7742C199.152 21.0525 200.247 22.5928 201.18 22.6198C201.653 22.6368 202.76 21.6477 204.264 21.6215C217.56 21.4776 227.2 23.6163 239.666 27.2037C263.474 33.9757 290.602 46.0168 309.589 64.3098C313.742 68.2582 314.394 73.1403 314.968 73.6565C316.23 74.8295 318.447 74.1897 321.248 76.4337C330.666 83.9078 338.528 98.0784 344.932 107.268C348.181 111.773 353.988 117.48 356.777 122.38C359.115 126.258 361.903 136.465 363.523 138C364.546 138.926 366.783 138.787 367.491 140.112ZM254.392 60.2256C256.402 57.2913 248.81 57.2331 250.528 59.9634C250.903 60.5618 253.869 60.9705 254.392 60.2256ZM45.4025 228.443C46.354 228.164 47.306 227.885 48.2582 227.608C47.6554 226.79 47.0581 225.955 46.4699 225.121C45.9901 225.751 45.516 226.396 45.045 227.041C45.162 227.509 45.2812 227.977 45.4025 228.443Z" fill="black"/>
<path d="M179.023 78.0311C178.837 77.8845 179.842 77.6776 179.895 77.5047C180.128 76.7802 180.824 76.5118 181.22 75.8563C181.807 74.8845 180.485 72.0001 187.469 72C187.469 72 187.469 72 187.47 72C187.538 72 187.607 72.0003 187.677 72.0008C189.008 72.011 190.46 72.2563 191.965 72.2927C193.47 72.329 203.187 72.3018 203.734 72.6502C204.454 73.1554 201.962 74.3674 202.072 74.6369C202.148 74.8211 203.032 75.0479 203.189 75.2834C203.694 76.0429 203.048 76.4403 205.448 77.1246C204.183 77.3983 202.919 77.672 201.654 77.9457C202.241 78.3028 200.573 78.8441 200.665 79.061C200.74 79.239 201.74 79.3433 201.787 79.5288C201.844 79.7369 200.765 80.0564 200.928 80.4349C201.189 81.0553 203.798 81.1657 204.129 81.538C204.472 81.924 203.054 82.5243 203.972 83.0169C204.259 83.0787 204.546 83.1405 204.833 83.2023C205.482 83.158 206.131 83.1137 206.78 83.0695C207.082 83.3176 205.752 83.4243 205.728 83.6522C205.699 83.9205 206.96 84.0573 206.954 84.2378C206.948 84.3857 205.937 84.5861 206 84.7779C206.088 85.0574 207.547 84.9962 207.821 85.1467C207.927 85.2067 208.732 86.3162 208.744 86.3788C208.801 86.8549 206.803 86.8963 206.629 87.2759C206.152 88.3288 207.767 89.4096 208.377 90.3835C208.65 90.8184 208.534 91.2721 208.214 91.7057C203.1 91.0227 199.12 92.5342 207.122 91.9689C205.984 92.4514 208.144 92.7935 207.779 93.2508C207.541 93.5466 206.431 93.7514 206.46 94.1738C206.519 94.9233 209.673 95.7431 203.972 95.9586C204.977 96.8385 202.909 97.6005 207.942 97.9176C208.249 98.1445 205.252 98.7259 204.844 98.9803C204.461 99.221 203.107 101.067 203.032 101.37C202.956 101.672 202.874 102.2 203.316 102.455C203.862 102.774 209.081 102.998 202.979 103.567C203.473 104.228 203.298 104.464 202.589 105.08C202.461 105.191 201.555 105.204 201.554 105.269C201.554 105.403 202.223 105.631 202.305 105.87C202.439 106.264 200.533 106.488 203.444 106.445C203.932 106.704 204.42 106.963 204.909 107.223C204.347 107.314 203.785 107.405 203.223 107.496C203.835 107.635 204.448 107.773 205.06 107.912C200.847 107.749 203.333 108.726 205.751 108.409C204.879 108.912 204.007 109.415 203.136 109.918C198.347 109.847 202.583 111.022 205.187 110.923C205.183 110.981 205.179 111.038 205.175 111.096C203.903 111.6 204.944 112.062 204.089 112.677C203.235 113.291 202.769 113.233 200.566 113.42C200.692 113.564 200.819 113.709 200.945 113.853C206.983 114.612 196.529 114.478 201.16 115.776C197.365 116.191 199.359 117.214 200.51 117.892C200.643 117.971 201.38 117.972 201.607 118.077C202.153 118.334 201.206 118.99 203.582 118.967C202.895 119.194 202.207 119.421 201.52 119.648C201.952 119.834 202.384 120.019 202.816 120.205C203.558 120.204 204.299 120.203 205.041 120.202C202.513 120.575 203.485 121.162 202.88 121.452C202.758 121.509 201.735 121.522 201.456 121.701C201.124 121.91 201.427 122.3 201.107 122.55C202.241 122.647 203.374 122.744 204.508 122.841C205.122 123.287 202.131 123.443 201.898 123.705C201.858 123.752 202.073 124.613 202.137 124.659C202.643 125.039 205.192 124.931 204.646 126.029C204.547 126.224 203.665 126.382 203.63 126.559C203.566 126.871 205.566 127.812 207.414 127.885C205.101 128.264 206.046 129.277 205.378 129.575C205.172 129.665 203.699 129.685 203.386 129.962C203.13 130.187 204.309 130.764 204.112 131.049C203.897 131.351 202.659 131.459 202.572 131.594C202.491 131.722 203.49 131.84 203.484 132.014C203.449 132.558 201.841 133.05 201.811 133.48C201.765 134.102 204.723 134.651 206.036 135.171C205.845 135.3 205.21 135.427 205.204 135.563C205.111 137.237 204.566 139.126 203.932 140.806C203.641 141.585 199.626 143.524 206.326 143.007C207.499 143.278 204.798 145.248 204.757 145.622C204.717 145.997 205.918 146.294 205.936 146.589C205.988 147.477 205.123 148.103 206.169 149.185C206.442 149.464 207.866 149.763 207.849 149.929C207.826 150.128 206.449 150.343 206.362 150.601C206.164 151.216 206.617 152.363 206.379 152.953C206.332 153.061 205.124 153.099 204.746 153.253C203.27 153.854 203.398 154.527 207.257 154.407C205.066 155.177 207.064 155.889 207.187 156.602C207.437 158.11 206.536 160.856 208.157 162.17C209.18 162.998 210.911 162.977 209.418 164.197C209.086 164.467 208.64 164.737 208.244 165.065C207.315 165.835 204.117 166.541 207.97 167.127C206.971 167.982 207.679 168.663 204.385 169.297C205.175 169.372 205.965 169.446 206.755 169.521C206.775 169.626 206.794 169.731 206.814 169.836C206.06 169.868 205.307 169.901 204.553 169.934C204.35 170.684 207.448 171.637 207.425 172.272C207.39 173.338 206.187 176.082 205.17 177.092C204.63 177.628 206.244 177.657 202.926 177.964C203.157 178.084 203.387 178.204 203.618 178.324C204.345 178.399 205.071 178.474 205.798 178.549C205.827 179.237 204.698 180.053 204.71 180.709C204.733 181.903 206.733 183.697 205.42 184.897C205.088 185.197 203.59 185.573 203.607 185.868C203.63 186.297 206.117 186.401 206.163 186.945C206.239 187.882 203.35 189.628 203.571 190.514C203.635 190.778 204.56 190.9 204.659 191.082C205.083 191.844 205.008 192.47 206.437 193.201C204.055 193.985 200.979 193.918 197.876 194.161C195.533 194.345 190.105 194.91 188.054 194.99C186.613 195.047 184.759 194.836 183.172 194.915C181.905 193.975 183.3 193.58 185.532 192.817C185.443 191.407 185.354 189.998 185.265 188.588C186.131 188.46 186.997 188.331 187.863 188.203C187.865 188.203 187.867 188.203 187.868 188.203C188.868 187.662 186.638 187.432 186.132 187.14C181.285 184.345 185.078 178.844 185.624 175.767C185.741 175.104 184.574 172.947 185.98 172.492C186.346 172.374 187.682 172.341 187.74 172.216C186.946 171.096 186.152 169.976 185.358 168.857C187.432 166.554 185.719 164.174 185.399 161.854C184.533 155.577 183.481 149.362 183.8 143.188C183.864 141.995 182.864 140.481 183.509 139.313C183.777 138.825 185.921 138.622 184.323 137.981C184.9 137.975 185.478 137.968 186.056 137.961C185.358 137.402 184.044 137.045 183.91 136.418C183.8 135.891 183.714 134.495 183.935 134.028C184.045 133.786 185.125 133.877 185.119 133.651C185.102 133.265 183.609 132.44 183.609 131.908C183.609 131.425 184.853 130.611 184.673 130.24C184.033 128.904 182.19 127.449 182.684 126.025C182.824 125.632 184.224 125.126 184.185 125.003C184.103 124.762 182.744 124.69 182.569 124.529C181.685 123.708 183.301 122.428 183.365 121.623C183.574 119.001 182.981 116.223 183.231 113.613C183.388 111.963 183.149 109.222 184.171 107.699C184.392 107.371 185.882 107.458 185.882 107.183C185.881 106.877 184.875 106.711 184.794 106.568C184.224 105.579 183.207 103.396 184.236 102.462C184.433 102.284 185.6 102.155 185.596 102.049C185.596 101.995 184.8 101.873 184.718 101.704C183.997 100.21 184.462 99.1207 184.735 97.6567C185.252 94.8529 183.771 91.6041 184.572 88.6587C184.747 88.0169 187.055 87.5768 187.032 87.4866C186.986 87.2886 185.433 87.1618 185.049 86.7607C183.788 85.4272 185.445 83.6312 184.667 82.3628C184.283 81.7362 182.312 80.8751 181.876 80.2584C181.528 79.7659 182.301 78.6027 181.435 78.3844C180.912 78.2516 179.233 78.1902 179.023 78.0311ZM205.164 94.6237C202.479 94.536 204.71 95.4581 206.152 95.1122C206.476 95.0343 205.861 94.6464 205.164 94.6237ZM200.502 137.804C201.269 137.795 202.036 137.787 202.803 137.778C202.484 137.657 202.164 137.536 201.845 137.415C201.384 137.483 200.923 137.551 200.462 137.619C200.475 137.681 200.489 137.742 200.502 137.804Z" fill="black"/>
<path d="M268.067 181.215C268.178 181.031 268.305 182.04 268.43 182.096C268.952 182.341 269.131 183.042 269.599 183.449C270.294 184.053 272.429 182.783 272.261 189.764C272.261 189.764 272.261 189.765 272.261 189.765C272.259 189.833 272.257 189.902 272.255 189.972C272.216 191.302 272.002 192.75 271.939 194.254C271.876 195.758 271.662 205.473 271.395 206.013C271.009 206.724 270.185 204.211 269.986 204.317C269.85 204.39 269.664 205.269 269.488 205.422C268.922 205.914 268.648 205.261 268.091 207.648C267.922 206.379 267.753 205.11 267.584 203.841C267.309 204.421 266.955 202.744 266.794 202.832C266.663 202.904 266.563 203.902 266.426 203.945C266.273 204 266.066 202.915 265.786 203.071C265.328 203.321 265.184 205.927 264.905 206.252C264.615 206.588 264.212 205.16 263.83 206.069C263.778 206.355 263.726 206.64 263.674 206.926C263.691 207.576 263.708 208.225 263.724 208.875C263.536 209.173 263.49 207.841 263.325 207.813C263.13 207.779 263 209.037 262.868 209.029C262.761 209.02 262.639 208.006 262.497 208.066C262.292 208.148 262.301 209.608 262.185 209.879C262.138 209.984 261.31 210.77 261.264 210.78C260.916 210.829 260.933 208.831 260.661 208.65C259.905 208.155 259.078 209.75 258.353 210.343C258.029 210.608 257.701 210.484 257.393 210.157C258.014 205.057 257.008 201.051 257.227 209.061C256.903 207.914 256.601 210.068 256.277 209.695C256.067 209.451 255.944 208.339 255.635 208.36C255.088 208.406 254.414 211.544 254.394 205.842C253.728 206.831 253.222 204.75 252.87 209.776C252.697 210.079 252.345 207.072 252.17 206.66C252.003 206.273 250.69 204.887 250.471 204.806C250.253 204.726 249.869 204.634 249.673 205.071C249.427 205.612 249.138 210.825 248.87 204.715C248.376 205.197 248.208 205.018 247.777 204.299C247.699 204.168 247.711 203.262 247.664 203.261C247.566 203.258 247.384 203.923 247.207 204.001C246.917 204.128 246.799 202.218 246.761 205.13C246.56 205.613 246.359 206.096 246.158 206.58C246.105 206.017 246.052 205.453 246 204.89C245.884 205.5 245.768 206.109 245.652 206.719C245.872 202.51 245.1 204.978 245.273 207.401C244.928 206.521 244.582 205.64 244.236 204.76C244.403 199.974 243.444 204.188 243.453 206.793C243.412 206.788 243.37 206.783 243.328 206.779C242.991 205.497 242.629 206.53 242.201 205.665C241.774 204.8 241.827 204.335 241.744 202.13C241.636 202.253 241.528 202.377 241.419 202.501C240.721 208.524 241.07 198.075 240.012 202.682C239.801 198.881 239.007 200.856 238.485 201.995C238.424 202.127 238.405 202.863 238.323 203.088C238.123 203.63 237.668 202.672 237.627 205.048C237.478 204.356 237.329 203.665 237.18 202.974C237.034 203.402 236.889 203.831 236.743 204.26C236.726 205.001 236.709 205.743 236.692 206.484C236.48 203.951 236.029 204.911 235.832 204.302C235.793 204.179 235.809 203.156 235.685 202.873C235.54 202.539 235.249 202.834 235.074 202.511C234.976 203.642 234.878 204.773 234.78 205.905C234.44 206.511 234.398 203.518 234.213 203.281C234.179 203.24 233.547 203.439 233.511 203.502C233.222 204.002 233.239 206.552 232.452 205.987C232.312 205.884 232.218 205 232.09 204.961C231.864 204.892 231.13 206.875 231.032 208.721C230.812 206.402 230.05 207.33 229.849 206.656C229.788 206.449 229.809 204.976 229.615 204.658C229.457 204.398 229.008 205.567 228.805 205.365C228.59 205.145 228.541 203.906 228.444 203.816C228.353 203.732 228.243 204.729 228.116 204.72C227.72 204.676 227.4 203.059 227.087 203.022C226.635 202.965 226.163 205.912 225.753 207.216C225.663 207.022 225.586 206.385 225.487 206.377C224.269 206.255 222.904 205.677 221.695 205.014C221.134 204.709 219.817 200.661 220.033 207.368C219.807 208.536 218.435 205.801 218.163 205.754C217.891 205.707 217.645 206.903 217.43 206.915C216.781 206.952 216.346 206.076 215.532 207.102C215.321 207.371 215.069 208.788 214.949 208.769C214.804 208.742 214.681 207.362 214.494 207.27C214.051 207.062 213.203 207.495 212.779 207.246C212.701 207.198 212.703 205.989 212.599 205.608C212.197 204.122 211.703 204.239 211.697 208.098C211.189 205.895 210.622 207.88 210.099 207.99C208.993 208.213 207.012 207.264 206.016 208.862C205.387 209.87 205.361 211.601 204.508 210.086C204.318 209.751 204.132 209.299 203.903 208.898C203.364 207.955 202.926 204.747 202.406 208.588C201.806 207.574 201.293 208.27 200.91 204.965C200.836 205.754 200.763 206.543 200.689 207.331C200.612 207.349 200.536 207.367 200.459 207.385C200.453 206.631 200.447 205.877 200.442 205.122C199.899 204.906 199.13 207.987 198.667 207.953C197.891 207.899 195.92 206.648 195.207 205.613C194.829 205.064 194.769 206.677 194.625 203.355C194.532 203.583 194.439 203.812 194.346 204.041C194.274 204.766 194.202 205.491 194.13 206.216C193.627 206.233 193.059 205.09 192.581 205.09C191.71 205.092 190.354 207.06 189.511 205.726C189.299 205.39 189.061 203.885 188.846 203.897C188.533 203.912 188.397 206.396 187.999 206.433C187.314 206.492 186.11 203.574 185.459 203.779C185.265 203.839 185.154 204.761 185.019 204.857C184.453 205.268 183.998 205.181 183.431 206.598C182.916 204.202 183.04 201.128 182.937 198.022C182.86 195.677 182.578 190.24 182.569 188.188C182.563 186.746 182.761 184.896 182.742 183.309C183.457 182.059 183.712 183.46 184.215 185.705C185.245 185.641 186.275 185.576 187.305 185.512C187.377 186.38 187.45 187.248 187.523 188.116C187.523 188.118 187.522 188.12 187.522 188.122C187.893 189.13 188.114 186.905 188.339 186.404C190.494 181.608 194.414 185.497 196.644 186.097C197.125 186.225 198.726 185.096 199.024 186.51C199.101 186.878 199.093 188.214 199.183 188.274C200.018 187.5 200.854 186.726 201.689 185.952C203.318 188.066 205.095 186.395 206.794 186.116C211.392 185.361 215.949 184.418 220.443 184.846C221.311 184.931 222.439 183.957 223.276 184.623C223.625 184.899 223.721 187.046 224.227 185.459C224.218 186.037 224.209 186.615 224.2 187.192C224.624 186.505 224.916 185.197 225.376 185.075C225.764 184.973 226.784 184.912 227.118 185.141C227.292 185.256 227.2 186.333 227.365 186.332C227.647 186.321 228.284 184.844 228.673 184.853C229.024 184.862 229.588 186.119 229.863 185.945C230.852 185.33 231.958 183.513 232.984 184.031C233.267 184.178 233.603 185.586 233.693 185.549C233.871 185.472 233.956 184.114 234.078 183.942C234.698 183.074 235.592 184.712 236.177 184.79C238.084 185.045 240.124 184.501 242.021 184.796C243.22 184.982 245.225 184.791 246.31 185.84C246.545 186.067 246.445 187.554 246.646 187.559C246.869 187.564 247.014 186.561 247.12 186.482C247.855 185.93 249.471 184.952 250.127 185.997C250.252 186.197 250.318 187.366 250.396 187.364C250.435 187.365 250.543 186.571 250.669 186.492C251.775 185.798 252.558 186.282 253.619 186.58C255.651 187.147 258.056 185.722 260.184 186.576C260.648 186.761 260.913 189.077 260.979 189.055C261.125 189.012 261.255 187.462 261.556 187.086C262.559 185.849 263.829 187.537 264.772 186.781C265.238 186.409 265.914 184.453 266.374 184.028C266.741 183.688 267.571 184.481 267.751 183.62C267.86 183.1 267.946 181.422 268.067 181.215ZM255.339 207.057C255.467 204.374 254.741 206.588 254.959 208.035C255.008 208.361 255.305 207.753 255.339 207.057ZM223.967 201.637C223.954 202.404 223.942 203.171 223.93 203.938C224.026 203.621 224.122 203.304 224.218 202.987C224.179 202.525 224.141 202.063 224.102 201.601C224.057 201.613 224.012 201.625 223.967 201.637Z" fill="black"/>
</svg>
