<svg width="390" height="390" viewBox="0 0 390 390" fill="none" xmlns="http://www.w3.org/2000/svg">
<path d="M70 26H163V364H70V26Z" fill="#E66100"/>
<path d="M112.267 38.9808C111.239 39.1367 109.789 38.2936 108.577 38.2492C103.5 38.0543 101.619 37.4698 97.0256 37.1384C90.2146 36.646 70.0005 37.7541 70 31.897C70 31.8968 70 31.8967 70 31.8965C70 31.8391 70.002 31.781 70.0059 31.7222C70.0767 30.6064 71.796 29.3882 72.0512 28.1263C72.3059 26.8638 72.1149 18.7138 74.5568 18.2556C78.0975 17.6519 86.591 19.7416 88.4794 19.649C89.7704 19.5851 91.3598 18.8442 93.0106 18.7127C98.3333 18.2887 101.118 18.8305 105.914 16.8179C107.832 17.8785 109.75 18.9391 111.668 19.9997C114.171 19.5079 117.964 20.9067 119.485 20.8296C120.732 20.7663 121.463 19.9276 122.763 19.8886C124.221 19.8401 126.46 20.7454 129.113 20.609C133.461 20.3897 134.234 18.2018 136.843 17.924C139.549 17.6365 143.756 18.8256 147.208 18.0557C147.641 17.815 148.074 17.5743 148.507 17.3336C148.197 16.7893 147.886 16.245 147.576 15.7007C149.315 15.4473 150.063 16.5628 151.66 16.583C153.54 16.6074 154.499 15.5498 155.764 15.5547C156.8 15.5596 158.205 16.4076 159.549 16.3545C161.508 16.2814 161.079 15.057 162.133 14.8279C162.21 14.8118 162.528 14.7763 163 14.7291L174.6 15.079L174.271 26C174.484 28.1324 174.939 33.4094 174.947 33.7685C174.995 37.1048 173.319 37.3953 173.172 40.0557C172.773 47.4344 174.127 55.0087 174.639 61.8339C174.868 64.8816 174.77 68.0614 174.502 71.1003C170.213 66.3139 166.875 76.9064 173.587 72.945C172.632 76.326 174.444 78.7233 174.137 81.9286C173.937 84.0016 173.007 85.4364 173.031 88.3966C173.08 93.6491 175.726 99.3945 170.944 100.905C171.787 107.071 170.053 112.411 174.274 114.634C174.532 116.224 172.017 120.298 171.676 122.082C171.354 123.768 170.219 136.709 170.156 138.826C170.092 140.943 170.023 144.648 170.394 146.431C170.852 148.671 175.229 150.237 170.111 154.225C170.525 158.861 170.379 160.513 169.784 164.826C169.677 165.607 168.917 165.695 168.916 166.151C168.916 167.091 169.478 168.689 169.546 170.367C169.658 173.125 168.06 174.699 170.502 174.392C170.911 176.21 171.32 178.028 171.73 179.847C171.259 180.485 170.787 181.123 170.316 181.761C170.83 182.733 171.343 183.705 171.857 184.677C168.323 183.535 170.408 190.378 172.436 188.156C171.705 191.681 170.974 195.206 170.243 198.731C166.227 198.24 169.779 206.471 171.963 205.778C171.96 206.182 171.957 206.585 171.954 206.988C170.886 210.519 171.759 213.762 171.043 218.066C170.326 222.37 169.935 221.966 168.088 223.275C168.194 224.288 168.299 225.301 168.405 226.313C173.47 231.628 164.701 230.688 168.586 239.789C165.403 242.696 167.075 249.863 168.04 254.616C168.152 255.169 168.77 255.178 168.961 255.915C169.419 257.715 168.625 262.309 170.617 262.152C170.041 263.743 169.464 265.333 168.888 266.924C169.25 268.224 169.612 269.524 169.975 270.824C170.597 270.817 171.219 270.81 171.841 270.804C169.721 273.421 170.536 277.535 170.029 279.564C169.926 279.967 169.068 280.055 168.834 281.31C168.556 282.777 168.81 285.51 168.542 287.258C169.492 287.938 170.443 288.617 171.393 289.297C171.909 292.423 169.4 293.522 169.205 295.357C169.171 295.688 169.351 301.718 169.405 302.042C169.83 304.702 171.967 303.949 171.509 311.641C171.426 313.011 170.687 314.119 170.657 315.357C170.603 317.544 172.281 324.134 173.831 324.653C171.891 327.305 172.684 334.403 172.123 336.494C171.951 337.125 170.715 337.267 170.452 339.207C170.238 340.779 171.227 344.828 171.062 346.822C170.881 348.939 169.843 349.695 169.77 350.643C169.702 351.539 170.54 352.365 170.535 353.586C170.506 357.398 169.157 360.849 169.132 363.862C169.132 363.908 169.132 363.954 169.132 364L168.941 370.311L163 370.132C158.7 370.145 154.894 372.586 151.287 373.676C150.382 373.515 149.493 372.982 148.545 372.977C136.81 372.899 123.572 372.442 111.801 371.911C106.337 371.667 92.7495 368.299 96.3762 373.918C94.4773 374.902 80.6703 372.637 78.044 372.603C75.4185 372.569 73.3372 373.577 71.2735 373.592C70.8406 373.595 70.4167 373.594 70 373.59L60.1294 373.293L60.4097 364C60.4578 358.421 61.0297 354.133 60.2133 347.079C59.9839 345.122 58.7902 343.024 58.8041 341.864C58.8236 340.468 59.9781 338.965 60.0514 337.155C60.2171 332.843 59.8374 324.806 60.0371 320.668C60.0761 319.913 61.0898 319.647 61.4066 318.567C62.6446 314.359 62.5372 309.643 59.3008 310.478C61.1382 305.085 59.4622 300.096 59.3595 295.098C59.1499 284.531 59.9053 265.282 58.5454 256.076C57.6875 250.272 56.236 250.42 57.4885 241.874C57.7663 239.977 58.141 238.089 58.4724 235.788C59.2523 230.394 61.9339 225.447 58.7025 221.336C59.5406 215.346 58.9463 210.575 61.7097 206.131C61.0469 205.607 60.3841 205.083 59.7213 204.559C59.7049 203.825 59.6885 203.09 59.6721 202.356C60.3043 202.127 60.9364 201.898 61.5685 201.669C61.7387 196.408 59.1406 189.733 59.1596 185.28C59.1888 177.813 60.1982 158.583 61.0512 151.503C61.5041 147.744 60.1503 147.542 62.9333 145.39C62.7397 144.549 62.546 143.708 62.3524 142.868C61.7431 142.342 61.1337 141.815 60.5243 141.289C60.4999 136.467 61.4465 130.747 61.4368 126.153C61.4173 117.782 59.7402 105.212 60.8417 96.8055C61.1195 94.6977 62.3762 92.0629 62.362 89.9988C62.3425 86.9946 60.257 86.2645 60.218 82.4522C60.1547 75.8817 62.5773 63.6453 62.3921 57.435C62.3385 55.5905 61.5625 54.7298 61.4796 53.4562C61.1238 48.1155 61.187 43.7307 59.9879 38.6096C61.9864 33.1109 64.5659 33.5859 67.1687 31.8818C69.1332 30.5903 73.6859 26.6303 75.4064 26.0681C76.6152 25.6733 78.1701 27.1476 79.5007 26.5943C80.5632 33.1822 79.3935 35.95 77.5218 41.2994C77.5964 51.1785 77.671 61.0576 77.7455 70.9367C77.0193 71.8354 76.293 72.7343 75.5667 73.633C75.5651 73.633 75.5635 73.633 75.5619 73.633C74.7238 77.4269 76.5942 79.0349 77.0187 81.081C81.0839 100.669 77.9022 139.224 77.444 160.789C77.3466 165.436 78.3252 180.552 77.1457 183.741C76.8385 184.566 75.7186 184.796 75.6699 185.674C76.3358 193.521 77.0018 201.368 77.6678 209.215C75.9277 225.352 77.3648 242.033 77.6329 258.293C78.2189 293.787 78.9067 328.995 79.0098 364L70 354.99C78.3791 354.966 86.7466 354.974 95.1036 355.026C103.466 355.08 114.078 354.241 122.265 354.782C125.681 355.006 127.105 356.805 131.594 355.464C131.641 355.949 131.688 356.433 131.735 356.918C135.652 356.333 138.155 355.23 142.547 355.118C146.245 355.026 156.029 354.954 159.297 355.139C160.992 355.231 160.361 356.137 161.941 356.132C162.255 356.131 162.611 356.112 163 356.081L155.081 364C154.844 361.039 153.866 356.139 153.866 352.84C153.866 349.458 154.909 343.757 154.758 341.156C154.222 331.793 152.676 321.593 153.09 311.615C153.207 308.858 154.381 305.313 154.348 304.449C154.28 302.763 153.14 302.261 152.993 301.128C152.252 295.375 153.607 286.407 153.661 280.767C153.837 262.391 153.339 242.924 153.549 224.627C153.68 213.067 153.479 193.857 154.337 183.184C154.522 180.883 155.772 181.497 155.772 179.564C155.772 177.421 154.928 176.261 154.859 175.26C154.382 168.328 153.528 153.028 154.391 146.484C154.557 145.238 155.536 144.333 155.532 143.587C155.532 143.209 154.864 142.356 154.796 141.17C154.191 130.7 154.581 123.065 154.81 112.805C155.244 93.156 154.001 70.3883 154.674 49.7462C154.82 45.2488 156.756 42.1645 156.737 41.5321C156.698 40.1443 155.395 39.256 155.074 36.4452C154.712 33.2498 154.637 29.6757 154.668 26L163 34.3323C155.925 34.2723 148.474 33.8174 142.624 34.247C138.233 34.5687 132.198 36.2219 127.876 36.5877C124.425 36.8801 116.273 36.2316 114.743 36.9575C113.812 37.396 113.381 38.8045 112.267 38.9808ZM171.944 91.5501C169.692 90.9352 171.564 97.3975 172.772 94.9732C173.045 94.4272 172.529 91.709 171.944 91.5501ZM132.84 369.034C132.899 369.677 132.958 370.32 133.017 370.964C133.866 370.696 134.714 370.428 135.563 370.161C135.086 369.774 134.609 369.387 134.132 369.001C133.701 369.012 133.271 369.023 132.84 369.034Z" fill="black"/>
<path d="M226 26H319V364H226V26Z" fill="#E66100"/>
<path d="M268.267 38.9808C267.239 39.1367 265.789 38.2936 264.577 38.2492C259.5 38.0543 257.619 37.4698 253.026 37.1384C246.215 36.646 226.001 37.7541 226 31.897C226 31.8968 226 31.8967 226 31.8965C226 31.8391 226.002 31.781 226.006 31.7222C226.077 30.6064 227.796 29.3882 228.051 28.1263C228.306 26.8638 228.115 18.7138 230.557 18.2556C234.097 17.6519 242.591 19.7416 244.479 19.649C245.77 19.5851 247.36 18.8442 249.011 18.7127C254.333 18.2887 257.118 18.8305 261.914 16.8179C263.832 17.8785 265.75 18.9391 267.668 19.9997C270.171 19.5079 273.964 20.9067 275.485 20.8296C276.732 20.7663 277.463 19.9276 278.763 19.8886C280.221 19.8401 282.46 20.7454 285.113 20.609C289.461 20.3897 290.234 18.2018 292.843 17.924C295.549 17.6365 299.756 18.8256 303.208 18.0557C303.641 17.815 304.074 17.5743 304.507 17.3336C304.197 16.7893 303.886 16.245 303.576 15.7007C305.315 15.4473 306.063 16.5628 307.66 16.583C309.54 16.6074 310.499 15.5498 311.764 15.5547C312.8 15.5596 314.205 16.4076 315.549 16.3545C317.508 16.2814 317.079 15.057 318.133 14.8279C318.21 14.8118 318.528 14.7763 319 14.7291L330.6 15.079L330.271 26C330.484 28.1324 330.939 33.4094 330.947 33.7685C330.995 37.1048 329.319 37.3953 329.172 40.0557C328.773 47.4344 330.127 55.0087 330.639 61.8339C330.868 64.8816 330.77 68.0614 330.502 71.1003C326.213 66.3139 322.875 76.9064 329.587 72.945C328.632 76.326 330.444 78.7233 330.137 81.9286C329.937 84.0016 329.007 85.4364 329.031 88.3966C329.08 93.6491 331.726 99.3945 326.944 100.905C327.787 107.071 326.053 112.411 330.274 114.634C330.532 116.224 328.017 120.298 327.676 122.082C327.354 123.768 326.219 136.709 326.156 138.826C326.092 140.943 326.023 144.648 326.394 146.431C326.852 148.671 331.229 150.237 326.111 154.225C326.525 158.861 326.379 160.513 325.784 164.826C325.677 165.607 324.917 165.695 324.916 166.151C324.916 167.091 325.478 168.689 325.546 170.367C325.658 173.125 324.06 174.699 326.502 174.392C326.911 176.21 327.32 178.028 327.73 179.847C327.259 180.485 326.787 181.123 326.316 181.761C326.83 182.733 327.343 183.705 327.857 184.677C324.323 183.535 326.408 190.378 328.436 188.156C327.705 191.681 326.974 195.206 326.243 198.731C322.227 198.24 325.779 206.471 327.963 205.778C327.96 206.182 327.957 206.585 327.954 206.988C326.886 210.519 327.759 213.762 327.043 218.066C326.326 222.37 325.935 221.966 324.088 223.275C324.194 224.288 324.299 225.301 324.405 226.313C329.47 231.628 320.701 230.688 324.586 239.789C321.403 242.696 323.075 249.863 324.04 254.616C324.152 255.169 324.77 255.178 324.961 255.915C325.419 257.715 324.625 262.309 326.617 262.152C326.041 263.743 325.464 265.333 324.888 266.924C325.25 268.224 325.612 269.524 325.975 270.824C326.597 270.817 327.219 270.81 327.841 270.804C325.721 273.421 326.536 277.535 326.029 279.564C325.926 279.967 325.068 280.055 324.834 281.31C324.556 282.777 324.81 285.51 324.542 287.258C325.492 287.938 326.443 288.617 327.393 289.297C327.909 292.423 325.4 293.522 325.205 295.357C325.171 295.688 325.351 301.718 325.405 302.042C325.83 304.702 327.967 303.949 327.509 311.641C327.426 313.011 326.687 314.119 326.657 315.357C326.603 317.544 328.281 324.134 329.831 324.653C327.891 327.305 328.684 334.403 328.123 336.494C327.951 337.125 326.715 337.267 326.452 339.207C326.238 340.779 327.227 344.828 327.062 346.822C326.881 348.939 325.843 349.695 325.77 350.643C325.702 351.539 326.54 352.365 326.535 353.586C326.506 357.398 325.157 360.849 325.132 363.862C325.132 363.908 325.132 363.954 325.132 364L324.941 370.311L319 370.132C314.7 370.145 310.894 372.586 307.287 373.676C306.382 373.515 305.493 372.982 304.545 372.977C292.81 372.899 279.572 372.442 267.801 371.911C262.337 371.667 248.749 368.299 252.376 373.918C250.477 374.902 236.67 372.637 234.044 372.603C231.419 372.569 229.337 373.577 227.273 373.592C226.841 373.595 226.417 373.594 226 373.59L216.129 373.293L216.41 364C216.458 358.421 217.03 354.133 216.213 347.079C215.984 345.122 214.79 343.024 214.804 341.864C214.824 340.468 215.978 338.965 216.051 337.155C216.217 332.843 215.837 324.806 216.037 320.668C216.076 319.913 217.09 319.647 217.407 318.567C218.645 314.359 218.537 309.643 215.301 310.478C217.138 305.085 215.462 300.096 215.36 295.098C215.15 284.531 215.905 265.282 214.545 256.076C213.688 250.272 212.236 250.42 213.489 241.874C213.766 239.977 214.141 238.089 214.472 235.788C215.252 230.394 217.934 225.447 214.703 221.336C215.541 215.346 214.946 210.575 217.71 206.131C217.047 205.607 216.384 205.083 215.721 204.559C215.705 203.825 215.689 203.09 215.672 202.356C216.304 202.127 216.936 201.898 217.569 201.669C217.739 196.408 215.141 189.733 215.16 185.28C215.189 177.813 216.198 158.583 217.051 151.503C217.504 147.744 216.15 147.542 218.933 145.39C218.74 144.549 218.546 143.708 218.352 142.868C217.743 142.342 217.134 141.815 216.524 141.289C216.5 136.467 217.446 130.747 217.437 126.153C217.417 117.782 215.74 105.212 216.842 96.8055C217.119 94.6977 218.376 92.0629 218.362 89.9988C218.342 86.9946 216.257 86.2645 216.218 82.4522C216.155 75.8817 218.577 63.6453 218.392 57.435C218.338 55.5905 217.563 54.7298 217.48 53.4562C217.124 48.1155 217.187 43.7307 215.988 38.6096C217.986 33.1109 220.566 33.5859 223.169 31.8818C225.133 30.5903 229.686 26.6303 231.406 26.0681C232.615 25.6733 234.17 27.1476 235.501 26.5943C236.563 33.1822 235.393 35.95 233.522 41.2994C233.596 51.1785 233.671 61.0576 233.746 70.9367C233.019 71.8354 232.293 72.7343 231.567 73.633C231.565 73.633 231.564 73.633 231.562 73.633C230.724 77.4269 232.594 79.0349 233.019 81.081C237.084 100.669 233.902 139.224 233.444 160.789C233.347 165.436 234.325 180.552 233.146 183.741C232.838 184.566 231.719 184.796 231.67 185.674C232.336 193.521 233.002 201.368 233.668 209.215C231.928 225.352 233.365 242.033 233.633 258.293C234.219 293.787 234.907 328.995 235.01 364L226 354.99C234.379 354.966 242.747 354.974 251.104 355.026C259.466 355.08 270.078 354.241 278.265 354.782C281.681 355.006 283.105 356.805 287.594 355.464C287.641 355.949 287.688 356.433 287.735 356.918C291.652 356.333 294.155 355.23 298.547 355.118C302.245 355.026 312.029 354.954 315.297 355.139C316.992 355.231 316.361 356.137 317.941 356.132C318.255 356.131 318.611 356.112 319 356.081L311.081 364C310.844 361.039 309.866 356.139 309.866 352.84C309.866 349.458 310.909 343.757 310.758 341.156C310.222 331.793 308.676 321.593 309.09 311.615C309.207 308.858 310.381 305.313 310.348 304.449C310.28 302.763 309.14 302.261 308.993 301.128C308.252 295.375 309.607 286.407 309.661 280.767C309.837 262.391 309.339 242.924 309.549 224.627C309.68 213.067 309.479 193.857 310.337 183.184C310.522 180.883 311.772 181.497 311.772 179.564C311.772 177.421 310.928 176.261 310.859 175.26C310.382 168.328 309.528 153.028 310.391 146.484C310.557 145.238 311.536 144.333 311.532 143.587C311.532 143.209 310.864 142.356 310.796 141.17C310.191 130.7 310.581 123.065 310.81 112.805C311.244 93.156 310.001 70.3883 310.674 49.7462C310.82 45.2488 312.756 42.1645 312.737 41.5321C312.698 40.1443 311.395 39.256 311.074 36.4452C310.712 33.2498 310.637 29.6757 310.668 26L319 34.3323C311.925 34.2723 304.474 33.8174 298.624 34.247C294.233 34.5687 288.198 36.2219 283.876 36.5877C280.425 36.8801 272.273 36.2316 270.743 36.9575C269.812 37.396 269.381 38.8045 268.267 38.9808ZM327.944 91.5501C325.692 90.9352 327.564 97.3975 328.772 94.9732C329.045 94.4272 328.529 91.709 327.944 91.5501ZM288.84 369.034C288.899 369.677 288.958 370.32 289.017 370.964C289.866 370.696 290.714 370.428 291.563 370.161C291.086 369.774 290.609 369.387 290.132 369.001C289.701 369.012 289.271 369.023 288.84 369.034Z" fill="black"/>
</svg>
