<svg width="390" height="390" viewBox="0 0 390 390" fill="none" xmlns="http://www.w3.org/2000/svg">
<path d="M300.628 278.645C300.138 278.052 302.555 277.062 302.652 276.345C303.089 273.334 304.765 272.193 305.67 269.573C306.981 265.622 303.779 254.811 320.911 254.993C320.911 254.993 320.911 254.993 320.912 254.993C321.08 254.995 321.25 254.997 321.421 255C324.683 255.061 328.238 255.966 331.926 256.116C335.615 256.266 359.438 256.31 360.772 257.514C362.525 259.261 356.429 263.39 356.714 264.309C356.907 264.931 359.081 265.67 359.479 266.444C360.761 268.93 359.216 270.313 365.179 272.255C362.116 273.241 359.06 274.259 356.012 275.317C357.507 276.39 353.542 278.402 353.821 279.107C354.049 279.677 356.52 279.825 356.682 280.408C356.709 280.498 356.684 280.599 356.623 280.71L356.563 280.117C356.21 280.9 354.416 282.115 354.894 283.226C355.791 285.343 362.187 284.971 363.15 286.198C364.147 287.462 360.947 289.999 363.389 291.496C364.114 291.636 364.838 291.775 365.563 291.912C367.125 291.57 368.686 291.227 370.248 290.883C371.087 291.678 367.895 292.455 367.93 293.275C367.972 294.256 371.1 294.401 371.161 295.058C371.209 295.605 368.828 296.61 369.062 297.308C369.388 298.31 372.922 297.708 373.649 298.194C373.934 298.361 376.347 302.481 376.397 302.796C376.723 304.781 371.858 305.387 371.56 307.132C371.21 309.251 371.788 310.921 372.328 315.314C372.262 315.607 372.297 316.52 372.217 316.81C373.048 318.861 374.561 322.063 374.829 325.89C375.02 328.759 374.033 332.225 371.81 336.146C361.876 326.757 348.479 334.525 368.309 337.761C363.729 341.187 365.975 348.488 358.602 354.013C354.997 356.503 351.059 357.049 346.437 358.156C346.018 358.071 345.581 358.091 345.151 358.28C342.078 359.678 340.136 368.424 335.098 355.329C331.683 358.931 327.161 354.699 327.988 367.107C326.923 368.095 322.792 361.343 321.515 360.506C320.162 359.842 311.474 357.287 310.219 357.056C309.664 357.001 308.972 356.944 308.241 356.964C307.34 356.991 306.415 357.194 305.871 357.843C304.72 359.197 304.002 372.001 301.811 357.059C299.438 358.29 298.596 357.867 296.394 356.145C295.994 355.833 295.936 353.612 295.705 353.612C295.228 353.616 294.432 355.263 293.588 355.469C292.199 355.808 291.37 351.142 291.586 358.278C290.684 359.483 289.787 360.688 288.895 361.895C288.563 360.52 288.232 359.146 287.898 357.772C287.431 359.279 286.968 360.786 286.508 362.294C286.938 351.957 283.634 358.1 284.824 364.011C283.068 361.9 281.32 359.795 279.579 357.702C279.496 345.955 275.825 356.459 276.459 362.83C276.283 362.827 276.1 362.825 275.923 362.823C275.76 362.528 275.603 362.285 275.452 362.087C273.875 360.24 272.537 362.208 270.58 360.425C268.401 358.454 268.52 357.305 267.542 351.956C267.067 352.296 266.593 352.637 266.119 352.979C264.588 367.926 263.177 342.319 259.584 354.001C257.392 344.844 254.223 350.031 252.199 353.072C251.962 353.425 252.137 355.222 251.835 355.812C251.099 357.231 248.628 355.159 249.334 360.943C248.392 359.35 247.443 357.76 246.484 356.173C245.98 357.297 245.48 358.422 244.986 359.548C245.205 361.353 245.425 363.158 245.644 364.963C245.154 363.446 244.666 362.48 244.216 361.859C243.653 360.931 242.316 360.852 241.47 360.796C240.568 360.748 239.878 360.777 239.348 360.253C239.075 359.968 238.862 357.469 238.079 356.822C237.164 356.055 235.652 356.85 234.682 356.091C234.387 358.878 234.092 361.665 233.758 364.451C232.044 365.996 231.361 358.668 230.378 358.112C230.2 358.018 227.025 358.574 226.87 358.73C225.496 359.977 225.882 366.23 221.879 364.895C221.187 364.653 220.572 362.491 219.952 362.403C218.834 362.245 215.378 367.134 215.109 371.662C213.716 365.985 210.124 368.276 209.026 366.627C208.693 366.12 208.666 362.508 207.688 361.73C207.328 361.442 206.696 361.875 206.001 362.388C205.207 363.007 204.326 363.742 203.762 363.471C202.654 362.931 202.344 359.893 201.855 359.673C201.401 359.468 200.948 361.912 200.312 361.891C198.391 361.782 196.65 357.816 195.13 357.723C192.896 357.578 190.823 364.801 188.931 367.993C188.478 367.516 188.046 365.952 187.559 365.931C181.56 365.611 174.852 364.159 168.873 362.493C166.106 361.729 159.375 351.748 160.894 368.207C159.869 371.064 152.961 364.296 151.627 364.167C150.291 364.039 149.165 366.96 148.11 366.98C144.929 367.037 142.746 364.864 138.812 367.335C137.797 367.981 136.645 371.444 136.049 371.388C135.335 371.314 134.651 367.921 133.735 367.684C131.544 367.145 127.4 368.147 125.313 367.507C124.927 367.382 124.871 364.416 124.342 363.476C122.295 359.8 119.876 360.045 120.033 369.514C117.442 364.067 114.745 368.889 112.156 369.109C106.747 369.56 96.8701 367.008 91.9188 370.771C91.8381 370.834 91.7596 370.897 91.6831 370.962C88.7565 373.363 88.5727 377.293 84.3549 373.524C83.4109 372.666 82.4409 371.521 81.28 370.491C78.5133 368.064 76.3876 360.087 73.494 369.359C70.3241 366.689 67.3224 368.186 65.362 359.845C64.8306 361.736 64.2717 363.622 63.6796 365.503C63.1731 365.491 62.668 365.476 62.1156 365.451C62.1938 363.597 62.2818 361.744 62.3804 359.893C60.535 359.363 58.18 360.872 53.9162 361.601C51.7878 361.941 48.9869 362.021 45.5731 361.056C42.2131 360.163 38.5188 357.978 36.8826 356.441C36.8768 356.436 36.871 356.43 36.8652 356.425C33.6208 352.404 25.1009 346.29 22.5016 324.79C22.7574 323.256 23.042 321.263 23.4378 319.997C24.6054 316.384 20.7272 316.183 28.889 314.739C28.3441 314.108 27.8078 313.474 27.2764 312.864C25.52 312.385 23.7654 311.915 22.0154 311.409C22.1888 307.961 25.3512 304.946 25.6711 302.365C25.7449 301.767 25.7472 301.139 25.7078 300.457C25.383 296.104 22.8401 290.251 26.1882 286.954C27.1535 286.009 30.9885 285.23 31.1072 284.183C31.2836 282.658 25.3151 281.363 25.4997 279.419C25.8292 276.065 33.7865 270.994 33.7446 267.78C33.7415 267.381 33.3667 267.013 32.918 266.676C32.2866 266.182 31.5057 265.761 31.4261 265.355C30.8244 262.496 31.3582 260.308 28.3211 257.128C34.5476 255.224 41.9499 256.697 49.5991 257.07C55.3736 257.344 68.8274 257.591 73.8341 258.148C77.3512 258.54 81.7089 260.031 85.5903 260.404C88.1114 264.127 84.5334 264.843 78.705 266.624C78.4321 268.987 78.162 271.366 77.8918 273.756C77.6019 276.326 77.3117 278.913 77.0255 281.486C74.8578 281.61 72.6907 281.73 70.5226 281.856C70.5181 281.855 70.5135 281.854 70.5089 281.853C67.7933 283.374 73.0718 285.016 74.1404 286.226C79.561 292.352 78.6934 300.276 76.3522 307.705C75.484 310.35 74.4458 312.877 73.5832 314.805C73.1514 315.756 72.7705 316.528 72.4536 316.948C72.145 317.422 71.834 317.28 71.7066 318.067C71.3326 316.454 70.8934 315.642 70.6045 315.122C70.3513 314.669 70.233 314.185 70.3091 313.981C70.3798 313.766 70.6462 313.781 70.9657 313.97C71.5967 314.36 72.4212 315.37 71.6128 316.963C71.263 317.649 69.7404 319.458 69.3045 320.249C69.1523 320.361 69.0378 320.42 68.9704 320.394C68.8051 319.921 68.1914 319.175 67.6995 318.639C67.194 318.086 66.8379 317.693 66.6845 317.381C66.3702 316.766 66.7206 316.385 67.2301 315.979C68.2979 315.19 69.9996 314.421 71.7349 313.61C78.0037 319.025 86.3499 315.899 94.0378 315.173C94.4698 315.131 94.9071 315.096 95.3491 315.071C117.405 313.817 139.527 311.743 161.361 312.981C165.587 313.224 170.996 310.874 175.104 312.529C176.808 313.215 177.454 318.484 179.781 314.605C179.78 316.022 179.78 317.438 179.779 318.855C181.795 317.179 183.096 313.977 185.334 313.686C187.192 313.445 192.156 313.31 193.785 313.873C194.625 314.156 194.276 316.798 195.081 316.796C196.454 316.772 199.416 313.152 201.288 313.174C202.751 313.192 205.06 315.455 206.476 315.833C206.725 315.897 206.948 315.907 207.139 315.846C211.875 314.325 216.971 309.843 221.89 311.054C223.255 311.397 225.006 314.823 225.41 314.725C226.252 314.522 226.466 311.187 227.002 310.755C229.745 308.573 234.118 312.467 236.164 312.512C236.617 312.526 237.016 312.526 237.263 312.523C237.39 312.522 237.464 312.521 237.537 312.519C237.619 312.515 237.672 312.512 238.137 312.455C246.832 311.427 255.562 309.623 264.108 309.589C266.628 309.579 269.816 309.391 273.134 309.351C278.382 309.285 283.265 309.624 286.625 311.077C287.828 311.604 287.55 315.26 288.548 315.249C289.654 315.237 290.228 312.765 290.742 312.561C294.314 311.13 302.063 308.594 305.241 311.071C305.847 311.547 306.334 314.402 306.682 314.386C306.822 314.384 307.08 313.246 307.423 312.612C307.51 312.414 307.605 312.264 307.709 312.215C311.482 310.337 314.06 311.193 317.632 311.157C320.551 311.091 323.148 309.95 326.207 308.245C322.525 309.493 319.361 312.498 318.179 314.218C316.893 316.011 316.697 316.722 316.604 316.769C316.52 316.788 316.947 314.834 317.78 311.805C317.817 311.676 317.868 311.548 317.934 311.422L317.845 312.616C318.284 313.246 319.79 312.576 321.137 312.173C322.49 311.714 323.715 311.285 323.682 311.179C323.531 310.625 319.713 310.571 318.674 309.454C315.247 305.72 318.532 298.944 316.113 294.722C314.919 292.629 309.759 290.161 308.438 288.096C308.093 287.551 308.011 286.745 307.977 285.847C307.917 285.647 307.925 285.011 307.872 284.809C307.838 282.678 308.082 280.289 306.617 279.771C305.305 279.304 301.179 279.287 300.628 278.645ZM342.036 356.072C340.151 349.769 337.961 356.345 340.642 359.148C341.276 359.775 342.552 357.707 342.036 356.072ZM179.735 354.276C179.733 356.156 179.731 358.036 179.729 359.917C180.178 359.142 180.627 358.367 181.073 357.592C180.849 356.458 180.623 355.324 180.398 354.189C180.177 354.218 179.952 354.247 179.735 354.276Z" fill="black"/>
<path d="M221 169.75H284.2L195 298L105.8 169.75H171V14H221V169.75Z" fill="#00A22B"/>
<path d="M233.981 130.409C234.137 131.365 233.294 132.715 233.249 133.843C233.054 138.568 232.47 140.319 232.138 144.595C231.646 150.934 232.754 169.75 226.897 169.75C226.897 169.75 226.897 169.75 226.897 169.75C226.839 169.75 226.781 169.748 226.722 169.745C225.606 169.679 224.388 168.078 223.126 167.841C221.864 167.604 213.714 167.781 213.256 165.509C212.652 162.213 214.742 154.307 214.649 152.55C214.585 151.348 213.844 149.868 213.713 148.332C213.289 143.378 213.83 140.785 211.818 136.322C212.878 134.536 213.939 132.751 215 130.966C214.508 128.636 215.907 125.106 215.83 123.69C215.766 122.529 214.928 121.849 214.889 120.639C214.84 119.282 215.745 117.197 215.609 114.729C215.39 110.681 213.202 109.961 212.924 107.533C212.636 105.015 213.826 101.099 213.056 97.8856C212.815 97.4826 212.574 97.0796 212.334 96.6766C211.789 96.9653 211.245 97.2541 210.701 97.5428C210.447 95.9244 211.563 95.2285 211.583 93.7414C211.607 91.9917 210.55 91.099 210.555 89.9217C210.56 88.9572 211.408 87.6494 211.355 86.3988C211.281 84.5755 210.057 84.9743 209.828 83.9931C209.739 83.6016 209.063 76.364 209.053 75.9557C209.005 72.8503 210.681 72.5799 210.828 70.1037C211.227 63.2357 209.873 56.1856 209.361 49.8327C209.132 46.996 209.23 44.0362 209.498 41.2077C213.787 45.6628 217.125 35.8034 210.413 39.4906C211.368 36.3436 209.556 34.1122 209.863 31.1288C210.063 29.1992 210.993 27.8638 210.969 25.1084C210.925 20.7074 208.777 15.9346 211.836 14L221 23.1639C220.786 22.8247 220.606 22.4215 220.466 21.9443C214.726 22.7872 209.756 21.0528 207.687 25.2737C206.207 25.5315 202.415 23.0174 200.755 22.6759C199.185 22.3542 187.14 21.219 185.17 21.1556C183.199 21.0923 179.75 21.0233 178.09 21.3936C176.036 21.845 174.592 26.1003 171 21.3325L178.333 14C178.261 14.054 178.187 14.1086 178.111 14.1636C178.525 18.4795 178.379 20.0172 177.784 24.0312C177.677 24.758 176.917 24.8402 176.916 25.2647C176.916 26.1393 177.478 27.6273 177.546 29.1885C177.658 31.7558 176.06 33.221 178.502 32.9348C178.911 34.6274 179.32 36.3199 179.73 38.0125C179.259 38.6062 178.787 39.2 178.316 39.7938C178.83 40.6988 179.343 41.6037 179.857 42.5086C176.323 41.4458 178.408 47.8149 180.436 45.7469C179.705 49.0279 178.974 52.309 178.243 55.59C174.227 55.1322 177.779 62.7942 179.963 62.1491C179.96 62.5245 179.957 62.9 179.954 63.2754C178.886 66.5622 179.759 69.5806 179.043 73.5869C178.326 77.5929 177.935 77.2168 176.088 78.4351C176.194 79.3777 176.299 80.3204 176.405 81.2631C181.47 86.2097 172.701 85.3354 176.586 93.8058C173.403 96.5121 175.075 103.183 176.04 107.607C176.152 108.121 176.77 108.13 176.961 108.815C177.419 110.491 176.625 114.768 178.617 114.622C178.041 116.102 177.464 117.582 176.888 119.063C177.25 120.273 177.612 121.483 177.975 122.693C178.597 122.687 179.219 122.68 179.841 122.674C177.721 125.111 178.536 128.939 178.029 130.828C177.926 131.204 177.068 131.285 176.834 132.453C176.556 133.819 176.81 136.363 176.542 137.99C177.492 138.623 178.443 139.255 179.393 139.888C179.909 142.797 177.4 143.82 177.205 145.528C177.171 145.836 177.351 151.449 177.405 151.751C177.83 154.227 179.967 153.525 179.509 160.685C179.426 161.96 178.687 162.991 178.657 164.144C178.627 165.292 179.147 167.744 179.885 169.75L179.588 178.913L171 178.635C169.449 179.205 168.164 179.905 167.954 180.581C165.485 178.641 158.878 179.434 156.932 178.873C156.345 178.701 156.212 177.465 154.407 177.202C152.944 176.988 149.175 177.977 147.319 177.812C145.348 177.631 144.645 176.593 143.762 176.52C142.928 176.452 142.159 177.29 141.023 177.285C137.475 177.256 134.262 175.907 131.458 175.882C127.403 175.843 123.82 178.324 120.427 179.426C119.585 179.265 118.758 178.732 117.875 178.727C113.986 178.7 109.919 178.624 105.8 178.514L112.994 164.746C117.084 170.975 121.18 177.41 124.928 183.397C127.631 187.711 132.088 200.017 134.774 194.038C136.591 194.927 142.069 206.771 143.437 208.797C144.804 210.823 146.738 211.838 147.847 213.406C151.193 218.14 152.927 221.906 157.677 227.197C158.906 228.563 161 229.484 161.605 230.378C162.331 231.456 162.183 233.264 163.084 234.688C165.24 238.078 169.823 244.003 171.858 247.279C172.228 247.878 171.537 248.66 171.851 249.666C173.07 253.588 175.665 257.131 177.879 254.645C179.236 259.815 183.264 262.67 186.004 266.431C190.779 272.993 198.154 284.444 203.963 291.766H186.037C187.065 290.069 187.943 288.503 188.604 287.135C190.985 282.21 189.714 281.494 195.284 275.679C196.521 274.388 197.832 273.159 199.327 271.59C202.834 267.914 207.665 265.665 207.197 260.678C211.068 256.579 213.116 252.595 217.746 250.777C217.481 249.998 217.215 249.219 216.949 248.44C217.326 247.87 217.703 247.299 218.08 246.729C218.721 246.914 219.361 247.1 220.002 247.286C222.938 243.363 224.352 236.779 226.735 233.387C230.727 227.699 241.776 213.58 246.239 208.657C248.609 206.044 247.605 205.116 251.033 205.061C251.321 204.308 251.609 203.555 251.897 202.802C251.676 202.052 251.455 201.302 251.235 200.552C253.778 196.853 257.595 193.023 260.028 189.507C264.461 183.099 269.765 172.536 275.137 166.741C275.713 166.121 276.488 165.529 277.27 164.93L284.2 178.191C282.944 177.788 281.669 177.38 280.569 177.388C277.773 177.408 277.094 179.493 273.545 179.532C267.429 179.595 256.04 177.173 250.259 177.358C248.542 177.412 247.741 178.188 246.556 178.27C241.585 178.626 237.504 178.563 232.737 179.762C227.619 177.764 228.061 175.184 226.475 172.581C225.273 170.617 221.587 166.064 221.063 164.344C220.696 163.135 222.068 161.58 221.553 160.249C227.685 159.187 230.261 160.357 235.241 162.228C244.436 162.154 253.631 162.079 262.827 162.004C263.663 162.731 264.5 163.457 265.336 164.183C265.336 164.185 265.336 164.186 265.336 164.188C268.868 165.026 270.364 163.156 272.269 162.731C275.696 161.967 279.747 161.459 284.2 161.141L300.437 160.713L291.268 174.666C281.414 191.241 264.374 211.945 254.762 225.113C252.212 228.608 244.981 240.718 242.318 242.481C241.627 242.937 240.586 242.473 240.079 243.116C236.455 249.493 232.832 255.869 229.208 262.245C219.204 273.582 211.517 287.15 203.096 299.727C202.502 300.615 201.907 301.503 201.313 302.391L195.418 311.455L188.687 302.391C165.343 270.078 142.123 238.148 119.94 205.797C115.54 199.377 109.211 191.747 105.304 185.182C103.673 182.443 104.392 180.328 100.907 177.664C101.279 177.351 101.652 177.038 102.025 176.726C101.102 175.768 100.221 174.989 99.3591 174.23L90.5906 162.306L105.8 161.905C107.781 161.417 109.677 160.94 112.292 160.868C115.734 160.776 124.841 160.704 127.883 160.889C129.461 160.981 128.873 161.887 130.344 161.882C132.862 161.868 138.243 160.616 141.718 160.616C144.865 160.616 150.172 161.659 152.592 161.508C158.475 161.146 164.711 160.324 171 159.955L161.205 169.75C161.028 166.721 160.955 163.68 161.09 160.661C161.207 158.095 162.381 154.795 162.348 153.991C162.28 152.422 161.14 151.954 160.993 150.9C160.252 145.545 161.607 137.197 161.661 131.948C161.837 114.844 161.339 96.7238 161.549 79.693C161.68 68.9334 161.479 51.053 162.337 41.1191C162.522 38.9769 163.772 39.548 163.772 37.7493C163.772 35.7549 162.928 34.6748 162.859 33.7428C162.521 29.1792 161.996 20.7173 162.022 14L161.741 5.32225L171 5.02221C173.779 5.03321 176.259 5.13873 178.041 5.39117C179.201 5.55681 180.043 6.53572 180.738 6.53216C181.089 6.53216 181.884 5.86412 182.987 5.79583C192.733 5.19143 199.839 5.58103 209.389 5.81012C213.151 5.89933 217.035 5.91762 221 5.89624L228.833 5.64241L229.104 14C229.186 29.3121 229.861 45.8221 229.326 61.0838C229.18 65.27 227.244 68.1408 227.263 68.7294C227.302 70.0212 228.605 70.8481 228.926 73.4643C229.984 82.1631 228.594 93.8784 229.247 102.152C229.569 106.24 231.222 111.857 231.588 115.879C231.88 119.092 231.232 126.68 231.957 128.104C232.396 128.97 233.804 129.371 233.981 130.409ZM212.056 22.1732C214.308 22.7456 212.436 16.7305 211.228 18.9871C210.955 19.4953 211.471 22.0253 212.056 22.1732ZM111.384 168.963C111.881 168.551 112.378 168.138 112.874 167.726C112.204 167.23 111.533 166.735 110.862 166.239C110.798 166.825 110.734 167.41 110.67 167.995C110.908 168.318 111.146 168.64 111.384 168.963Z" fill="black"/>
</svg>
