<svg width="390" height="390" viewBox="0 0 390 390" fill="none" xmlns="http://www.w3.org/2000/svg">
<path d="M382 125.871L210.934 227.742V175.221C164.456 179.113 119.035 184.835 90.5381 213.466C58.6578 246.221 45.5995 308.373 30.7949 362.725C29.1836 368.989 27.6185 374.996 26 381.401C26.1867 374.731 26.3201 368.457 26.501 361.919C29.6936 304.108 24.1423 244.009 56.3037 183.537C93.2668 123.087 155.504 104.807 206.206 85.6143C207.789 85.0641 209.362 84.5201 210.934 83.9805V24L382 125.871Z" fill="#63BAAB"/>
<path d="M324.314 145.115C325.475 144.242 327.658 143.924 329.144 143.09C335.375 139.607 337.946 138.756 343.663 135.737C352.141 131.262 375.985 115.772 378.983 120.804C378.983 120.805 378.983 120.805 378.983 120.805C379.012 120.854 379.04 120.906 379.065 120.959C379.55 121.969 378.097 124.252 378.435 125.519C378.773 126.787 383.174 133.652 380.459 135.802C376.492 138.867 365.166 143.18 362.933 144.618C361.406 145.601 359.866 147.381 357.94 148.681C351.729 152.873 348.088 154.41 343.326 159.588C340.467 160.057 337.608 160.525 334.749 160.993C331.978 163.215 326.682 164.741 324.885 165.901C323.411 166.853 322.957 168.099 321.407 169.067C319.671 170.158 316.504 170.99 313.37 173.015C308.232 176.33 308.417 178.767 305.408 180.882C302.288 183.074 296.599 185.078 292.824 188.222C292.424 188.74 292.024 189.259 291.625 189.777C292.278 190.021 292.931 190.266 293.584 190.511C291.614 191.979 290.14 191.558 288.2 192.69C285.918 194.021 285.301 195.619 283.771 196.524C282.517 197.265 280.386 197.547 278.791 198.559C276.462 200.031 277.606 200.775 276.45 201.73C275.988 202.108 266.943 208.281 266.419 208.605C262.414 211.046 261.206 209.815 257.918 211.602C248.803 216.565 240.348 223.176 232.368 228.524C228.804 230.913 224.914 233.116 221.107 235.071C224.693 227.944 210.193 232.693 218.411 235.611C217.605 235.895 216.88 236.231 216.21 236.603L200.287 245.688L200.621 227.742C200.729 224.165 199.544 221.224 199.796 217.513C199.996 214.6 200.927 212.583 200.902 208.422C200.853 201.039 198.208 192.964 202.989 190.84C202.387 184.651 203.1 179.053 202.019 175.221L211.678 184.104C210.192 184.663 209.016 185.486 208.238 186.764C206.053 187.208 200.185 185.214 197.683 185.119C195.302 184.958 177.369 185.87 174.494 186.322C171.594 186.667 166.549 187.411 164.213 188.214C161.244 189.22 160.084 193.862 153.721 190.018C147.664 191.826 145.483 192.243 139.729 193.328C138.691 193.533 138.356 192.843 137.763 193.029C136.54 193.414 134.669 194.614 132.569 195.44C129.131 196.794 126.594 196.139 127.886 198.243C125.797 199.528 123.768 200.863 121.807 202.249C120.852 202.181 119.894 202.125 118.934 202.082C118.026 203.115 117.137 204.164 116.289 205.218C115.858 201.343 109.145 207.731 112.721 207.963C108.505 209.69 104.403 211.734 100.465 214.136C99.1397 211.918 96.2193 215.07 95.1036 218.01L95.1542 217.959C94.5112 219.665 94.421 221.247 95.2339 221.546C94.8836 221.923 94.5331 222.307 94.1891 222.69C90.3848 225.398 88.464 229.271 84.7192 233.567C80.9988 237.941 81.003 237.35 78.4959 237.901C77.8866 239.131 77.2867 240.382 76.7041 241.639C77.7667 250.356 70.3968 245.119 68.6935 258.218C64.1314 260.569 61.9118 270.523 60.6462 277.035C60.4942 277.792 61.0713 278.012 60.9114 279.034C60.499 281.531 57.7259 287.315 59.6937 287.736C58.4608 289.634 57.2314 291.573 56.021 293.5C55.825 295.33 55.6356 297.17 55.4584 298.999C56.0563 299.171 56.6541 299.343 57.2519 299.515C54.1609 302.373 53.3363 308.106 52.0784 310.685C51.8256 311.198 50.9655 311.081 50.2636 312.704C49.4388 314.598 48.6596 318.35 47.757 320.638C48.4228 321.807 49.0899 322.974 49.7586 324.139C49.1143 328.489 46.2959 329.329 45.4441 331.765C45.29 332.2 43.2994 340.428 43.2356 340.886C42.6916 344.607 45.0386 344.122 41.8208 354.48C41.2435 356.33 40.1254 357.651 39.6452 359.326C39.3112 360.49 38.9832 362.65 38.7832 364.9L38.8132 364.787C38.5516 368.287 38.6092 372.019 39.412 372.683C37.5476 374.755 36.1664 379.776 35.0992 383.701L16.6185 381.139C16.7141 379.076 16.7951 377.3 17.0089 376.32C17.2036 375.44 18.4444 375.273 18.7747 372.557C19.0434 370.357 18.1939 364.632 18.4389 361.818C18.4426 361.777 18.4463 361.736 18.4502 361.696L18.4594 361.475C18.8146 358.651 19.8706 357.659 20.0049 356.361C20.131 355.118 19.3452 353.934 19.42 352.236C19.6664 346.938 21.1625 342.154 21.3086 337.935C21.5214 331.829 19.1737 326.361 18.216 321.19C18.4122 319.919 18.9803 318.678 19.0248 317.339C19.5748 300.783 20.9054 281.866 23.546 265.122C24.5623 257.275 31.568 238.711 25.09 242.747C24.4747 239.768 31.5668 220.695 32.9629 217.151C34.1492 213.499 34.1847 210.304 35.2043 207.444C38.3378 198.842 41.449 193.183 45.6377 182.842C46.1988 181.474 46.5782 179.938 46.9372 178.556L47.2528 178.003C47.6789 176.702 48.0722 175.554 48.5321 174.844C49.6741 173.089 51.8641 171.858 53.4615 169.681C57.166 164.453 64.3898 154.86 68.7885 150.529C69.5843 149.727 70.5942 150.127 71.9218 149.192C77.083 145.538 82.1098 140.861 79.0308 139.288C86.177 135.239 90.8408 129.367 96.8143 124.931C109.262 115.203 134.614 102.817 146.318 96.5209C153.674 92.4258 152.957 91.1055 164.821 87.7646C167.443 87.0396 170.106 86.418 173.276 85.5729C180.727 83.5906 188.193 83.7153 192.473 78.684C196.167 77.7205 199.409 76.6046 202.454 75.7035L202.727 75.6044C204.412 75.1528 206.05 74.7657 207.68 74.5032L200.913 83.9805C201.267 81.9488 201.798 79.9959 202.643 78.0859C201.981 77.3494 201.318 76.613 200.655 75.8766C200.639 74.8444 200.622 73.8121 200.606 72.7799C201.238 72.4579 201.87 72.1359 202.502 71.8139C202.672 64.4193 200.074 55.0376 200.093 48.7783C200.108 43.3738 200.383 33.5842 200.763 24L201.099 5.92302L216.137 15.2614C223.71 20.1873 231.079 25.0997 235.014 27.9248C239.322 31.0171 240.259 29.9994 241.434 33.9381C242.548 34.3763 243.662 34.8146 244.777 35.2529C245.724 35.1077 246.671 34.9625 247.618 34.8173C253.454 38.2644 259.877 43.191 265.43 46.4865C275.55 52.4901 291.589 60.0893 301.177 67.0813C303.58 68.8358 306.119 71.8104 308.619 73.2827C312.257 75.4264 314.206 74.1597 318.83 76.8679C326.797 81.5387 340.335 92.4203 347.93 96.7274C350.185 98.0079 351.621 97.9601 353.202 98.8049C359.834 102.34 365.097 105.548 371.895 108.2C377.513 113.872 375.619 115.747 376.345 119.208C376.9 121.825 379.353 128.585 379.151 130.467C379.01 131.79 376.434 132.065 376.421 133.607C367.922 129.782 365.178 126.786 359.675 121.331C347.706 114.29 335.738 107.25 323.769 100.209C323.055 98.9386 322.341 97.6682 321.627 96.3978C321.628 96.3964 321.629 96.3951 321.63 96.3937C317.477 92.9451 314.578 93.3957 311.89 92.289C286.154 81.6944 241.221 51.2336 215.412 35.3311C213.649 34.2451 210.56 32.4954 207.059 30.5064L218.506 24C218.684 32.6726 218.885 43.5543 218.079 46.6152C217.772 47.7756 216.652 48.0984 216.603 49.3329C217.269 60.3624 217.935 71.3918 218.601 82.4212C218.562 82.9406 218.523 83.4603 218.487 83.9805L218.599 89.2087L213.386 91.1243C211.786 91.5502 210.186 91.9973 208.586 92.4626L208.773 92.3949C188.968 98.7355 169.538 106.746 151.173 115.244C115.133 131.49 83.2483 155.305 63.8908 188.176L64.1554 187.713C54.7208 205.675 48.1357 224.877 43.9606 244.751C41.5574 255.852 40.5151 270.324 39.0768 281.492C38.4716 286.152 36.527 287.999 37.4982 294.288C37.0107 294.325 36.5233 294.363 36.0358 294.401C36.3173 299.867 37.2631 303.386 37.149 309.501C37.0385 314.641 36.7515 328.344 36.4449 332.951C36.288 335.334 35.4073 334.42 35.3503 336.647C35.2621 340.453 36.2633 348.669 36.0307 353.98C35.9325 356.307 35.5433 359.405 35.142 362.396L35.1519 362.158C34.8148 365.29 34.5008 368.32 34.5321 370.205C34.5918 373.923 34.7315 377.749 34.8681 381.65L17.3988 379.228C18.5666 372.967 19.7797 366.572 21.2149 360.26L21.2507 360.125C22.0931 356.645 23.0032 353.159 24.0286 349.714C25.1317 346.021 27.5359 341.502 27.8143 340.317C28.3524 338.009 27.4295 337.036 27.6949 335.456C29.0386 327.437 33.6238 315.531 35.8708 307.842C43.1956 282.838 51.1775 255.783 64.9868 232.193C69.2895 224.872 75.6623 215.235 83.8509 206.957L83.9242 206.883C92.3727 198.417 102.41 192.172 109.824 188.801C113.007 187.365 112.732 188.909 115.332 187.658C118.212 186.306 119.476 184.869 120.83 184.229C130.118 179.444 151.839 173.028 161.331 172.472C163.147 172.317 164.583 173.07 165.645 172.891C166.182 172.803 167.288 171.945 168.964 171.618C183.782 168.778 194.675 168.171 209.141 167.153C209.51 167.127 209.88 167.102 210.251 167.076L218.913 166.163L219.107 175.221C218.875 191.728 219.22 209.753 219.385 227.742L206.61 220.481C216.72 214.334 226.857 208.263 236.75 202.677C242.256 199.569 246.972 199.014 247.726 198.543C249.382 197.511 249.788 195.753 253.018 193.455C263.763 185.826 279.674 177.968 290.075 171.014C295.214 167.58 301.656 161.819 306.688 158.397C310.707 155.663 320.883 150.358 322.359 148.634C323.259 147.588 323.059 146.068 324.314 145.115ZM201.99 203.99C204.241 204.854 202.37 195.771 201.161 199.178C200.889 199.946 201.405 203.766 201.99 203.99ZM23.8524 295.276C23.2056 295.325 22.5588 295.374 21.912 295.423C22.1144 296.642 22.3205 297.86 22.5298 299.074C22.9487 298.418 23.3684 297.762 23.7892 297.107C23.8094 296.497 23.8305 295.885 23.8524 295.276Z" fill="black"/>
</svg>
