<svg width="390" height="390" viewBox="0 0 390 390" fill="none" xmlns="http://www.w3.org/2000/svg">
<g clip-path="url(#clip0_43_46)">
<path d="M363 193L54 360.143V25.8571L363 193Z" fill="#00A22B"/>
<path d="M312.104 205.772C313.117 205.047 315.053 204.959 316.356 204.304C321.82 201.57 324.089 201.007 329.107 198.67C336.547 195.205 357.407 182.662 360.194 187.813C360.194 187.813 360.195 187.813 360.195 187.814C360.222 187.864 360.248 187.916 360.271 187.97C360.727 188.992 359.488 191.048 359.818 192.304C360.149 193.56 364.229 200.619 361.863 202.42C358.404 204.977 348.424 208 346.47 209.162C345.134 209.957 343.805 211.518 342.121 212.579C336.691 215.998 333.487 217.115 329.37 221.63C326.836 221.795 324.302 221.96 321.768 222.125C319.354 223.99 314.675 224.93 313.103 225.868C311.814 226.638 311.439 227.794 310.083 228.572C308.563 229.449 305.763 229.935 303.022 231.572C298.525 234.254 298.748 236.621 296.12 238.358C293.394 240.16 288.377 241.522 285.091 244.174C284.747 244.634 284.404 245.093 284.06 245.553C284.647 245.854 285.234 246.155 285.822 246.456C284.103 247.674 282.781 247.121 281.081 248.018C279.08 249.072 278.569 250.551 277.228 251.271C276.129 251.86 274.239 251.918 272.843 252.733C270.805 253.919 271.841 254.751 270.835 255.555C270.432 255.874 262.527 260.919 262.067 261.178C258.56 263.13 257.455 261.822 254.571 263.216C246.574 267.087 239.204 272.613 232.226 276.97C229.111 278.915 225.7 280.649 222.357 282.153C225.381 275.641 212.585 278.767 219.97 282.403C215.938 283.498 214.264 286.464 210.727 288.029C208.438 289.04 206.478 289.042 203.357 290.758C197.823 293.807 193.003 299.422 189.13 296.081C183.007 300.351 176.532 301.882 176.189 306.866C174.629 308.003 169.122 308.124 167.072 308.844C165.135 309.526 150.903 315.934 148.633 317.09C146.364 318.245 142.41 320.306 140.7 321.652C138.548 323.337 138.974 328.083 132.32 325.863C127.611 328.881 125.793 329.698 120.947 331.643C120.07 331.995 119.615 331.378 119.132 331.638C118.138 332.176 116.714 333.585 114.972 334.605C112.107 336.282 109.681 335.777 111.168 337.749C109.439 339.149 107.71 340.55 105.981 341.951C105.081 341.901 104.182 341.852 103.283 341.803C102.499 342.811 101.714 343.819 100.93 344.827C100.457 341.065 94.2094 346.816 97.5248 347.328C93.4474 348.702 89.3699 350.076 85.2925 351.451C83.9022 347.637 76.883 355.473 78.6552 356.997C78.2269 357.225 77.7986 357.453 77.3704 357.681C73.1264 358.763 70.1107 361.387 65.2159 363.22C60.3214 365.053 60.5627 364.478 58.2991 363.602C57.7024 363.995 57.1056 364.388 56.5089 364.781L48.5315 368.868L48.7267 360.143C48.6827 359.637 48.6387 359.13 48.5948 358.624C43.5304 352.231 52.2986 353.361 48.4138 342.414C51.5967 338.917 49.9249 330.295 48.9597 324.579C48.8477 323.914 48.2298 323.902 48.0393 323.016C47.5812 320.851 48.3754 315.324 46.3826 315.513C46.9592 313.6 47.5358 311.687 48.1123 309.773C47.75 308.21 47.3876 306.646 47.0253 305.082C46.4032 305.09 45.7812 305.098 45.1591 305.106C47.2792 301.957 46.4644 297.009 46.9713 294.569C47.0741 294.083 47.9322 293.978 48.1663 292.468C48.4441 290.704 48.1902 287.415 48.4583 285.313C47.5077 284.495 46.5572 283.678 45.6066 282.86C45.091 279.1 47.6 277.778 47.795 275.57C47.8288 275.173 47.6486 267.92 47.595 267.529C47.1704 264.33 45.0329 265.236 45.4908 255.983C45.5736 254.335 46.3132 253.002 46.3429 251.513C46.3965 248.882 44.7191 240.955 43.1691 240.331C45.109 237.14 44.3161 228.602 44.8766 226.087C45.049 225.328 46.2846 225.157 46.5476 222.824C46.7621 220.933 45.7727 216.062 45.9383 213.663C46.1186 211.117 47.1566 210.208 47.23 209.067C47.2982 207.989 46.4603 206.996 46.4651 205.527C46.4944 200.942 47.8431 196.79 47.868 193.166C47.907 187.925 45.4259 183.296 44.3244 178.91C44.4852 177.822 45.0177 176.753 45.0226 175.612C45.1006 161.495 45.5577 145.571 46.089 131.413C46.333 124.84 49.7007 108.495 44.0816 112.858C43.0975 110.574 45.363 93.9653 45.3971 90.8061C45.4309 87.6479 44.4233 85.1442 44.4085 82.6618C44.3646 75.1702 45.0906 69.895 44.2133 60.7761C43.9839 58.421 42.7902 55.8975 42.8041 54.5028C42.8236 52.8229 43.9781 51.0149 44.0514 48.8385C44.2171 43.6508 43.8374 33.9828 44.0371 29.0057C44.0761 28.097 45.0898 27.7778 45.4066 26.4782C45.4571 26.272 45.5053 26.0648 45.5511 25.8571L45.8723 11.4994L58.0197 18.4257C61.8083 21.7024 66.4726 23.9692 67.1027 20.7804C71.9344 25.4829 78.01 26.8638 83.3466 29.6337C94.6268 35.4971 114.634 47.1779 125.021 51.2503C131.57 53.8177 132.104 52.456 140.55 58.4486C142.425 59.7787 144.245 61.1891 146.521 62.7974C151.857 66.57 155.816 71.7603 161.703 71.2708C167.642 75.4361 172.972 77.6436 176.359 82.6178C177.229 82.3347 178.099 82.0516 178.968 81.7684C179.753 82.1743 180.538 82.5802 181.323 82.986C181.264 83.6731 181.206 84.3602 181.148 85.0473C186.633 88.2079 194.931 89.7426 199.634 92.3079C207.52 96.6068 227.386 108.5 234.471 113.303C238.233 115.852 239.091 114.777 240.043 118.457C241.025 118.767 242.007 119.078 242.988 119.389C243.835 119.154 244.681 118.919 245.528 118.684C250.642 121.423 256.243 125.529 261.108 128.149C269.975 132.923 284.072 138.642 292.442 144.422C294.54 145.873 296.73 148.486 298.921 149.655C302.109 151.357 303.873 149.941 307.926 152.088C314.907 155.793 326.701 164.927 333.36 168.318C335.337 169.326 336.617 169.136 338.004 169.792C343.824 172.536 348.433 175.101 354.422 176.977C359.289 181.882 357.559 183.879 358.124 187.144C358.556 189.611 360.579 195.881 360.356 197.716C360.198 199.006 357.899 199.529 357.851 201.016C350.375 198.181 348.003 195.568 343.234 190.86C332.746 185.272 322.258 179.683 311.77 174.095C311.165 172.942 310.559 171.789 309.954 170.636C309.955 170.634 309.956 170.633 309.956 170.631C306.341 167.723 303.75 168.448 301.383 167.65C278.724 160.015 239.445 135.152 216.847 122.407C211.977 119.662 195.517 111.871 192.705 109.009C191.977 108.266 192.267 107.15 191.361 106.604C182.742 102.699 174.123 98.7939 165.504 94.8888C149.259 84.1233 130.925 75.8401 113.594 66.7706C92.2711 55.612 71.0285 44.5339 49.9094 33.4195L62.5978 25.8571C62.924 54.4682 63.12 82.9479 62.9738 111.327C62.9202 121.386 63.7592 134.152 63.2182 143.999C62.9939 148.109 61.1955 149.822 62.5358 155.221C62.0513 155.278 61.5667 155.335 61.0822 155.391C61.6672 160.103 62.7697 163.114 62.8818 168.397C62.9744 172.845 63.0464 184.615 62.8611 188.546C62.7686 190.585 61.8632 189.825 61.8677 191.726C61.8824 194.981 63.1341 201.934 63.1341 206.425C63.1341 210.493 62.0912 217.351 62.2422 220.479C62.7784 231.742 64.3244 244.011 63.9101 256.015C63.7929 259.33 62.6189 263.595 62.6517 264.634C62.7199 266.662 63.8603 267.266 64.0069 268.629C64.7477 275.549 63.3926 286.337 63.3388 293.121C63.1647 315.055 63.6534 338.282 63.4562 360.143L49.501 351.826C49.6513 351.746 49.8016 351.666 49.9518 351.587C62.2449 345.087 82.4743 333.917 94.1743 328.563C96.6974 327.409 96.6427 328.859 98.6873 327.753C100.954 326.526 101.78 325.12 102.807 324.487C109.914 320.1 125.696 310.593 133.03 307.607C134.428 307.039 135.85 307.382 136.638 306.952C137.038 306.736 137.623 305.66 138.845 304.921C149.636 298.397 157.899 294.371 168.863 288.701C189.859 277.837 213.357 263.713 235.517 252.491C240.345 250.046 244.529 249.984 245.189 249.605C246.639 248.776 246.959 247.122 249.78 245.231C259.165 238.952 273.143 232.971 282.237 227.31C286.731 224.513 292.329 219.605 296.728 216.81C300.24 214.578 309.174 210.483 310.447 208.969C311.223 208.05 311.009 206.565 312.104 205.772ZM199.504 291.606C199.083 289.274 193.136 294.618 196.276 294.294C196.983 294.221 199.614 292.212 199.504 291.606ZM48.9661 156.72C48.3229 156.791 47.6796 156.863 47.0364 156.934C47.3041 157.954 47.5717 158.975 47.8394 159.995C48.2261 159.422 48.6127 158.848 48.9994 158.275C48.9883 157.757 48.9772 157.238 48.9661 156.72Z" fill="black"/>
</g>
<defs>
<clipPath id="clip0_43_46">
<rect width="390" height="390" fill="white"/>
</clipPath>
</defs>
</svg>
