<svg width="390" height="390" viewBox="0 0 390 390" fill="none" xmlns="http://www.w3.org/2000/svg">
<path d="M49 49H341V341H49V49Z" fill="#9D2200"/>
<path d="M106.271 61.9808C104.879 62.1367 102.914 61.2936 101.272 61.2492C94.3926 61.0543 91.8436 60.4698 85.6194 60.1384C76.3906 59.646 49.0007 60.7541 49 54.897C49 54.8968 49 54.8967 49 54.8965C49 54.8391 49.0027 54.781 49.008 54.7222C49.1039 53.6064 51.4336 52.3882 51.7793 51.1263C52.1245 49.8638 51.8657 41.7138 55.1745 41.2556C59.972 40.6519 71.4806 42.7416 74.0394 42.649C75.7887 42.5851 77.9423 41.8442 80.1792 41.7127C87.3913 41.2887 91.1651 41.8305 97.6628 39.8179C100.262 40.8785 102.861 41.9391 105.46 42.9997C108.851 42.5079 113.991 43.9067 116.051 43.8296C117.741 43.7663 118.732 42.9276 120.493 42.8886C122.469 42.8401 125.503 43.7454 129.097 43.609C134.989 43.3897 136.037 41.2018 139.572 40.924C143.238 40.6365 148.939 41.8256 153.616 41.0557C154.203 40.815 154.789 40.5743 155.376 40.3336C154.956 39.7893 154.535 39.245 154.115 38.7007C156.471 38.4473 157.484 39.5628 159.649 39.583C162.196 39.6074 163.495 38.5498 165.209 38.5547C166.613 38.5596 168.517 39.4076 170.338 39.3545C172.992 39.2814 172.412 38.057 173.84 37.8279C174.41 37.7389 184.946 37.0632 185.54 37.0535C190.061 37.0052 190.454 38.6811 194.059 38.8277C204.057 39.2273 214.32 37.8731 223.568 37.3613C227.698 37.1324 232.007 37.2298 236.124 37.4978C229.639 41.787 243.992 45.1251 238.624 38.4135C243.205 39.3683 246.453 37.5565 250.796 37.8628C253.605 38.0627 255.55 38.9933 259.561 38.9689C266.678 38.9197 274.463 36.2744 276.51 41.0557C284.864 40.2128 292.1 41.9472 295.112 37.7263C297.266 37.4685 302.787 39.9826 305.204 40.3241C307.489 40.6458 325.023 41.781 327.891 41.8444C330.76 41.9077 335.781 41.9767 338.197 41.6064C339.18 41.458 340.067 40.8988 341 40.3841L349.803 40.5801L349.616 49C350.691 50.9496 351.572 53.1026 348.111 56.7567C348.525 63.0396 348.379 65.2781 347.784 71.1215C347.677 72.1796 346.917 72.2991 346.916 72.9171C346.916 74.1903 347.478 76.3564 347.546 78.6292C347.658 82.3665 346.06 84.4994 348.502 84.0828C348.911 86.5467 349.32 89.0107 349.73 91.4746C349.259 92.339 348.787 93.2034 348.316 94.0677C348.83 95.3851 349.343 96.7025 349.857 98.0198C346.323 96.4726 348.408 105.744 350.436 102.734C349.705 107.51 348.974 112.287 348.243 117.063C344.227 116.396 347.779 127.55 349.963 126.611C349.96 127.158 349.957 127.704 349.954 128.251C348.886 133.036 349.759 137.43 349.043 143.262C348.326 149.093 347.935 148.546 346.088 150.319C346.194 151.692 346.299 153.064 346.405 154.436C351.47 161.637 342.701 160.364 346.586 172.695C343.403 176.635 345.075 186.346 346.04 192.785C346.152 193.535 346.77 193.548 346.961 194.545C347.419 196.985 346.625 203.21 348.617 202.998C348.041 205.153 347.464 207.308 346.888 209.463C347.25 211.224 347.612 212.986 347.975 214.747C348.597 214.738 349.219 214.729 349.841 214.72C347.721 218.267 348.536 223.841 348.029 226.59C347.926 227.137 347.068 227.255 346.834 228.956C346.556 230.943 346.81 234.647 346.542 237.016C347.492 237.937 348.443 238.858 349.393 239.778C349.909 244.014 347.4 245.503 347.205 247.99C347.171 248.438 347.351 256.608 347.405 257.048C347.83 260.652 349.967 259.631 349.509 270.054C349.426 271.91 348.687 273.411 348.657 275.089C348.603 278.052 350.281 286.982 351.831 287.685C349.891 291.279 350.684 300.896 350.123 303.729C349.951 304.584 348.715 304.777 348.452 307.405C348.238 309.536 349.227 315.022 349.062 317.724C348.881 320.592 347.843 321.616 347.77 322.902C347.702 324.116 348.54 325.235 348.535 326.889C348.506 332.054 347.157 336.731 347.132 340.813C347.132 340.875 347.132 340.938 347.132 341L346.992 347.265L341 347.132C335.173 347.145 330.016 349.586 325.129 350.676C323.903 350.515 322.699 349.982 321.413 349.977C305.512 349.899 287.575 349.442 271.627 348.911C264.223 348.667 245.811 345.299 250.725 350.918C248.153 351.902 229.444 349.637 225.886 349.603C222.328 349.569 219.508 350.577 216.712 350.592C208.273 350.635 202.331 349.909 192.059 350.787C189.406 351.016 186.563 352.21 184.992 352.196C183.1 352.176 181.064 351.022 178.612 350.949C172.768 350.783 161.878 351.163 156.272 350.963C155.248 350.924 154.889 349.91 153.425 349.593C147.724 348.355 141.333 348.463 142.464 351.699C135.157 349.862 128.397 351.538 121.625 351.64C107.307 351.85 81.2245 351.095 68.7509 352.455C60.8859 353.312 61.0871 354.764 49.5073 353.511C49.3382 353.493 49.1691 353.474 49 353.455L36.2736 353.172L36.5446 341C36.8154 338.598 37.1628 336.173 37.4724 333.26C38.2523 325.952 40.9339 319.248 37.7025 313.678C38.5406 305.561 37.9463 299.097 40.7097 293.075C40.0469 292.365 39.3841 291.655 38.7213 290.945C38.7049 289.95 38.6885 288.955 38.6721 287.96C39.3043 287.65 39.9364 287.339 40.5685 287.029C40.7387 279.9 38.1406 270.856 38.1596 264.822C38.1888 254.705 39.1982 228.648 40.0512 219.055C40.5041 213.962 39.1503 213.688 41.9333 210.772C41.7397 209.633 41.546 208.493 41.3524 207.354C40.7431 206.641 40.1337 205.929 39.5243 205.216C39.4999 198.682 40.4465 190.931 40.4368 184.707C40.4173 173.364 38.7402 156.331 39.8417 144.941C40.1195 142.085 41.3762 138.514 41.362 135.718C41.3425 131.647 39.257 130.658 39.218 125.492C39.1547 116.589 41.5773 100.009 41.3921 91.5941C41.3385 89.0947 40.5625 87.9286 40.4796 86.2028C40.1238 78.9662 40.187 73.0249 38.9879 66.0859C40.9864 58.6352 43.5659 59.2788 46.1687 56.9698C48.1332 55.2199 52.6859 49.854 54.4064 49.0923C55.6152 48.5573 57.1701 50.555 58.5007 49.8052C59.5632 58.7318 58.3935 62.4821 56.5218 69.7306C56.5964 83.1166 56.671 96.5026 56.7455 109.889C56.0193 111.107 55.293 112.324 54.5667 113.542C54.5651 113.542 54.5635 113.542 54.5619 113.542C53.7238 118.683 55.5942 120.862 56.0187 123.634C60.0839 150.176 56.9022 202.417 56.444 231.637C56.3466 237.934 57.3252 258.417 56.1457 262.737C55.8385 263.856 54.7186 264.167 54.6699 265.357C55.3358 275.99 56.0018 286.622 56.6678 297.254C55.5228 311.641 55.7534 326.347 56.1214 341L49 333.879C56.6167 333.687 64.2188 333.459 71.754 333.367C131.36 332.641 190.371 331.758 249.001 332.026C260.332 332.08 274.711 331.241 285.804 331.782C290.434 332.006 292.363 333.805 298.445 332.464C298.509 332.949 298.572 333.433 298.636 333.918C303.944 333.333 307.336 332.23 313.286 332.118C318.297 332.026 331.555 331.954 335.983 332.139C338.28 332.231 337.424 333.137 339.565 333.132C339.991 333.131 340.473 333.112 341 333.081L333.081 341C332.844 336.987 331.866 330.349 331.866 325.878C331.866 321.296 332.909 313.57 332.758 310.047C332.222 297.359 330.676 283.539 331.09 270.018C331.207 266.283 332.381 261.479 332.348 260.31C332.28 258.025 331.14 257.344 330.993 255.81C330.252 248.014 331.607 235.862 331.661 228.221C331.837 203.321 331.339 176.943 331.549 152.151C331.68 136.487 331.479 110.458 332.337 95.997C332.522 92.8786 333.772 93.7099 333.772 91.0914C333.772 88.1881 332.928 86.6157 332.859 85.2591C332.426 76.7318 331.682 58.8553 332.195 49L341 57.8051C340.001 57.7531 339.084 57.6882 338.268 57.6088C336.579 57.4432 335.354 56.4643 334.343 56.4678C333.831 56.4678 332.675 57.1359 331.068 57.2042C316.881 57.8086 306.536 57.419 292.634 57.1899C266.009 56.7561 235.16 57.9989 207.19 57.3264C201.096 57.1801 196.917 55.2439 196.06 55.2634C194.179 55.3024 192.976 56.6048 189.167 56.9265C176.504 57.9838 159.449 56.5941 147.405 57.247C141.454 57.5687 133.277 59.2219 127.422 59.5877C122.745 59.8801 111.699 59.2316 109.626 59.9575C108.365 60.396 107.781 61.8045 106.271 61.9808ZM263.834 40.0559C263 42.3078 271.757 40.4364 268.472 39.2276C267.732 38.9554 264.049 39.4714 263.834 40.0559ZM300.133 346.034C300.214 346.677 300.294 347.32 300.374 347.964C301.523 347.696 302.673 347.428 303.823 347.161C303.176 346.774 302.53 346.387 301.884 346.001C301.301 346.012 300.717 346.023 300.133 346.034Z" fill="black"/>
</svg>
