<svg width="390" height="390" viewBox="0 0 390 390" fill="none" xmlns="http://www.w3.org/2000/svg">
<g clip-path="url(#clip0_25_105)">
<path d="M38.7241 25.0024C49.1092 15.8851 192.551 16.4194 203.857 29.2965L360.53 207.754C371.835 220.631 372.581 238.461 362.196 247.579L226.954 366.312C216.569 375.43 198.985 372.382 187.68 359.505L31.0066 181.047C19.7013 168.17 28.3391 34.1198 38.7241 25.0024Z" fill="#E66100"/>
<path d="M15.716 74.8052C15.6784 73.5322 16.7013 71.7204 16.8997 70.2127C17.7548 63.8569 18.6166 61.494 19.6887 55.7862C21.1704 47.4049 24.296 20.7812 34.8336 20.571C34.8337 20.5711 34.8338 20.5712 34.8339 20.5713C34.8717 20.6145 34.9056 20.662 34.9357 20.7139C35.193 21.214 34.7353 22.4637 34.703 23.6139C34.6913 23.8952 34.6629 24.2238 34.7084 24.4442C34.7508 24.6689 34.8033 24.8855 34.8678 25.0869C34.9968 25.4898 35.1737 25.8319 35.4141 26.0551C36.3959 26.9624 43.7025 30.3406 43.4328 32.4475C42.7362 35.875 38.8048 45.4098 38.546 47.7998C38.3636 49.2796 38.7822 51.385 38.6284 53.3521C38.1252 59.8501 37.2002 63.0918 38.5573 69.1665C37.2538 71.3659 35.9638 73.5825 34.6825 75.8542C34.8813 78.9141 33.0886 83.4837 33.0209 85.3405C32.9623 86.8734 33.7276 87.8579 33.6489 89.442C33.5659 91.218 32.4649 93.9259 32.3965 97.1839C32.2858 102.541 34.429 103.614 34.5428 106.819C34.6627 110.145 33.2561 115.244 33.8978 119.513C34.122 120.049 34.3469 120.584 34.5726 121.117C35.1274 120.755 35.6825 120.394 36.2379 120.033C36.4289 122.144 35.2899 123.044 35.2255 124.998C35.1515 127.299 36.1918 128.445 36.1653 130.013C36.1434 131.284 35.2786 132.985 35.325 134.596C35.3905 137 36.618 136.479 36.8484 137.758C36.913 138.278 37.7232 147.574 37.7799 148.139C37.9563 152.111 36.303 152.541 36.3254 155.703C36.3756 159.846 36.915 163.94 37.7793 167.704C38.195 169.469 38.7201 171.303 39.2744 172.7C39.5497 173.396 39.8203 173.938 40.0416 174.261C40.2121 174.534 40.4679 174.502 39.6801 173.432C40.033 173.782 40.3823 174.13 40.7274 174.479C43.3921 177.167 45.9197 180.193 48.2036 183.201C41.0657 181.572 47.2206 193.642 49.0243 185.524C51.072 189.303 54.3942 190.341 56.7855 193.53C58.3308 195.593 58.8049 197.543 61.2444 200.285C65.5772 205.146 72.2641 208.753 69.9067 213.315C75.583 218.503 78.6475 224.622 83.6369 223.907C85.1311 225.219 86.5743 230.673 87.7762 232.56C88.9138 234.343 98.6443 247.147 100.328 249.161C102.012 251.175 104.991 254.673 106.728 256.09C108.904 257.874 113.474 256.445 112.889 263.536C116.993 267.583 118.234 269.218 121.314 273.628C121.872 274.426 121.373 275.01 121.746 275.435C122.514 276.311 124.244 277.43 125.667 278.947C128.007 281.442 128.093 283.964 129.677 282.066C131.472 283.49 133.267 284.914 135.061 286.338C135.229 287.243 135.397 288.148 135.564 289.054C136.745 289.62 137.926 290.187 139.108 290.754C135.518 292.022 142.682 297.021 142.388 293.613C144.722 297.379 147.056 301.145 149.389 304.912C145.969 307.103 155.371 312.428 156.445 310.341C156.773 310.719 157.1 311.097 157.428 311.475C159.514 315.469 162.822 317.914 165.804 322.396C168.786 326.879 168.161 326.76 167.843 329.198C168.751 330.072 169.659 330.946 170.567 331.819C178.719 333.429 171.362 338.339 181.724 344.254C181.712 348.301 186.753 352.89 191.1 356.502C191.84 357.093 192.573 357.613 193.259 358.068C193.765 358.401 194.198 357.965 194.894 358.338C196.509 359.328 200.087 362.574 200.95 360.695C202.004 361.964 203.194 363.161 204.516 364.249C205.877 364.354 207.213 364.344 208.488 364.218C208.598 363.605 208.709 362.993 208.82 362.381C210.742 364.992 214.642 364.077 216.31 364.089C216.667 364.102 216.954 364.945 218.116 364.809C219.5 364.669 221.563 363.297 222.911 362.476C222.876 362.168 222.833 361.862 222.782 361.561C222.786 360.638 222.791 359.716 222.795 358.794C225.367 355.85 228.046 356.837 229.885 355.482C230.215 355.237 235.713 350.17 235.98 349.864C238.178 347.37 236.066 346.38 243.534 340.433C244.865 339.375 246.385 339.024 247.558 338.034C249.631 336.285 254.664 329.635 254.124 328.046C257.875 327.334 263.964 320.933 266.282 319.645C266.983 319.258 267.931 320.07 269.911 318.682C271.517 317.557 274.637 313.501 276.604 311.995C278.695 310.399 280.084 310.561 281.016 309.841C281.895 309.159 282.112 307.854 283.253 306.859C286.823 303.763 290.928 301.954 293.751 299.509C297.836 295.975 299.784 290.962 302.454 287.153C303.403 286.534 304.582 286.207 305.469 285.435C316.453 275.896 329.087 265.412 340.402 256.185C345.654 251.899 360.534 243.317 353.448 242.06C353.671 241.604 354.418 240.859 355.491 239.941C356.602 239.044 358.25 237.573 359.349 235.453C360.478 233.383 360.93 230.891 360.917 229.986C360.905 227.671 359.548 226.002 359.036 224.287C357.815 220.401 356.46 217.185 353.476 213.947C352.113 212.476 350.597 210.931 348.827 209.257C347.053 207.585 344.44 206.418 343.502 205.329C342.375 204.015 342.013 201.853 340.589 200.119C337.186 195.992 330.327 188.755 327.093 184.769C326.505 184.039 327.049 183.123 326.404 181.908C323.893 177.171 319.955 172.849 318.205 175.761C315.175 169.525 309.836 165.983 305.671 161.395C296.871 151.689 281.695 133.259 273.144 125.58C267.752 120.738 266.783 121.834 260.735 113.047C259.392 111.096 258.129 109.089 256.496 106.727C252.671 101.188 250.639 94.8099 244.849 93.1121C240.579 86.9789 236.231 82.9267 234.673 76.9632C233.746 76.9124 232.82 76.8616 231.893 76.8107C231.28 76.1374 230.667 75.4641 230.054 74.7908C230.342 74.1603 230.63 73.5299 230.917 72.8994C226.742 67.886 219.331 63.3821 215.703 59.221C211.498 54.4003 203.048 44.0354 196.529 35.7294C197.023 36.2328 197.279 36.3293 197.292 36.3044C197.303 36.2714 197.184 36.1603 196.97 36.0209C196.459 35.7048 195.94 35.4331 195.214 35.1158C193.842 34.5123 192.392 34.0032 191.275 33.6039C187.253 32.2386 186.824 33.5949 184.73 30.4032C183.664 30.4233 182.745 30.4765 181.709 30.5191C181 31.0305 180.285 31.5442 179.563 32.06C173.93 31.3022 167.135 29.6874 161.509 29.2587C151.389 28.4457 135.892 29.446 125.641 28.1491C123.067 27.8145 119.848 26.5049 117.311 26.4913C113.626 26.4737 112.699 28.549 108.04 28.5837C100.006 28.6142 84.9471 26.4901 77.3557 27.0674C75.0781 27.2277 74.1813 28.0533 72.5698 28.226C66.2003 28.9504 60.7304 29.2971 54.949 31.2039C48.3854 30.0553 48.5239 27.5373 46.0809 25.3443C44.1463 23.7537 38.5647 20.2546 35.3017 20.8155C33.4942 20.6132 36.3328 16.7457 34.2365 16.5474C38.4987 13.886 40.0083 13.7936 42.0708 13.1905C43.9649 12.7406 45.4524 12.5795 47.0371 12.5136C49.9461 12.4356 52.6879 12.8459 56.2962 13.4046C68.8252 12.054 81.2234 11.519 93.6113 11.1913C94.742 11.8963 95.8764 12.6039 97.0139 13.314C97.0139 13.3156 97.014 13.3172 97.014 13.3187C101.795 14.0923 103.736 12.2184 106.327 11.7852C131.715 9.06836 176.301 7.18636 209.358 24.2809C209.388 24.3153 209.419 24.3504 209.45 24.3859C213.227 28.8243 226.245 42.1847 227.961 45.921C228.405 46.8927 227.751 47.8455 228.433 48.6959C235.351 55.5667 242.269 62.4375 249.188 69.3082C261.078 85.4888 275.801 100.081 289.301 115.052C315.517 144.123 341.608 172.929 367.26 201.846C379.02 214.642 384.954 238.856 368.121 254.327C367.78 254.624 367.439 254.92 367.098 255.217C359.272 262.016 349.94 271.326 341.956 277.615C338.625 280.241 336.112 280.054 332.815 284.732C332.451 284.406 332.088 284.081 331.724 283.755C328.461 287.398 326.856 290.274 322.839 293.95C319.455 297.044 310.388 305.101 307.221 307.635C305.581 308.951 305.572 307.754 304.103 309.05C301.592 311.274 297.033 316.942 293.555 319.996C290.404 322.762 284.405 326.641 282.082 328.881C273.713 336.942 265.231 346.446 255.662 354.296C253.016 356.462 248.939 358.48 248.156 359.21C246.631 360.641 246.915 361.909 245.957 362.945C242.832 366.32 237.907 370.129 233.381 373.633C229.707 376.618 225.548 378.436 222.138 379.455C205.925 384.103 190.277 376.616 180.607 365.714C172.948 357.103 165.305 348.501 158.023 340.05C148.667 329.194 132.805 311.43 124.721 300.922C122.978 298.656 124.418 298.403 122.838 296.603C121.085 294.607 119.502 294.083 118.632 293.195C112.604 287.053 99.4487 273.362 94.745 266.696C93.8501 265.426 93.8462 263.938 93.2331 263.245C92.9242 262.893 91.7242 262.539 90.7031 261.479C81.6852 252.124 75.7341 244.754 67.515 235.045C54.4987 219.676 38.8784 203.077 24.6023 186.67C21.009 181.97 21.0359 179.654 20.209 176.822C19.6262 174.26 19.2625 171.745 18.999 169.368C18.365 163.37 20.122 159.357 20.0295 158.491C19.8818 156.751 18.505 155.717 18.0327 152.11C16.4699 140.257 18.1094 124.397 17.9167 113.257C17.8057 107.74 16.5542 100.077 16.5487 94.6296C16.5195 90.2484 17.9776 80.1208 17.4471 78.0968C17.1149 76.8862 15.7613 76.2161 15.716 74.8052ZM63.0066 203.94C60.8114 204.853 67.5032 209.638 66.4288 206.582C66.1868 205.894 63.5759 203.702 63.0066 203.94ZM322.701 275.554C322.222 275.119 321.742 274.684 321.263 274.249C320.649 275.144 320.035 276.039 319.422 276.934C320.121 276.834 320.82 276.735 321.519 276.636C321.913 276.275 322.307 275.914 322.701 275.554Z" fill="black"/>
<path d="M125.098 96.5367C125.578 96.0399 123.732 95.2601 123.652 95.094C123.476 94.7107 123.007 94.7858 122.514 94.8601C122.017 94.956 121.477 95.1315 121.082 95.5032C120.632 95.9202 120.724 96.8691 120.28 98.0231L120.267 97.5022C119.507 97.7817 117.629 102.027 109.266 102.269C109.266 102.269 109.266 102.269 109.265 102.269C109.133 102.277 108.999 102.284 108.864 102.291C106.292 102.412 103.449 101.998 100.538 102.115C97.6251 102.232 78.8645 103.535 77.7661 103.024C76.7727 102.652 78.5921 100.37 79.8144 98.9106C79.8264 98.8466 79.7931 98.6489 79.8065 98.5852C80.3601 98.0487 80.7698 97.619 80.7031 97.4095C80.5538 96.9511 78.8444 96.3686 78.5486 95.7312C77.6116 93.5995 78.8672 92.7324 74.4909 89.7306C77.0388 88.9057 79.617 88.1016 82.2715 87.3492C81.8211 86.2516 82.9875 84.9283 84.5493 83.3382C84.7905 83.0183 85.2157 81.8825 85.503 81.6034C86.5623 80.9635 87.4588 80.658 87.7381 80.2177C88.2885 79.3627 87.3352 77.5572 88.2257 76.6428C89.0459 75.8292 91.0259 75.8314 93.4089 75.1095C94.0341 74.9248 94.6764 74.7043 95.3471 74.4174C100.389 72.5251 102.73 68.3764 107.488 68.7307C107.636 68.7367 107.788 68.7534 107.944 68.7815C109.37 69.0657 111.109 69.9438 113.571 72.1123C115.885 74.1222 119.783 78.7741 120.705 84.9952C120.832 85.8329 121.056 86.4331 121.568 86.9937C122.148 87.2362 122.725 87.4735 123.299 87.7348C124.538 87.4343 125.774 87.1274 127.005 86.7803C127.694 88.0696 125.141 88.7105 125.114 89.7708C125.07 91.0147 127.484 91.7365 127.426 92.6566C127.373 93.4144 125.345 94.2351 125.353 95.1748C125.344 96.5696 128.171 96.6904 128.561 97.5989C128.862 97.836 128.695 104.779 128.376 105.311C127.308 108.411 123.62 107.082 122.175 109.082C121.698 109.724 121.239 110.386 120.783 111.069C119.516 112.223 118.401 122.294 104.793 128.117C103.396 128.66 101.916 129.076 100.405 129.348C99.2235 129.69 97.4386 129.704 94.9677 129.301C98.5409 119.319 89.8239 111.669 92.8932 127.19C90.8732 126.007 88.7036 126.358 85.1815 126.049C81.8583 125.716 76.0356 124.516 71.1104 118.077C69.3125 115.649 68.2154 113.053 67.6133 110.638C67.999 109.478 68.6978 108.358 68.2999 107.286C67.3243 104.757 60.7037 103.164 71.3366 100.1C68.8016 97.5522 72.4858 94.5331 62.6842 93.5752C61.9952 92.4274 67.7712 89.1213 68.7887 87.5292C69.1691 86.9447 69.6541 85.1797 71.5675 81.4982C72.5841 79.6503 74.1053 77.0366 77.1511 74.3903C80.1362 71.7037 84.76 69.9074 88.018 69.7011C89.3403 69.8335 90.3984 69.9958 90.8303 70.0089C92.3468 70.0246 95.077 70.2778 96.6504 69.6695C97.6107 69.2727 98.9453 66.6777 100.38 65.8088C101.736 64.9185 103.418 65.8607 102.853 72.0158C103.456 72.1121 103.997 72.2351 104.491 72.3815C106.121 72.6422 106.768 73.4223 108.063 75.6373C108.35 76.1226 107.411 77.6072 107.644 77.7699C108.122 78.1047 109.779 77.6865 111.012 78.5838C113.128 80.1421 111.356 84.1125 115.657 80.4303C117.212 81.4511 118.936 83.0154 120.443 85.3315C120.789 85.4203 121.161 85.5831 121.542 85.7867C120.624 86.4673 119.707 87.1632 118.78 87.8498C120.084 88.06 121.406 88.3785 122.733 88.8142C114.675 89.9047 120.255 93.588 124.605 91.3494C123.43 94.6784 121.77 98.0807 119.553 100.893C113.447 99.6915 114.698 102.207 117.044 105.173C118.326 106.313 119.963 107.556 121.549 108.048C121.433 108.307 121.314 108.567 121.186 108.836C117.864 110.089 118.558 113.583 113.59 116.423C108.39 118.964 107.753 117.697 104.509 114.728C103.85 115.269 103.116 115.774 102.334 116.22C102.266 116.309 102.195 116.4 102.122 116.491C102.956 122.363 101.614 120.533 100.222 118.342C98.6075 116.152 97.8035 113.68 94.9135 118.407C93.5208 114.701 92.0284 113.938 89.6739 113.69C88.4982 113.744 86.6442 114.683 84.7649 114.992C84.3217 115.065 83.6898 116.347 82.9831 116.474C81.1952 116.861 78.9274 112.801 75.9264 116.16C75.656 114.821 75.496 113.478 75.4679 112.175C75.5645 111.463 75.696 110.772 75.864 110.11C74.6536 109.871 73.4532 109.563 72.2561 109.168C71.0177 109.894 69.7796 110.621 68.5418 111.348C71.6935 107.106 68.956 105.365 69.6017 103.468C69.7416 103.114 71.605 102.468 71.9099 101.53C72.2703 100.447 71.3509 98.7632 71.8635 97.509C69.6359 97.272 67.4086 96.9066 65.1929 96.4077C64.4087 94.7668 66.3255 93.7398 68.0452 93.0785C69.1565 92.6906 70.1916 92.3899 70.4283 91.9278C70.4335 91.7785 70.9787 87.3723 71.0752 87.0145C71.1062 84.7144 65.2797 83.2038 71.5135 76.4536C72.7234 75.3259 74.8357 75.6486 75.8879 74.8399C76.4747 74.3894 77.1853 73.3884 77.9754 72.1693C78.5277 70.1886 79.4903 66.723 78.7551 64.3441C80.7771 65.8443 82.8902 65.598 85.2895 65.1571C87.6366 64.7013 90.3922 64.1735 91.7432 64.743C92.5574 65.1016 92.8785 67.8701 95.0212 68.5551C95.309 68.6507 95.6741 68.6818 96.1029 68.6804C97.0372 68.5426 98.7966 67.2198 99.6006 67.6865C100.61 68.2836 100.509 70.7153 100.924 70.9753C101.316 71.2209 102.155 69.4273 102.789 69.5977C104.787 70.1723 105.61 73.7364 107.116 74.4439C109.242 75.4607 114.351 71.6531 118.998 72.159C119.483 73.0455 119.333 74.566 120.024 75.2737C121.721 77.0202 123.404 79.2557 124.713 81.8806C126.069 84.4187 127.363 88.5915 127.37 92.3399C127.428 96.1139 126.593 99.0903 125.754 101.217C124.355 103.958 122.524 106.94 119.864 109.984C118.312 111.897 112.362 113.578 110.628 116.309C110.47 117.293 111.27 119.181 114.282 122.463C114.561 123.637 112.555 124.214 109.36 124.774C106.308 125.348 101.309 125.595 99.3052 125.779C95.7651 126.316 90.9099 128.481 86.137 126.708C85.2129 126.363 84.3403 125.969 83.5033 125.527C80.9562 124.061 79.9996 121.976 75.893 121.361C74.7577 121.192 72.112 122.62 71.5764 122.14C70.9384 121.56 71.9781 118.95 71.2794 118.081C69.6547 116.157 64.9164 112.34 63.1621 107.757C62.8635 106.97 64.8279 105.681 65.0439 104.336C65.5106 101.24 65.4318 98.1852 64.0419 96.0216C63.1626 96.2971 61.3161 96.5015 58.2073 96.8164C62.4956 96.5921 58.1381 94.7311 57.632 90.9277C57.4492 89.109 57.244 86.528 58.116 82.1143C58.8733 77.9187 61.9162 70.5532 67.854 65.765C71.7285 62.5984 75.3433 60.2352 77.2367 57.2622C79.3515 54.039 78.0275 50.8092 84.3237 51.6469C85.7241 51.8615 87.1822 52.3286 88.8824 52.6991C93.1407 53.5465 96.5256 59.3652 99.6105 51.9043C104.033 53.6852 108.617 53.4637 110.417 59.4549C110.435 59.8181 110.442 60.207 110.437 60.6239C111.163 59.2552 111.909 57.8951 112.688 56.5486C113.07 56.6442 113.466 56.7494 113.88 56.8668C113.484 58.277 113.08 59.6845 112.666 61.0889C114.836 62.4893 122.625 58.6814 128.837 65.5213C130.096 67.0043 131.703 69.1978 133.079 72.3657C135.158 78.1794 134.78 85.1141 133.557 89.0927C132.776 91.32 135.888 91.4128 129.541 93.0279C130.007 93.5104 130.464 94.0379 130.905 94.6097C132.308 94.9738 133.705 95.4051 135.091 95.8973C134.883 99.6965 132.299 106.233 126.078 112.938C124.365 114.757 122.13 116.611 119.597 118.027C114.928 121.19 110.589 124.83 105.17 123.22C103.637 122.721 101.76 119.878 100.339 119.84C98.2336 119.74 97.1152 124.564 93.3998 123.827C90.6598 123.246 86.8141 120.737 83.9141 117.239C80.7488 114.435 78.0337 109.848 77.2159 106.324C76.3076 102.748 76.511 100.292 76.6 98.5458C76.719 98.1792 76.7557 97.8298 76.6799 97.5144C76.521 96.8374 74.717 96.5583 74.5069 96.0066C74.0603 94.8382 73.8693 93.5973 73.5392 91.9527C73.2634 90.228 72.5831 88.4245 72.413 84.0158C76.0945 79.9596 81.22 77.9843 84.6024 78.8123C86.7783 80.4966 88.9032 82.4551 91.1439 84.3231C92.8948 85.7844 95.8405 88.1869 98.4235 90.8387C99.7103 92.1661 100.919 93.5471 101.758 94.9339C102.17 95.6307 102.503 96.3239 102.579 97.0736C102.606 97.4531 102.595 97.8355 102.358 98.2931C102.133 98.7242 101.784 99.2839 100.267 99.9737C99.6012 100.242 98.548 100.555 97.1993 100.66C95.422 100.821 91.5672 100.327 88.5306 97.747C84.9669 94.7185 84.2207 91.2208 83.9105 89.802C83.6201 88.2467 83.6106 87.7839 83.5009 87.9662C83.4338 88.1788 83.2225 89.071 83.621 91.2297C83.883 93.2121 85.9161 97.5236 89.2377 99.6808C92.1641 101.789 95.6038 102.287 97.2308 102.327C98.5192 102.405 99.5429 102.328 100.361 102.239C102.906 101.984 103.539 101.945 104.258 102.066C104.957 102.155 105.411 102.352 105.829 102.576C107.428 103.503 108.634 104.673 108.986 106.292C109.855 105.875 110.071 105.841 110.34 105.771C110.583 105.716 110.741 105.702 110.869 105.693C111.12 105.679 111.243 105.688 111.311 105.675C111.44 105.653 111.329 105.55 111.07 105.344C115.64 99.1043 113.394 95.8409 111.419 94.5573C111.617 93.615 111.588 93.8959 111.662 94.3312C111.722 94.8008 111.813 95.5566 111.922 96.449C111.895 95.6603 111.813 94.3449 111.059 92.3793C110.352 90.4444 108.608 87.9279 106.713 86.4387C106.242 86.5688 105.791 86.7257 105.361 86.9064C104.446 87.8278 103.611 88.8154 102.859 89.8576C102.857 89.8608 102.855 89.8639 102.853 89.867C101.523 91.3272 103.139 87.3527 102.911 86.2459C102.593 83.5888 101.406 82.2851 101.255 81.7448C101.148 81.4662 101.224 81.3462 101.42 81.3089C101.516 81.2914 101.641 81.2945 101.752 81.3272C101.806 81.3441 101.857 81.3678 101.876 81.4109C101.88 81.4624 101.931 81.4905 101.637 81.6987C97.1038 84.044 94.496 88.929 94.2232 91.0065C93.7922 93.2822 94.254 93.9998 94.5498 94.2763C95.2352 94.7302 95.7712 93.6185 95.8264 92.8307C95.92 92.235 93.686 90.5677 94.7243 90.1525C95.383 91.0672 96.0604 91.5325 96.6415 91.6437C97.6451 91.8302 99.7486 90.3053 100.102 90.5371C100.752 92.2297 100.802 92.8736 100.44 93.4999C100.085 94.0963 99.403 94.5629 98.5906 95.0276C98.6284 95.195 98.6715 95.3617 98.7186 95.5268C100.151 93.7977 99.6553 93.4017 99.1346 93.9664C98.5583 94.4988 97.9 95.7903 97.08 96.5922C96.4101 97.235 95.7217 98.0276 95.4441 98.6022C98.257 96.4865 100.03 92.9512 100.502 91.1297C101.046 89.208 101.026 88.4649 101.14 88.2569C101.231 88.0626 101.358 88.3775 101.571 89.0794C101.776 89.8262 102.089 90.811 102.38 93.1164C102.184 89.4055 101.102 87.707 100.773 86.9409C100.377 86.1666 100.381 86.1001 100.596 86.1466C101.027 86.287 102.284 86.995 103.227 87.4027C100.224 85.7853 96.6395 85.2972 94.401 85.4593C92.0936 85.6019 90.822 86.0674 90.0534 86.3521C88.574 86.9662 88.7265 87.0834 89.161 86.8289C89.256 86.7789 89.3629 86.6947 89.4847 86.5795C86.3678 88.6903 85.2554 88.9708 86.3972 88.9208C86.9152 88.9432 90.4492 90.0161 88.6711 88.7565C88.4864 88.8683 88.2733 88.9928 88.028 89.1434C89.092 89.4888 90.1582 89.8273 91.2269 90.1577C90.35 91.003 89.1938 92.4306 88.569 94.5659C87.9061 96.6456 88.0423 99.5277 88.7612 101.376C88.8126 101.582 88.8841 101.785 88.9769 101.981C89.4195 102.971 90.5375 104.481 91.4375 105.219C92.354 105.999 92.9222 106.194 93.2078 106.11C93.4999 106.019 94.352 104.108 94.4173 104.15C94.4745 104.216 93.5051 106.923 93.3526 106.889C93.2557 106.858 93.0381 104.377 92.6747 104.692C92.6332 104.732 92.5929 104.775 92.5543 104.822C97.1067 106.227 100.025 106.596 100.535 106.976C101.87 106.31 103.176 105.185 104.007 103.857C105.164 102.073 103.527 99.1333 103.681 98.941C104.085 98.3904 106.625 99.0734 107.104 98.6769C108.027 97.9312 108.141 96.8892 107.857 96.16C107.463 94.4037 106.013 93.1702 105.713 92.4063C105.208 91.1498 104.883 90.359 103.814 88.9078C102.368 87.0645 100.551 85.7554 99.4786 85.1455C98.3745 84.5131 97.9394 84.376 98.0543 84.3485C94.6363 83.3431 92.4313 83.6808 91.6107 83.7915C90.7564 83.9415 90.8935 83.9936 91.7097 83.8012C91.3624 83.9223 91.0206 84.0544 90.6852 84.1967C87.4094 85.5334 84.8309 88.0158 83.8004 89.4923C82.698 91.0273 82.5363 91.7219 82.525 91.919C81.3099 95.4468 82.4187 98.5961 83.5011 98.5746C83.9519 98.5978 86.7014 97.7138 86.6397 97.5332C86.6171 97.4673 86.4718 97.4178 86.2599 97.3697C86.2956 99.1043 85.8252 100.464 86.1435 101.189C87.1207 103.336 88.1504 104.689 88.403 105.326C88.6992 105.982 88.4413 106.135 88.0493 106.032C89.4154 106.793 90.7669 106.856 91.4944 106.237C91.915 105.909 92.2864 103.668 92.3931 103.683C92.4462 103.686 92.5383 105.235 92.7687 105.392C93.1673 105.681 93.4979 105.838 93.7788 105.911C98.7955 105.504 104.4 101.031 105.905 98.1747C107.696 95.2518 107.833 93.6923 107.979 92.7195C108.123 90.8469 107.691 90.811 107.526 90.9777C107.041 91.462 108.046 94.0347 108.597 94.2793C107.045 89.6942 102.254 85.7045 99.5798 84.683C96.7746 83.4538 95.3911 83.4003 94.5381 83.2665C93.6981 83.1737 93.3777 83.1754 93.2548 83.1543C93.1416 83.1369 93.241 83.1143 93.5206 83.0713C90.8739 83.4364 88.383 84.6876 87.0214 85.7889C85.615 86.904 85.0761 87.7847 84.9327 88.2297C84.7337 88.9059 87.1246 89.7536 88.4778 90.0238C88.8481 90.3404 89.1082 90.5344 89.0892 90.5419C88.9623 90.5817 86.2731 89.206 85.4033 89.3244C84.0837 89.4858 84.0545 90.1201 84.3197 90.2372C84.4466 90.3164 84.6277 90.3093 84.7176 90.3059C84.763 90.3063 84.7857 90.3082 84.7741 90.3548C84.7648 90.4108 84.7106 90.4675 84.6556 90.8175C84.974 93.2601 85.8864 95.6725 86.9203 97.469C90.469 103.193 93.235 104.616 94.5976 106.232C98.5079 109.136 104.824 110.049 108.658 108.758C108.829 108.707 109.003 108.649 109.182 108.584C113.698 106.779 114.961 104.218 116.842 102.115L118.66 98.8075C119.33 97.5843 119.681 97.1192 120.153 96.9396C121.336 96.5478 124.556 97.0754 125.098 96.5367ZM70.2017 104.971C75.2509 103.776 70.303 102.053 67.9018 103.858C67.3612 104.286 68.8848 105.289 70.2017 104.971ZM118.404 96.6666C119.869 96.9154 121.338 97.1436 122.809 97.3565C122.428 96.1143 121.962 94.8022 121.352 93.5164C120.455 94.2306 119.515 94.8028 118.563 95.2453C118.529 95.7449 118.473 96.2186 118.404 96.6666Z" fill="black"/>
<circle cx="96.5" cy="89.5" r="16.5" fill="black"/>
<path d="M60.5119 16.3638C60.5571 16.2667 60.6385 16.7836 60.6967 16.8093C60.9404 16.9224 61.0426 17.2789 61.2745 17.475C61.6118 17.7674 62.6262 17.0423 62.7827 20.6432C62.7827 20.6433 62.7827 20.6434 62.7827 20.6435C62.7842 20.6788 62.7856 20.7146 62.7869 20.7507C62.8119 21.4369 62.753 22.1897 62.7722 22.9662C62.7912 23.7429 63.0117 28.7535 62.894 29.0406C62.7223 29.4198 62.2134 28.1534 62.1138 28.2141C62.0456 28.256 61.9767 28.7149 61.8895 28.7991C61.607 29.0705 61.4447 28.7424 61.2126 29.9884C61.0851 29.3392 60.9596 28.6898 60.8367 28.04C60.7049 28.3462 60.4747 27.4902 60.3922 27.5391C60.324 27.5794 60.2925 28.0961 60.2198 28.1213C60.1475 28.149 60.0341 27.7136 59.9073 27.6763C59.8861 27.6691 59.8167 27.6835 59.7958 27.6756C59.7811 27.6705 59.7659 27.6715 59.7503 27.6805C59.5201 27.8103 59.4464 29.1554 59.3063 29.3233C59.1619 29.497 58.9546 28.7604 58.7651 29.2301C58.7391 29.3777 58.7132 29.5252 58.6872 29.6728C58.6961 30.008 58.7049 30.3433 58.7137 30.6785C58.6194 30.8324 58.5951 30.1452 58.5115 30.131C58.4144 30.1138 58.3503 30.7634 58.2845 30.759C58.2306 30.7548 58.1683 30.2315 58.0971 30.2627C57.9948 30.3055 58.0011 31.0593 57.9436 31.1991C57.9209 31.2534 57.5084 31.6608 57.4865 31.6664C57.3139 31.6927 57.3179 30.6613 57.1824 30.5685C56.8056 30.3153 56.3992 31.1417 56.0461 31.4513C55.8871 31.5898 55.727 31.5276 55.5736 31.3606C55.8558 28.7246 55.3353 26.6634 55.4865 30.7959C55.3212 30.2062 55.1852 31.3196 55.0241 31.1294C54.9202 31.0053 54.8528 30.4319 54.7016 30.4455C54.4322 30.4733 54.1332 32.0994 54.0723 29.1567C53.7555 29.6737 53.4842 28.606 53.3697 31.2033C53.2904 31.3619 53.0847 29.8148 52.9934 29.6049C52.9084 29.4066 52.2484 28.7113 52.14 28.6737C52.0324 28.6356 51.844 28.5951 51.7566 28.8241C51.6447 29.1075 51.6097 31.8018 51.3609 28.6558C51.1312 28.9144 51.0483 28.8259 50.8232 28.4646C50.7826 28.3993 50.7678 27.9319 50.7448 27.932C50.6972 27.9331 50.6252 28.2804 50.5415 28.3246C50.4048 28.397 50.2991 27.4158 50.3554 28.9175C50.2721 29.1718 50.1895 29.4263 50.1076 29.6809C50.0673 29.3919 50.0267 29.103 49.9858 28.8141C49.9477 29.1316 49.9104 29.4491 49.8739 29.7666C49.857 27.5912 49.5606 28.8858 49.7169 30.1288C49.5296 29.6854 49.3403 29.2428 49.1474 28.8011C49.0614 26.3307 48.7501 28.5342 48.8568 29.8747C48.8375 29.8737 48.8181 29.8727 48.7989 29.8718C48.5974 29.2244 48.4692 29.7696 48.2413 29.342C48.0077 28.915 48.0117 28.6739 47.8713 27.5439C47.826 27.6122 47.7826 27.6805 47.7369 27.749C47.7145 30.8758 47.342 25.4913 47.0973 27.9118C46.7832 25.9728 46.5124 27.0327 46.3657 27.6477C46.3645 27.6525 46.3636 27.6586 46.3629 27.666L48.3078 26.6776C48.3715 26.7573 48.6199 26.987 48.6859 27.077C48.8597 27.3039 48.3742 27.1177 49.3109 27.9097C49.0069 27.7191 48.6965 27.5369 48.381 27.3616C48.5176 27.5461 48.6567 27.7283 48.7971 27.9093C49.0948 28.1499 49.3924 28.3906 49.6901 28.6313C48.6132 27.8877 48.8892 28.3471 48.5909 28.223C48.53 28.1983 48.1108 27.8772 47.9611 27.8353C47.7838 27.785 47.829 27.9832 47.6481 27.9489C48.0951 28.3277 48.5429 28.7054 48.9915 29.0821C49.1589 29.3874 47.8895 28.5071 47.7401 28.5071C47.7147 28.5061 47.6261 28.8132 47.6431 28.8462C47.7758 29.1074 48.8628 29.8485 48.4074 29.9964C48.326 30.0219 47.9243 29.8007 47.8723 29.8414C47.7798 29.9131 48.4182 30.7932 49.1765 31.3725C48.1266 30.7876 48.3031 31.3779 47.9566 31.2687C47.8507 31.2343 47.2293 30.796 47.0368 30.7861C46.8808 30.7768 47.2457 31.3113 47.0986 31.3405C46.9403 31.3697 46.3995 31.0272 46.3325 31.0425C46.2698 31.0573 46.6598 31.3977 46.6175 31.4505C46.4782 31.6107 45.6958 31.2734 45.5842 31.3983C45.4216 31.5773 46.5134 32.6663 46.9229 33.2482C46.8117 33.231 46.5195 33.0739 46.4832 33.1166C46.0268 33.6362 45.2996 34.0999 44.5571 34.4571C44.207 34.6396 42.0949 33.8633 44.7709 36.0637C45.1246 36.5808 43.3842 36.3495 43.2197 36.4591C43.0599 36.5771 43.3328 37.1628 43.202 37.2861C42.7921 37.6629 42.2351 37.547 41.8499 38.4404C41.743 38.6766 41.8918 39.4414 41.7517 39.5099C41.5874 39.5883 41.0713 39.0592 40.8381 39.1226C40.3243 39.2816 39.1667 39.9514 38.3322 39.9408C38.1835 39.9402 38.0416 39.3313 37.831 39.1601C37.0293 38.4987 36.2614 38.4729 36.1981 40.4686C35.7553 39.9814 35.3529 39.7941 34.911 39.7107C34.1911 39.5687 33.1902 39.6105 32.2336 38.9803C30.4363 38.0703 28.8219 34.3891 29.0923 32.6149C29.1641 30.739 29.4925 29.8832 29.3121 29.1403C29.308 29.1211 29.3036 29.1021 29.299 29.0834C28.9222 28.6013 28.1449 28.2795 29.024 28.1285C29.2229 28.0951 29.4774 28.0837 29.7159 28.0421C30.2777 27.9427 31.903 28.3371 30.1686 27.3365C30.7775 27.2258 30.5551 26.8219 32.2138 27.2768C31.8531 27.084 31.4926 26.8907 31.1324 26.6969C31.1406 26.6538 31.1486 26.611 31.1571 26.5675C31.5176 26.7142 31.8781 26.8611 32.2384 27.0082C32.4563 26.7779 31.1658 25.7566 31.2936 25.5122C31.4967 25.1123 32.5893 24.3072 33.2725 24.1551C33.6302 24.0784 32.9098 23.6605 34.4752 24.3682C34.3965 24.2643 34.3182 24.16 34.2404 24.0552C33.9296 23.8428 33.6202 23.628 33.3115 23.4121C33.46 23.1189 34.1615 23.0775 34.3301 22.7986C34.6155 22.3138 34.3661 20.8522 35.4784 20.6223C35.7485 20.5742 36.4976 20.9057 36.6446 20.7492C36.8657 20.5197 36.0498 19.5143 36.4775 19.1319C36.85 18.8105 37.742 18.6044 38.8455 18.546C39.2451 18.7639 39.6302 18.9794 39.7941 18.8586C39.893 18.7869 39.7813 18.3195 39.8447 18.2425C40.1098 17.9155 40.3931 17.8594 40.577 17.0323C41.3739 18.0791 41.7603 19.625 42.2726 21.146C42.4632 21.7211 42.7958 22.673 43.025 23.631C43.1369 24.1099 43.2295 24.591 43.2039 25.0278C43.1851 25.246 43.135 25.4556 42.9794 25.6368C42.8929 25.727 42.7401 25.8078 42.5489 25.8601C42.2915 25.8953 41.8556 25.9139 41.1997 25.5843C40.4933 25.2327 39.8142 24.283 39.6411 23.657C39.4402 23.023 39.4437 22.7493 39.384 22.792C39.3424 22.8304 39.2515 23.2026 39.3965 23.8827C39.524 24.5572 40.0644 25.4554 40.6666 25.9359C41.0123 26.2151 41.1208 26.2847 41.28 26.3944C41.4313 26.4953 41.5765 26.5799 41.7106 26.6522C41.9741 26.7957 42.2204 26.8964 42.3685 26.972C42.5957 27.1133 42.7742 27.2292 42.9149 27.3402C43.3118 27.7756 43.5202 28.1921 43.2503 28.6221C43.7232 28.6338 43.776 28.6459 43.877 28.6637C43.9675 28.6794 44.0116 28.6961 44.0486 28.7095C44.1219 28.7359 44.1482 28.751 44.1661 28.7501C44.1977 28.7492 44.1774 28.6872 44.1358 28.5731C44.0498 28.3456 43.8692 27.9105 43.6117 27.3878C43.3164 27.5269 42.9472 27.7093 42.5799 27.9033C42.618 27.8902 42.6545 27.8769 42.6892 27.8636C42.5818 27.4222 42.4344 26.9952 42.2502 26.5868C42.2498 26.5859 42.2493 26.5851 42.2488 26.5842C42.0852 26.0857 42.7075 27.0481 42.9238 27.2147C43.9131 28.0252 43.9919 28.0772 43.5477 28.3637C43.1256 28.6143 42.3194 28.9159 41.9745 29.2818C41.8246 29.4375 42.0635 30.3218 41.3439 30.15C41.1563 30.1045 40.5279 29.8213 40.4826 29.8473C40.6921 30.3659 40.9081 30.8829 41.1293 31.3974C39.8987 31.6742 40.2698 32.7045 40.1818 33.5081C40.1929 33.5135 40.2036 33.5156 40.2134 33.5141C40.2651 33.4833 40.6182 33.3114 40.4708 31.9806C40.3857 31.3343 39.9453 30.4062 39.3462 29.8365C38.7527 29.2522 38.1967 29.0058 37.8205 28.8645C37.2131 28.6225 36.5344 28.6243 36.1854 28.6716C35.8198 28.7186 35.6917 28.7617 35.6652 28.7345C35.6254 28.687 35.9243 28.4249 36.2856 28.1159C36.5118 27.9271 36.3885 27.2843 36.8613 27.2341C37.0566 27.2143 37.9587 27.8596 37.4404 27.1876C37.6745 27.3722 37.9087 27.5568 38.1429 27.7414C37.9733 27.3768 37.5104 26.8679 37.5774 26.6691C37.6353 26.5024 37.8761 26.1113 38.0617 26.0522C38.1559 26.0211 38.5847 26.3782 38.6283 26.3148C38.7002 26.2032 38.2477 25.5186 38.3565 25.3693C38.4545 25.2353 39.1438 25.3778 39.1463 25.2154C39.1599 24.6333 38.6972 23.645 39.228 23.3466C39.3757 23.2655 40.0779 23.5286 40.0896 23.4784C40.1113 23.3775 39.5609 22.9413 39.5273 22.8347C39.3574 22.2948 40.3443 22.3666 40.591 22.1028C40.9628 21.7061 41.2904 21.2289 41.7566 20.655C42.1524 19.7301 44.4546 19.2632 45.3596 18.8239C45.9909 18.7018 46.6001 18.594 47.1853 18.6226C47.8738 18.6537 48.9759 18.4792 49.5917 18.9887C49.7247 19.0985 49.7145 19.868 49.822 19.8647C49.9414 19.8609 49.9907 19.34 50.0453 19.2964C50.4239 18.9909 51.2677 18.4499 51.6348 18.9772C51.7049 19.0783 51.7614 19.6801 51.8022 19.6775C51.823 19.6773 51.8654 19.2657 51.93 19.223C52.5021 18.8458 52.9221 19.0843 53.4797 19.2259C54.5457 19.4941 55.7823 18.7438 56.8817 19.1773C57.1203 19.2715 57.2637 20.466 57.2969 20.4546C57.3711 20.4319 57.433 19.6315 57.5876 19.4365C58.0989 18.7956 58.7499 19.6652 59.2276 19.274C59.4582 19.0867 59.7879 18.1274 60.0169 17.8718L59.7982 17.8705C59.8039 17.8629 59.8095 17.8559 59.8151 17.8496C59.9716 17.6682 60.3627 18.0599 60.4258 17.6114C60.4637 17.3405 60.4629 16.4736 60.5119 16.3638ZM54.5463 29.7752C54.5889 28.3896 54.249 29.5388 54.3679 30.2836C54.3945 30.4513 54.5352 30.1348 54.5463 29.7752ZM44.0055 32.3485C44.3172 32.5925 44.6289 32.8365 44.9408 33.0803C44.8432 32.9384 44.7451 32.797 44.6466 32.6561C44.4426 32.5304 44.2389 32.4043 44.0356 32.2777C44.0256 32.3013 44.0156 32.3249 44.0055 32.3485Z" fill="black"/>
</g>
<defs>
<clipPath id="clip0_25_105">
<rect width="390" height="390" fill="white"/>
</clipPath>
</defs>
</svg>
